<?xml version="1.0" encoding="UTF-8"?>
<svg version="1.1" xmlns="http://www.w3.org/2000/svg" width="3333" height="1799">
<path d="M0 0 C0.76089935 0.00093658 1.52179871 0.00187317 2.30575562 0.00283813 C88.41830842 0.23067584 168.51022902 31.54220156 229.9375 91.875 C233.49748587 95.51163629 236.85448743 99.28899928 240.125 103.1875 C240.5384668 103.67653809 240.95193359 104.16557617 241.37792969 104.66943359 C254.93760191 120.80612298 266.47729219 138.45692881 276.125 157.1875 C276.50462891 157.92081543 276.88425781 158.65413086 277.27539062 159.40966797 C310.6539937 224.7026509 314.79421497 304.02590331 292.46484375 373.44140625 C276.05819788 422.68963932 245.24857133 469.13278837 204.125 501.1875 C202.98581812 502.12461793 201.84925903 503.06493004 200.71484375 504.0078125 C172.65423989 527.19368734 139.5639782 543.8319742 105.125 555.1875 C104.15224121 555.50847656 103.17948242 555.82945312 102.17724609 556.16015625 C35.45988776 577.75548199 -39.34627807 576.9846262 -105.875 555.1875 C-106.76348633 554.90213379 -107.65197266 554.61676758 -108.56738281 554.32275391 C-160.32834528 537.47145269 -210.38035812 504.37067466 -243.875 461.1875 C-244.88124078 459.92166061 -245.88777109 458.65605135 -246.89453125 457.390625 C-281.97545514 412.88206511 -304.79788332 355.93525198 -305.078125 298.80859375 C-305.08518463 297.8469783 -305.09224426 296.88536285 -305.09951782 295.89460754 C-305.32875812 255.48866395 -305.32875812 255.48866395 -301.875 237.1875 C-301.68164062 236.13401367 -301.48828125 235.08052734 -301.2890625 233.99511719 C-296.79309239 210.2178185 -289.61588767 186.90796174 -278.875 165.1875 C-278.42753418 164.28016113 -277.98006836 163.37282227 -277.51904297 162.43798828 C-271.39767238 150.13998899 -264.94409627 138.3149953 -256.875 127.1875 C-256.41125977 126.54264648 -255.94751953 125.89779297 -255.46972656 125.23339844 C-240.23750186 104.16062799 -222.69793034 83.90833408 -201.875 68.1875 C-200.87855469 67.39730469 -199.88210937 66.60710937 -198.85546875 65.79296875 C-142.67078891 21.34028952 -71.14484411 -0.11459967 0 0 Z M-39.875 146.1875 C-41.31093506 146.58219482 -41.31093506 146.58219482 -42.77587891 146.98486328 C-69.02428491 154.47169676 -91.1732083 167.36952699 -110.875 186.1875 C-111.47183594 186.73277344 -112.06867187 187.27804687 -112.68359375 187.83984375 C-130.93241549 205.07718346 -142.57823031 229.19473811 -148.875 253.1875 C-149.19597656 254.40695312 -149.51695312 255.62640625 -149.84765625 256.8828125 C-157.67393369 292.92008999 -149.50050267 330.04346151 -130.375 361.0625 C-107.63683207 395.47841482 -72.66429197 418.21053765 -32.52587891 426.68383789 C-22.07404194 428.66966766 -11.88528057 429.54854709 -1.25 429.5 C0.05960693 429.49436035 1.36921387 429.4887207 2.71850586 429.48291016 C26.72671627 429.18489144 49.54507371 423.75232046 71.125 413.1875 C71.74536133 412.89149902 72.36572266 412.59549805 73.00488281 412.29052734 C106.6457054 396.09989744 132.46380325 366.50333487 145.02075195 331.49804688 C153.49419219 306.67571861 155.25526004 279.82425989 149.125 254.1875 C148.97466309 253.51847656 148.82432617 252.84945313 148.66943359 252.16015625 C140.26556753 215.78703711 115.52919967 184.52818777 84.36328125 164.703125 C70.61050603 156.32360332 55.70301011 150.17668249 40.125 146.1875 C39.33738281 145.97867187 38.54976562 145.76984375 37.73828125 145.5546875 C13.41647786 139.3665314 -15.68753154 139.52052796 -39.875 146.1875 Z " fill="#38BDF8" transform="translate(2726.875,1185.8125)"/>
<path d="M0 0 C40.74974025 -1.10284719 81.54365037 6.0005831 121.63525391 12.38330078 C122.74816803 12.55992249 123.86108215 12.73654419 125.00772095 12.91851807 C128.14099821 13.41818676 131.27310173 13.92452928 134.40478516 14.43408203 C135.34725098 14.58487717 136.2897168 14.7356723 137.26074219 14.89103699 C138.11498779 15.03197281 138.9692334 15.17290863 139.84936523 15.31811523 C140.59664383 15.43991653 141.34392242 15.56171783 142.11384583 15.68721008 C143.82275391 16.07080078 143.82275391 16.07080078 144.82275391 17.07080078 C144.91953629 19.10841265 144.94462355 21.1494379 144.94300842 23.18934631 C144.94429006 24.15842986 144.94429006 24.15842986 144.94559759 25.14709085 C144.94725414 27.32749895 144.9417282 29.50783133 144.9362793 31.68823242 C144.93599744 33.24501036 144.93615514 34.80178843 144.9367218 36.35856628 C144.93700982 40.59805282 144.93111237 44.83751132 144.92414784 49.07699132 C144.91791506 53.50261498 144.91731057 57.92823921 144.91612244 62.35386658 C144.9130089 70.74034056 144.90479521 79.12680158 144.89477295 87.51326984 C144.88361251 97.05845427 144.87810154 106.6036393 144.87307751 116.14882863 C144.86261261 135.78949326 144.84501274 155.43014621 144.82275391 175.07080078 C143.37524484 174.59355498 141.92818102 174.11495857 140.48130798 173.63578796 C139.27248663 173.23622658 139.27248663 173.23622658 138.03924465 172.82859325 C135.71485665 172.03391196 133.49112305 171.12649772 131.26416016 170.09033203 C76.70396915 145.35548177 9.4477053 137.65829126 -47.49658203 159.00976562 C-84.34529281 173.59487464 -114.00674164 199.57879317 -130.17724609 236.07080078 C-144.25305234 271.03139378 -146.02870891 308.71361253 -131.18212891 343.80078125 C-114.40371996 381.70302769 -83.95501024 408.10691985 -45.61132812 423.07226562 C-28.61942307 429.26200319 -10.15496695 433.17449279 7.94775391 433.27392578 C8.80377197 433.28098541 9.65979004 433.28804504 10.54174805 433.2953186 C37.81267474 433.47771454 37.81267474 433.47771454 64.82275391 430.07080078 C65.83547363 429.87744141 66.84819336 429.68408203 67.89160156 429.48486328 C93.61661996 424.39872692 117.82984032 415.52076582 141.75097656 404.93774414 C143.82275391 404.07080078 143.82275391 404.07080078 144.82275391 404.07080078 C144.8928283 422.75968989 144.94573438 441.44855235 144.97819042 460.13754559 C144.99366073 468.8151304 145.01475337 477.49263359 145.04907227 486.17016602 C145.07896962 493.73331548 145.09832772 501.29640584 145.10501939 508.85961276 C145.10893109 512.86446214 145.11812746 516.86914241 145.13994408 520.87393761 C145.16031459 524.64383954 145.16658661 528.41350277 145.16207695 532.18345451 C145.1629019 533.56655423 145.16886437 534.94966198 145.18037033 536.33271408 C145.19532133 538.22266098 145.18991405 540.11273611 145.18351746 542.00273132 C145.18628284 543.06002788 145.18904821 544.11732443 145.19189739 545.20666027 C144.76453358 548.52252542 143.77703427 550.38165961 141.82275391 553.07080078 C138.11818447 555.86991541 134.53295016 556.79130401 130.02197266 557.71923828 C129.03169319 557.92569473 129.03169319 557.92569473 128.02140808 558.13632202 C125.85313501 558.58401734 123.68215603 559.01607913 121.51025391 559.44580078 C120.75867004 559.59698364 120.00708618 559.7481665 119.23272705 559.90393066 C103.16928813 563.13026277 87.06108093 565.88696213 70.82275391 568.07080078 C69.6279541 568.23596191 68.4331543 568.40112305 67.20214844 568.57128906 C30.66101619 573.41372772 -8.74669614 573.90629284 -45.17724609 568.07080078 C-46.28696777 567.89919434 -47.39668945 567.72758789 -48.54003906 567.55078125 C-104.18936806 558.72669181 -158.48242771 537.132512 -202.17724609 501.07080078 C-202.75603516 500.59352539 -203.33482422 500.11625 -203.93115234 499.62451172 C-217.54616817 488.30034516 -230.34412223 476.11510617 -241.17724609 462.07080078 C-242.18019285 460.81872951 -243.18417505 459.56748724 -244.18896484 458.31689453 C-252.54615066 447.79497849 -259.53616146 436.73810909 -266.17724609 425.07080078 C-266.55187988 424.42997559 -266.92651367 423.78915039 -267.3125 423.12890625 C-303.80614661 360.67356641 -308.17695227 279.81798743 -290.66381836 211.00878906 C-280.90825709 174.34081822 -263.88094619 140.65160502 -240.17724609 111.07080078 C-239.41798828 110.10529297 -238.65873047 109.13978516 -237.87646484 108.14501953 C-231.7501242 100.61167243 -225.01868656 93.70179629 -218.17724609 86.82080078 C-217.26362305 85.8979126 -216.35 84.97502441 -215.40869141 84.02416992 C-158.96106828 27.83386077 -78.08429697 2.53918436 0 0 Z " fill="#38BDF8" transform="translate(2125.17724609375,1176.92919921875)"/>
<path d="M0 0 C0 51.81 0 103.62 0 157 C-4.48817812 156.10236438 -7.2322007 155.01824337 -11.25 153 C-42.28954594 138.06903709 -77.57774542 129.82728512 -112 129 C-112.80002441 128.97953613 -113.60004883 128.95907227 -114.42431641 128.93798828 C-155.53181335 128.02415269 -199.41857195 136.19387525 -232 163 C-232.91523437 163.71671875 -233.83046875 164.4334375 -234.7734375 165.171875 C-264.09601847 188.4692681 -281.32278972 222.00117241 -286 259 C-286.92772725 275.93582082 -286.59814699 292.59855705 -282 309 C-281.81808105 309.6698291 -281.63616211 310.3396582 -281.44873047 311.02978516 C-271.53070794 346.580445 -245.76041673 376.07830865 -214 394 C-200.24158993 401.59084694 -186.07652642 406.83582578 -170.875 410.75 C-170.1128418 410.94875732 -169.35068359 411.14751465 -168.56542969 411.35229492 C-154.29602662 414.85066791 -140.16701948 415.37214497 -125.5625 415.3125 C-124.63658051 415.31067719 -123.71066101 415.30885437 -122.75668335 415.30697632 C-108.31266962 415.25916135 -94.23348113 414.63104541 -80 412 C-79.10039551 411.8443457 -78.20079102 411.68869141 -77.27392578 411.52832031 C-54.72903303 407.5463033 -32.67360373 399.85834265 -11.73608398 390.69238281 C-10.91438721 390.33756836 -10.09269043 389.98275391 -9.24609375 389.6171875 C-8.54154053 389.30378418 -7.8369873 388.99038086 -7.11108398 388.66748047 C-4.65358501 387.89047085 -2.56372656 387.95483541 0 388 C0.09346681 406.28045102 0.16399066 424.56083997 0.20724869 442.84147835 C0.22786857 451.32962154 0.2559781 459.81761621 0.30175781 468.30566406 C0.34164327 475.70438451 0.36743699 483.10299738 0.37635398 490.50182235 C0.38156588 494.41901522 0.39380344 498.33590036 0.42292023 502.25299454 C0.45011655 505.94169418 0.45843663 509.62996 0.45243073 513.31875038 C0.45405191 515.31436832 0.47555265 517.30993926 0.49768066 519.30543518 C0.44727917 530.25571432 0.44727917 530.25571432 -4 535 C-7.63833505 537.75676331 -11.1501408 538.70363664 -15.58203125 539.6484375 C-16.53888069 539.85489395 -16.53888069 539.85489395 -17.51506042 540.06552124 C-19.61200166 540.51334916 -21.71173552 540.94548668 -23.8125 541.375 C-24.90485962 541.60177429 -24.90485962 541.60177429 -26.01928711 541.83312988 C-41.9264962 545.12687213 -57.89338602 547.88070869 -74 550 C-75.25522461 550.16516113 -76.51044922 550.33032227 -77.80371094 550.50048828 C-170.5790369 562.08243254 -267.08267305 543.25799678 -342.0859375 485.62890625 C-360.10049749 471.15015531 -377.38059388 454.71173794 -391 436 C-391.85649066 434.85005169 -392.71326433 433.70031411 -393.5703125 432.55078125 C-399.61056044 424.36036134 -404.9916584 415.8553594 -410 407 C-410.39687012 406.30342285 -410.79374023 405.6068457 -411.20263672 404.88916016 C-447.49030052 340.56168316 -454.37900284 260.31039463 -434.83789062 189.57324219 C-423.10445053 148.62868035 -402.75451336 110.8626096 -373.5625 79.75 C-371.25457931 77.27320706 -369.02673791 74.74771258 -366.8125 72.1875 C-363.7831344 68.7648699 -360.59292539 65.73838493 -357.1015625 62.79296875 C-354.83801946 60.86180471 -352.67715618 58.84038627 -350.5 56.8125 C-300.93558058 12.24235795 -232.56694794 -11.61194136 -167 -17 C-166.32936523 -17.05784668 -165.65873047 -17.11569336 -164.96777344 -17.17529297 C-109.3627528 -21.80675415 -54.0975442 -11.47523665 0 0 Z " fill="#38BDF8" transform="translate(745,1195)"/>
<path d="M0 0 C0 36.96 0 73.92 0 112 C-8.14833906 111.37320469 -15.87368609 110.67932186 -23.85546875 109.2578125 C-25.86617148 108.91122936 -27.87691516 108.56488369 -29.88769531 108.21875 C-30.91689087 108.03957031 -31.94608643 107.86039063 -33.00646973 107.67578125 C-80.2088864 99.50289265 -123.19825481 97.8965518 -170.4375 106.4375 C-171.46697754 106.61821045 -172.49645508 106.7989209 -173.55712891 106.98510742 C-183.44970187 108.91546578 -193.54635748 112.8120063 -199.625 121.2578125 C-205.34783384 130.25476762 -207.47452054 138.93350529 -205.53515625 149.54296875 C-202.81839151 159.91168626 -197.0848417 167.40881543 -188 173 C-185.40577056 174.33399381 -182.76078714 175.53413996 -180.09375 176.71484375 C-178.92159943 177.2340741 -178.92159943 177.2340741 -177.72576904 177.76379395 C-168.75754086 181.65193836 -159.5423605 184.79352584 -150.29885864 187.95428467 C-128.4492545 195.44838942 -107.14921182 203.85856655 -85.99938965 213.12762451 C-82.90498886 214.47777625 -79.79981299 215.80214168 -76.6953125 217.12890625 C-50.56748773 228.35598923 -27.91101448 241.53826375 -7 261 C-6.32195312 261.62390625 -5.64390625 262.2478125 -4.9453125 262.890625 C19.83550021 286.57670301 36.53200641 323.47788232 38.17700195 357.68017578 C38.96322412 405.98741974 26.193889 447.24418294 -7.80859375 482.8046875 C-53.71454019 529.49207222 -126.20827422 548.33981939 -189.85353088 549.14451599 C-194.73575882 549.18536979 -199.61762215 549.19274298 -204.5 549.1875 C-205.54667847 549.18689575 -206.59335693 549.1862915 -207.67175293 549.18566895 C-257.79311422 549.10790259 -310.20930473 547.19767382 -359 535 C-359 493.75 -359 452.5 -359 410 C-348.8812578 411.12430469 -348.8812578 411.12430469 -345.00732422 411.9362793 C-344.13141632 412.11724655 -343.25550842 412.29821381 -342.35305786 412.48466492 C-340.96786453 412.77649406 -340.96786453 412.77649406 -339.5546875 413.07421875 C-337.50629454 413.49662582 -335.4577871 413.918478 -333.40917969 414.33984375 C-332.34324585 414.5601123 -331.27731201 414.78038086 -330.17907715 415.00732422 C-307.2153646 419.73462338 -284.23994546 423.89476253 -261 427 C-259.40478516 427.2160791 -259.40478516 427.2160791 -257.77734375 427.43652344 C-214.72920164 433.01738643 -165.54105148 431.01836866 -128.8125 405.8125 C-121.12095665 398.12095665 -116.05716925 388.53864026 -115.5625 377.625 C-115.89478297 367.71189139 -119.86653416 358.87339156 -127 352 C-149.71437078 333.94075463 -179.56506252 325.4438272 -207.03125 317.68432617 C-248.73825215 305.9000586 -288.68225623 288.8690655 -320 258 C-320.83789062 257.175 -321.67578125 256.35 -322.5390625 255.5 C-350.79629442 226.07659661 -361.57414176 187.05010626 -361.21484375 147.17578125 C-360.32768827 105.36926804 -340.85795871 65.96292389 -311.0546875 37.1171875 C-309.08376496 35.34418187 -307.06344374 33.66453546 -305 32 C-304.09121094 31.25363281 -303.18242188 30.50726562 -302.24609375 29.73828125 C-231.07287106 -27.00432557 -131.36952262 -23.94179601 0 0 Z " fill="#38BDF8" transform="translate(1645,1208)"/>
<path d="M0 0 C14.01743507 12.09209223 22.86073729 27.67582609 25.5 46.0625 C25.58587844 47.89091035 25.62733474 49.72184192 25.62880117 51.55226737 C25.63207336 52.62642428 25.63534555 53.7005812 25.63871691 54.80728832 C25.63723328 55.97869549 25.63574966 57.15010267 25.63422108 58.35700703 C25.63657331 59.6132986 25.63892554 60.86959017 25.64134905 62.16395119 C25.64774256 65.65947519 25.64791119 69.15497619 25.64707164 72.65050492 C25.64724127 76.4503917 25.65314887 80.25027028 25.6583125 84.05015296 C25.66763773 91.59070815 25.67156042 99.13125748 25.67383147 106.67181772 C25.67679376 115.70261431 25.68549138 124.73340311 25.69424575 133.76419561 C25.71509071 155.59365026 25.72556027 177.42310627 25.73437535 199.25256855 C25.73858204 209.58025548 25.74380402 219.90794182 25.74905988 230.23562826 C25.76695068 265.59041502 25.78194631 300.94520195 25.78938007 336.29999256 C25.78985483 338.51963688 25.79033072 340.73928121 25.79080774 342.95892553 C25.79104411 344.05966731 25.79128049 345.16040909 25.79152403 346.29450668 C25.79272522 351.87138662 25.79394067 357.44826655 25.79516602 363.02514648 C25.79552624 364.68526833 25.79552624 364.68526833 25.79589374 366.378928 C25.80378548 402.25686369 25.82721441 438.13476632 25.85972196 474.01268757 C25.89402991 511.94697021 25.91373214 549.8812335 25.91702431 587.81553191 C25.91744185 591.98101692 25.91792141 596.14650192 25.91844749 600.31198692 C25.91857069 601.33764254 25.91869388 602.36329815 25.9188208 603.42003424 C25.92115169 619.91718321 25.93680549 636.41429374 25.95728934 652.91142902 C25.97755849 669.4990349 25.98301949 686.08659467 25.97351871 702.67421065 C25.96830792 712.52434172 25.9741613 722.37431913 25.99605338 732.22442805 C26.00958516 738.8117302 26.0084635 745.39892686 25.99565142 751.98623012 C25.98877057 755.73463455 25.98803043 759.48274572 26.00521151 763.23112366 C26.15964614 799.12091904 26.15964614 799.12091904 17.6875 814.5625 C17.34058105 815.22064697 16.99366211 815.87879395 16.63623047 816.55688477 C13.77505123 821.84765047 10.62186318 826.65784787 6.5 831.0625 C5.80777344 831.80757812 5.11554687 832.55265625 4.40234375 833.3203125 C-10.31606182 847.81757341 -31.31955552 853.375 -51.47949219 853.375 C-71.63439455 853.05565693 -90.2147822 845.38930504 -104.5 831.0625 C-119.95860904 813.64468549 -123.66896482 793.92396647 -123.62863445 771.40518475 C-123.63038749 770.15827477 -123.63214053 768.9113648 -123.63394669 767.62666968 C-123.63865316 764.1761306 -123.63718269 760.72561807 -123.63466892 757.27507773 C-123.63303052 753.51706534 -123.63718109 749.75905851 -123.64057809 746.00104791 C-123.64572487 739.41798014 -123.64715054 732.83491971 -123.64612198 726.25185013 C-123.64459618 716.46240646 -123.64876073 706.67297093 -123.6539966 696.88352885 C-123.6636657 678.38206297 -123.66648067 659.88059986 -123.66705366 641.37913176 C-123.66751324 627.09219914 -123.66957174 612.80526761 -123.67275429 598.51833534 C-123.67365183 594.40560367 -123.67454165 590.29287199 -123.67542917 586.18014032 C-123.67565021 585.1577025 -123.67587126 584.13526468 -123.67609901 583.0818439 C-123.68225281 554.32442806 -123.68619961 525.56701259 -123.68575573 496.80959606 C-123.68574015 495.72546463 -123.68572457 494.6413332 -123.68570852 493.5243493 C-123.68562541 488.02953391 -123.68552637 482.53471852 -123.68542381 477.03990313 C-123.68540387 475.94861438 -123.68538392 474.85732562 -123.68536337 473.73296752 C-123.68532294 471.52611664 -123.68528114 469.31926576 -123.68523798 467.11241488 C-123.68462514 432.77244878 -123.69213361 398.43249256 -123.70581055 364.0925293 C-123.72117033 325.51139718 -123.72977685 286.93027154 -123.72884732 248.34913617 C-123.72877269 244.23546143 -123.72872399 240.12178669 -123.72869301 236.00811195 C-123.72868135 234.995221 -123.7286697 233.98233005 -123.72865769 232.93874544 C-123.72862692 216.63816462 -123.73501295 200.33759238 -123.74362527 184.03701412 C-123.75210108 167.65609195 -123.75309224 151.27518232 -123.74651595 134.89425918 C-123.74281998 125.16328749 -123.74465411 115.4323539 -123.75445829 105.70138624 C-123.76045622 99.19875517 -123.75916489 92.69615171 -123.75198779 86.19352191 C-123.74810477 82.49033332 -123.74733505 78.78721847 -123.75544515 75.08403506 C-123.76411888 71.08841198 -123.75721469 67.09296247 -123.74888897 63.09733868 C-123.75385715 61.95675877 -123.75882533 60.81617887 -123.76394406 59.64103594 C-123.67143246 38.6341548 -117.77408525 19.76186797 -103.3125 4.25 C-93.78954892 -4.62816794 -82.98910669 -10.38623669 -70.5 -13.9375 C-69.65824219 -14.18242188 -68.81648438 -14.42734375 -67.94921875 -14.6796875 C-44.37761764 -20.16844948 -19.11368159 -14.64213222 0 0 Z " fill="#38BDF8" transform="translate(2512.5,105.9375)"/>
<path d="M0 0 C14.48508211 11.73935247 24.72031333 27.46484901 26.98776527 46.19676102 C27.41874358 51.18756569 27.34078503 56.19147978 27.33441639 61.19734097 C27.33676862 62.45594023 27.33912085 63.71453949 27.34154436 65.01127812 C27.34792145 68.50395007 27.34810782 71.99659893 27.34726695 75.48927558 C27.3474369 79.28954734 27.35334811 83.08981094 27.35850781 86.8900786 C27.36782292 94.42714002 27.37175402 101.96419557 27.37402678 109.50126202 C27.37699167 118.52948824 27.38569073 127.55770668 27.39444106 136.58592882 C27.41527421 158.40645426 27.42575329 180.22698104 27.43457067 202.0475141 C27.43877859 212.37168631 27.44400037 222.69585793 27.44925519 233.02002965 C27.46714397 268.36618296 27.48213986 303.71233645 27.48957539 339.05849361 C27.49005014 341.27705688 27.49052603 343.49562015 27.49100305 345.71418342 C27.49123942 346.81438018 27.4914758 347.91457693 27.49171934 349.04811298 C27.49292053 354.62216321 27.49413598 360.19621344 27.49536133 365.77026367 C27.49572155 367.42953686 27.49572155 367.42953686 27.49608906 369.12233072 C27.50398188 404.98690032 27.5274141 440.85143685 27.55991727 476.71599201 C27.59422502 514.64103282 27.61392737 552.56605428 27.61721963 590.49111086 C27.61763716 594.65544133 27.61811672 598.81977179 27.61864281 602.98410225 C27.618766 604.00946486 27.61888919 605.03482748 27.61901612 606.09126168 C27.62134687 622.58272175 27.63699979 639.07414335 27.65748465 655.56558971 C27.67775336 672.14623026 27.68321498 688.72682468 27.67371402 705.30747532 C27.66850328 715.15317309 27.67435644 724.99871713 27.69624869 734.84439274 C27.70978046 741.42866888 27.70865882 748.01283949 27.69584673 754.59711674 C27.68896594 758.34375762 27.68822554 762.09010511 27.70540682 765.83671951 C27.85941161 801.60515441 27.85941161 801.60515441 19.51269531 817.09423828 C19.17238281 817.74835693 18.83207031 818.40247559 18.48144531 819.07641602 C15.22595299 825.07318085 11.13097328 829.94530097 6.20019531 834.65673828 C5.59949219 835.27677734 4.99878906 835.89681641 4.37988281 836.53564453 C-10.12999963 850.57442689 -30.8561881 855.44871828 -50.44213867 855.1784668 C-68.14116407 854.52062691 -84.50075343 848.57501373 -97.79980469 836.65673828 C-98.6209375 835.94001953 -99.44207031 835.22330078 -100.28808594 834.48486328 C-114.97652289 820.84400833 -121.1557652 802.44006244 -121.91275109 782.71341541 C-122.09227179 774.60578185 -122.07687644 766.49678214 -122.06294116 758.38760811 C-122.05873932 754.64758124 -122.06619051 750.90757349 -122.07209367 747.1675514 C-122.08082704 740.62369871 -122.08217801 734.07987734 -122.07859039 727.53602028 C-122.07326947 717.80475758 -122.07939262 708.07352504 -122.08767333 698.34226562 C-122.102895 679.94930627 -122.10462031 661.55636071 -122.1021503 643.16339637 C-122.10031611 628.95909173 -122.10207989 614.7547916 -122.10637474 600.55048752 C-122.10697715 598.50821638 -122.10757834 596.46594524 -122.10817834 594.4236741 C-122.10908562 591.34600505 -122.10999428 588.26833601 -122.11091069 585.19066697 C-122.11933738 556.58507123 -122.12367785 527.97947719 -122.11950397 499.37388039 C-122.1193476 498.29602849 -122.11919122 497.21817659 -122.11903011 496.10766252 C-122.11822435 490.64494275 -122.11737858 485.18222299 -122.11651681 479.71950324 C-122.11634572 478.6346298 -122.11617463 477.54975635 -122.11599836 476.43200796 C-122.1156517 474.23813241 -122.11530317 472.04425687 -122.11495277 469.85038133 C-122.10959515 435.71095364 -122.11752832 401.57155178 -122.13598633 367.43212891 C-122.15670978 329.05784187 -122.16742846 290.68357084 -122.16341084 252.30927789 C-122.16301551 248.21639212 -122.16265396 244.12350635 -122.16231346 240.03062057 C-122.16217736 238.51901162 -122.16217736 238.51901162 -122.16203852 236.97686511 C-122.16087341 221.77586664 -122.16751418 206.57488435 -122.17812538 191.37388992 C-122.19018279 174.08373038 -122.19173002 156.79360643 -122.17933521 139.50344636 C-122.17271287 129.83326172 -122.17432331 120.16316223 -122.18792373 110.49298443 C-122.19618379 104.02594179 -122.1934505 97.55896276 -122.18194846 91.09192526 C-122.17570751 87.41240754 -122.17405087 83.73305567 -122.1858118 80.0535477 C-122.26776025 52.50964002 -120.68778833 26.92967185 -100.94824219 5.71533203 C-74.47946296 -19.64657098 -29.05592164 -21.68552372 0 0 Z " fill="#38BDF8" transform="translate(920.7998046875,104.34326171875)"/>
<path d="M0 0 C48.51 0 97.02 0 147 0 C147 180.84 147 361.68 147 548 C98.49 548 49.98 548 0 548 C0 367.16 0 186.32 0 0 Z " fill="#38BDF8" transform="translate(948,1195)"/>
<path d="M0 0 C1.23137695 0.00902344 2.46275391 0.01804687 3.73144531 0.02734375 C23.57000107 0.40372742 41.62061843 6.51862667 55.76953125 20.79296875 C75.53735637 41.86827207 75.85726685 66.85490594 75.75823963 94.07838237 C75.74703267 98.37353204 75.75910404 102.66862939 75.76808167 106.96377563 C75.78194877 115.35498593 75.77450736 123.74604481 75.75940608 132.13724778 C75.74247239 141.9220456 75.74576532 151.70680647 75.74950016 161.49161442 C75.75536638 178.95399411 75.74125384 196.41630148 75.71655273 213.87866211 C75.69261719 230.80186674 75.68555724 247.72497484 75.69604492 264.64819336 C75.70746522 283.10921079 75.70937187 301.57018368 75.69494683 320.03120059 C75.69342108 322.0010269 75.69190073 323.97085323 75.69038582 325.94067955 C75.689628 326.90970714 75.68887019 327.87873473 75.68808941 328.87712679 C75.68335663 335.68948729 75.68519074 342.50182782 75.68945122 349.314188 C75.69438771 357.61787733 75.68834921 365.9214756 75.66855692 374.22514413 C75.65871553 378.45757451 75.65354569 382.68986649 75.66144943 386.92230415 C75.66854735 390.80269555 75.66160653 394.68280868 75.6438458 398.5631636 C75.63982794 399.96056641 75.64075598 401.35799492 75.64736467 402.75538788 C75.69774072 414.4123227 74.07447858 425.01148599 68.6875 435.4375 C68.34235352 436.11047119 67.99720703 436.78344238 67.64160156 437.47680664 C58.24799073 455.0762584 42.56397812 466.65613572 23.734375 472.53515625 C1.58499504 477.77977816 -21.61186676 474.92188521 -41.25 463.375 C-56.21892832 453.40292492 -67.39263165 438.42928741 -71.61258376 420.84269381 C-73.3975098 411.67859206 -74.18002503 402.96437123 -74.13095093 393.5994873 C-74.13441929 392.18227134 -74.13919166 390.76505808 -74.14513266 389.34785032 C-74.15751082 385.50407437 -74.15153342 381.66052547 -74.14217401 377.81674933 C-74.13532899 373.65170841 -74.1458915 369.48670398 -74.15411377 365.32167053 C-74.16739566 357.18234189 -74.16459823 349.04309664 -74.15587585 340.90376484 C-74.14907776 334.28385369 -74.14819173 327.66396577 -74.1514473 321.04405212 C-74.15213684 319.62630987 -74.15213684 319.62630987 -74.15284032 318.17992637 C-74.15379958 316.2593516 -74.15477222 314.33877685 -74.1557581 312.4182021 C-74.16429575 294.44400831 -74.15450343 276.46986055 -74.138357 258.49567431 C-74.1249553 243.10077156 -74.12728385 227.70593669 -74.14111328 212.31103516 C-74.15719788 194.39751015 -74.16347193 176.4840254 -74.15427649 158.57049417 C-74.15332093 156.65731208 -74.15237781 154.74412998 -74.1514473 152.83094788 C-74.15098447 151.88982925 -74.15052164 150.94871063 -74.15004479 149.97907326 C-74.14746353 143.37348502 -74.15180719 136.76792251 -74.15888596 130.16233826 C-74.16733323 122.10321717 -74.16495337 114.04418365 -74.14904372 105.98507249 C-74.1412042 101.87973999 -74.13799489 97.77455304 -74.14799118 93.66922188 C-74.15702915 89.90022729 -74.15185822 86.13151112 -74.13605852 82.36254126 C-74.13119903 80.37688893 -74.14082506 78.39121677 -74.15123022 76.40558577 C-74.00651431 53.89708038 -67.40771298 35.70808087 -51.875 19.125 C-37.67073761 5.56766441 -19.26514971 -0.16950365 0 0 Z " fill="#38BDF8" transform="translate(2064.75,348.5625)"/>
<path d="M0 0 C16.55750934 12.84299478 25.38399191 29.83557047 28.65235519 50.45139313 C29.39470197 56.57658822 29.26958424 62.72623985 29.26544189 68.88708496 C29.26802892 70.28501927 29.27104302 71.68295285 29.2744453 73.08088541 C29.28247905 76.90845963 29.28430284 80.73601507 29.28504276 84.56359673 C29.28689968 88.69741184 29.29445024 92.83121734 29.30117798 96.96502686 C29.31473644 105.99839585 29.32078225 115.03176039 29.32518864 124.06513786 C29.32795549 129.71105416 29.33219367 135.35696876 29.33669281 141.00288391 C29.34888266 156.65010216 29.35918225 172.29731904 29.3625679 187.94454193 C29.36289725 189.44556473 29.36289725 189.44556473 29.36323325 190.97691122 C29.36345153 191.97992138 29.36366981 192.98293155 29.3638947 194.01633596 C29.36433816 196.04865106 29.36478472 198.08096616 29.36523438 200.11328125 C29.36556652 201.62541331 29.36556652 201.62541331 29.36590537 203.1680935 C29.36985075 219.49124234 29.38729812 235.81434647 29.4105939 252.13747805 C29.43434562 268.91623448 29.4467715 285.69496851 29.44793582 302.47374201 C29.44885048 311.88626193 29.45454987 321.2987236 29.47275543 330.71122742 C29.48820812 338.72844386 29.49324656 346.74558404 29.48501733 354.76281255 C29.48112894 358.84784532 29.48195103 362.93272476 29.49607468 367.01773834 C29.50892331 370.76853574 29.5075215 374.5190663 29.49548396 378.2698639 C29.49263824 380.24596572 29.50437909 382.22207264 29.51690602 384.19813681 C29.39989257 405.70635127 23.17314963 425.02987732 8.34375 441 C-1.78413906 450.69995009 -14.18178538 457.23236044 -27.875 460.125 C-28.72578125 460.30804687 -29.5765625 460.49109375 -30.453125 460.6796875 C-52.22935887 463.51358095 -73.91774417 461.10129553 -91.8125 447.5625 C-95.03128594 444.91478898 -98.03571095 442.1826959 -100.875 439.125 C-101.46796875 438.54878906 -102.0609375 437.97257812 -102.671875 437.37890625 C-107.14235593 432.79579693 -110.30133262 427.97908721 -113.1875 422.3125 C-113.51274658 421.68561279 -113.83799316 421.05872559 -114.1730957 420.4128418 C-119.3445583 409.78388141 -120.31784372 399.0585936 -120.26268005 387.3883667 C-120.2668615 385.93335443 -120.27234343 384.47834542 -120.27899987 383.02334237 C-120.29336736 379.0565228 -120.28923719 375.08991253 -120.28183305 371.12308192 C-120.2770819 366.8325387 -120.28962847 362.5420395 -120.29985046 358.25151062 C-120.31700666 349.8576365 -120.31788497 341.46383735 -120.31263756 333.06995025 C-120.30858816 326.24303947 -120.31004856 319.41615076 -120.31538582 312.58924103 C-120.31613424 311.61578396 -120.31688266 310.64232688 -120.31765376 309.63937111 C-120.31918532 307.66146022 -120.32072367 305.68354932 -120.32226873 303.70563844 C-120.33598265 285.17540852 -120.33056421 266.64522088 -120.31908352 248.11499193 C-120.30915561 231.18745574 -120.32208615 214.26002893 -120.34601771 197.33250961 C-120.37044076 179.92533006 -120.3800085 162.51820139 -120.37336498 145.11100507 C-120.36987946 135.3486572 -120.37206051 125.58639339 -120.38961601 115.82405853 C-120.40437827 107.51229951 -120.40492122 99.20068371 -120.3875451 90.88892737 C-120.37906513 86.65396488 -120.37681136 82.4192578 -120.39219666 78.18430901 C-120.40614449 74.29666268 -120.40115296 70.40948811 -120.38195742 66.52186838 C-120.37648024 64.47239322 -120.39038428 62.42289342 -120.40531152 60.3734653 C-120.30962012 48.14577358 -118.01178622 35.69637299 -112.1875 24.8125 C-111.67268066 23.82624634 -111.67268066 23.82624634 -111.14746094 22.82006836 C-102.31749916 6.48623437 -88.39693597 -4.1395861 -70.8203125 -9.87109375 C-47.28027431 -16.53758153 -20.33183046 -14.25468554 0 0 Z " fill="#38BDF8" transform="translate(1316.875,361.875)"/>
<path d="M0 0 C15.44622658 11.87092753 24.1381572 28.47946635 26.8038516 47.6474179 C27.30342005 53.06039981 27.16389958 58.51183938 27.15997314 63.94337463 C27.16255924 65.37486966 27.16557308 66.80636397 27.16897655 68.23785728 C27.17702121 72.16276458 27.1788347 76.08765356 27.17957401 80.01256812 C27.181429 84.24929455 27.1889786 88.48601158 27.19570923 92.72273254 C27.20927532 101.98329198 27.21531466 111.24384708 27.21971989 120.5044148 C27.22248537 126.29051572 27.2267233 132.07661497 27.23122406 137.86271477 C27.24341475 153.89334921 27.25371428 169.92398233 27.25709915 185.95462132 C27.2574285 187.49281281 27.2574285 187.49281281 27.2577645 189.06207889 C27.25798278 190.08994766 27.25820106 191.11781643 27.25842595 192.17683274 C27.25886941 194.25957143 27.25931598 196.34231013 27.25976562 198.42504883 C27.26009777 199.97470345 27.26009777 199.97470345 27.26043662 201.55566423 C27.26438285 218.28761843 27.2818324 235.01952904 27.30512515 251.7514664 C27.3288649 268.94376601 27.34130221 286.13604376 27.34246707 303.32836002 C27.34338238 312.97557414 27.34909843 322.62273145 27.36728668 332.26992989 C27.38272314 340.48631928 27.38778728 348.7026343 27.37954858 356.91903544 C27.37565453 361.10710061 27.37651042 365.29501619 27.39060593 369.48306274 C27.40341999 373.32569777 27.40208225 377.16807196 27.39001521 381.01070701 C27.38715826 383.04102436 27.39893684 385.07134654 27.41143727 387.10162741 C27.29764669 408.44053252 20.39461284 425.93507982 5.796875 441.328125 C-9.14904979 455.43317199 -28.85478849 460.71428971 -48.9453125 461.05078125 C-70.62354077 460.34735791 -89.15337707 451.73681493 -103.98046875 435.984375 C-119.61380815 417.35963122 -122.14364807 397.52802782 -122.11418152 373.97615051 C-122.11605478 372.61244971 -122.11835751 371.24874944 -122.12104684 369.88505 C-122.12710761 366.17524542 -122.12703808 362.46546356 -122.12585247 358.75565517 C-122.125647 354.73982013 -122.13118104 350.7239921 -122.13591003 346.7081604 C-122.14418553 338.8545313 -122.14696346 331.00090971 -122.14752241 323.14727662 C-122.14799903 316.75805666 -122.150061 310.36883916 -122.15322304 303.97961998 C-122.16202096 285.83088469 -122.16664374 267.68215529 -122.16589256 249.53341786 C-122.16585261 248.55680159 -122.16581265 247.58018531 -122.16577148 246.57397461 C-122.1657306 245.59615423 -122.16568972 244.61833385 -122.1656476 243.61088254 C-122.16524132 227.77116936 -122.17480859 211.93147997 -122.18890985 196.09177367 C-122.20330324 179.79423466 -122.21017842 163.49670723 -122.20931607 147.19916171 C-122.20898514 138.06277026 -122.2116867 128.92640377 -122.22249413 119.79001808 C-122.23163818 112.0105101 -122.23374249 104.23103839 -122.2269847 96.45152733 C-122.22373917 92.48978537 -122.22359085 88.52811282 -122.23233795 84.56637764 C-122.32119558 41.4677568 -122.32119558 41.4677568 -114.98046875 25.984375 C-114.57183594 25.06527344 -114.16320313 24.14617187 -113.7421875 23.19921875 C-105.54295139 6.3895754 -90.57400643 -4.56150185 -73.40625 -11.04296875 C-48.10048553 -18.22784373 -21.79950038 -14.74251926 0 0 Z " fill="#38BDF8" transform="translate(2907.98046875,363.015625)"/>
<path d="M0 0 C1.43359261 1.18820289 2.85082438 2.39645555 4.25 3.625 C4.92675781 4.20765625 5.60351562 4.7903125 6.30078125 5.390625 C28.85278778 26.23480967 32.06794722 62.53591427 33.42330432 91.30338645 C33.67166879 99.77861146 33.67531196 108.25456882 33.65683305 116.73255384 C33.65200466 120.48499755 33.66469359 124.23739482 33.67485046 127.98982239 C33.69185154 135.29678244 33.69291901 142.60365583 33.68763756 149.91063049 C33.6835638 155.8537929 33.68507694 161.79693008 33.69038582 167.74009132 C33.69113424 168.59217551 33.69188266 169.44425971 33.69265376 170.32216463 C33.6941855 172.05406151 33.69572384 173.78595839 33.69726873 175.51785526 C33.71092278 191.67179584 33.70560352 207.82568765 33.69408352 223.97962705 C33.68413055 238.72376299 33.69714002 253.46777381 33.72101771 268.21189048 C33.74544861 283.41376232 33.75500851 298.61557597 33.74836498 313.81746703 C33.74488523 322.32763018 33.7470237 330.83769692 33.76461601 339.34784508 C33.77938695 346.58144245 33.77990844 353.81487524 33.7625451 361.04846957 C33.75407804 364.73065199 33.75177973 368.41254096 33.76719666 372.09470749 C33.8609599 396.26592612 32.20162482 417.74783565 15.25 436.625 C14.52167969 437.44613281 13.79335938 438.26726562 13.04296875 439.11328125 C0.05187511 452.94386397 -17.36081051 460.65994444 -36.23828125 461.84375 C-58.54856319 462.39976949 -79.81131542 455.23279695 -96.0625 439.8125 C-111.12647094 424.00015871 -116.24188443 404.34216399 -116.13095093 382.95829773 C-116.13441713 381.53527097 -116.1391881 380.11224692 -116.14513266 378.68922836 C-116.15754077 374.82006195 -116.1515193 370.95112037 -116.14217401 367.08195364 C-116.13534141 362.89299996 -116.14588558 358.70408294 -116.15411377 354.51513672 C-116.16740972 346.32439792 -116.16459158 338.13374188 -116.15587585 329.94299992 C-116.14908197 323.28062012 -116.14818993 316.6182634 -116.1514473 309.95588112 C-116.151907 309.00518664 -116.15236669 308.05449216 -116.15284032 307.07498876 C-116.15379957 305.14322266 -116.15477221 303.21145657 -116.1557581 301.27969048 C-116.16430024 283.19102103 -116.15449707 265.10239728 -116.138357 247.01373533 C-116.12496139 231.52191068 -116.12727796 216.03015351 -116.14111328 200.53833008 C-116.15720114 182.51603852 -116.16346955 164.49378699 -116.15427649 146.47148925 C-116.15332092 144.54618157 -116.15237781 142.62087387 -116.1514473 140.69556618 C-116.15098447 139.74847007 -116.15052164 138.80137396 -116.15004479 137.82557797 C-116.14746402 131.1794057 -116.15180626 124.53325899 -116.15888596 117.88709068 C-116.16733715 109.77561507 -116.16494553 101.66422645 -116.14904372 93.55276068 C-116.14120839 89.42099005 -116.13798745 85.28936395 -116.14799118 81.15759468 C-116.20732073 54.37903617 -115.97019276 26.41687856 -96.59375 5.33984375 C-70.94772794 -18.51313015 -28.33629935 -21.15584254 0 0 Z " fill="#38BDF8" transform="translate(517.75,362.375)"/>
<path d="M0 0 C0.84691406 0.65226563 1.69382812 1.30453125 2.56640625 1.9765625 C15.9637444 13.11592231 22.85564919 31.17196088 25 48 C25.08968775 50.23241358 25.13457001 52.46696513 25.14044189 54.70117188 C25.14615204 56.01013931 25.15186218 57.31910675 25.15774536 58.66773987 C25.15899046 60.10140982 25.16011561 61.53507987 25.16113281 62.96875 C25.16576686 64.49222431 25.17079231 66.01569747 25.17617798 67.53916931 C25.18925102 71.66566299 25.19573743 75.79214044 25.20018864 79.91865158 C25.20312877 82.50331588 25.20723541 85.08797584 25.21169281 87.67263794 C25.22535688 95.77832676 25.23502779 103.88400555 25.2388947 111.98970509 C25.24336714 121.31077236 25.2608817 130.63169238 25.2898953 139.95271492 C25.31160222 147.18020991 25.32160383 154.40766376 25.32293582 161.63519096 C25.3239778 165.94093376 25.32975444 170.24653795 25.34775543 174.55224609 C25.36439187 178.61037408 25.36631727 182.66826161 25.35761642 186.72641182 C25.35685418 188.20367648 25.36107929 189.68095492 25.37107468 191.15818596 C25.49126739 210.05242924 21.85643542 226.85866473 10 242 C9.46632812 242.69867187 8.93265625 243.39734375 8.3828125 244.1171875 C-2.9087442 258.00202037 -20.52234323 265.99228537 -37.9375 268.75 C-39.28938253 268.86456632 -40.64448116 268.94272456 -42 269 C-43.59328125 269.07734375 -43.59328125 269.07734375 -45.21875 269.15625 C-68.27300911 269.73744981 -88.16194973 263.15588158 -105.1875 247.25 C-120.27199237 231.39273651 -124.3065078 213.19367502 -124.29052734 192.06396484 C-124.29652221 190.47270394 -124.30332994 188.88144592 -124.31088257 187.29019165 C-124.32845534 182.99231017 -124.33323433 178.69450847 -124.33451414 174.39659452 C-124.33594161 171.70318633 -124.34022249 169.00979803 -124.34550858 166.31639481 C-124.36398217 156.89630103 -124.37218281 147.47626363 -124.37060547 138.05615234 C-124.36940579 129.31406567 -124.39048094 120.57222656 -124.4220928 111.83020246 C-124.44836218 104.29349573 -124.45896827 96.7568693 -124.45769465 89.22011721 C-124.45718801 84.73270927 -124.46270418 80.24552144 -124.48405075 75.75815964 C-124.50361317 71.53084512 -124.50343663 67.3039566 -124.48901749 63.07662582 C-124.48695017 61.53850166 -124.49150384 60.00034954 -124.5037384 58.46227264 C-124.65258985 38.42713539 -119.45452501 19.9816512 -105.41748047 5.15112305 C-77.44901918 -22.72681 -30.40519288 -24.78575129 0 0 Z " fill="#38BDF8" transform="translate(124,554)"/>
<path d="M0 0 C0.80050781 0.65871094 1.60101562 1.31742188 2.42578125 1.99609375 C3.15410156 2.56199219 3.88242188 3.12789062 4.6328125 3.7109375 C18.08455923 14.64208924 25.1590413 31.52402993 27.21167755 48.40003777 C27.69390116 54.2471086 27.58271551 60.12338725 27.58691406 65.98657227 C27.59154949 67.50034199 27.59657511 69.01411056 27.60195923 70.52787781 C27.61501742 74.62332153 27.62151553 78.71874891 27.62596989 82.81421018 C27.62891193 85.37995128 27.63301886 87.94568803 27.63747406 90.51142693 C27.65113309 98.55944724 27.66080693 106.60745746 27.66467595 114.65548855 C27.6691497 123.90749561 27.68667251 133.15935443 27.71567655 142.41131645 C27.73738381 149.58787663 27.74738507 156.76439539 27.74871707 163.940988 C27.74975886 168.2154172 27.7555315 172.48970676 27.77353668 176.76410103 C27.7901742 180.79187411 27.79209802 184.81940492 27.78339767 188.84720039 C27.78263554 190.31317805 27.78685908 191.7791696 27.79685593 193.24511337 C27.93104428 214.17530025 23.01641357 233.93490201 8.36328125 249.62109375 C-7.99773588 265.12100472 -29.5299499 271.82491738 -51.8203125 271.28125 C-72.32676881 269.72352751 -90.30249936 262.45746204 -104.58203125 247.3671875 C-117.79776406 231.63787414 -122.05269645 213.26058609 -121.96240234 193.16259766 C-121.96647835 191.61853161 -121.97182595 190.07446848 -121.97833252 188.53041077 C-121.99189208 184.37527311 -121.98675437 180.22036145 -121.97719526 176.06522036 C-121.96953647 171.6907219 -121.97666163 167.31624126 -121.98135376 162.94174194 C-121.98679451 155.5968686 -121.97966524 148.25208608 -121.96533203 140.90722656 C-121.94902095 132.45194539 -121.95428961 123.99688147 -121.97081125 115.54160559 C-121.98448884 108.2460339 -121.98631495 100.95052707 -121.97849524 93.65494668 C-121.97385143 89.3135443 -121.97310177 84.97224352 -121.98310471 80.63084793 C-121.99186362 76.54470503 -121.98559235 72.45883807 -121.96842194 68.37272453 C-121.96450364 66.88579068 -121.96550957 65.39883302 -121.97220993 63.9119091 C-122.06220543 41.88480168 -116.59544797 21.81825277 -100.82421875 5.74609375 C-74.56920155 -20.01733318 -29.13919501 -22.83649506 0 0 Z " fill="#38BDF8" transform="translate(3305.57421875,552.00390625)"/>
<path d="M0 0 C1.11955078 0.90298828 1.11955078 0.90298828 2.26171875 1.82421875 C3.39673828 2.68080078 3.39673828 2.68080078 4.5546875 3.5546875 C16.66037739 13.32675042 24.26763639 28.52918279 26.26171875 43.82421875 C28.86906228 70.33221131 28.42963173 97.31957766 28.39208984 123.93066406 C28.38639325 128.00718367 28.38978319 132.08363791 28.39553738 136.1601553 C28.41881859 155.72758862 28.13864901 175.25317164 27.37823486 194.80671692 C27.27375356 197.51254462 27.17945881 200.21846014 27.08959961 202.92480469 C26.34670752 223.22966044 19.92199104 239.67020046 5.26171875 253.82421875 C-11.05919793 268.86756856 -33.96637793 272.62582354 -55.32861328 271.96044922 C-70.07501878 271.12676186 -83.19946614 265.90675144 -94.73828125 256.82421875 C-95.49882813 256.24027344 -96.259375 255.65632813 -97.04296875 255.0546875 C-109.98669364 244.41754334 -118.47945593 228.35105175 -120.73828125 211.82421875 C-121.03072739 206.44534769 -121.03282577 201.07346106 -121.02880859 195.6887207 C-121.03480318 194.07613314 -121.04161085 192.46354843 -121.04916382 190.85096741 C-121.06673789 186.49530388 -121.07151559 182.13971908 -121.07279539 177.78402352 C-121.07422261 175.05511117 -121.07850301 172.32621847 -121.08378983 169.59731102 C-121.1022628 160.05517698 -121.11046401 150.5130986 -121.10888672 140.97094727 C-121.10768658 132.11182646 -121.12877096 123.25294977 -121.16037405 114.39389068 C-121.18662916 106.75868673 -121.19725014 99.12356205 -121.1959759 91.48831338 C-121.19546891 86.94113479 -121.20100519 82.39417332 -121.222332 77.84704018 C-121.24187049 73.56473843 -121.24173371 69.28285744 -121.22729874 65.00053978 C-121.22522862 63.44103242 -121.22980243 61.88149762 -121.24201965 60.32203674 C-121.3828871 41.0734779 -116.52998046 23.06132519 -102.84619141 8.87915039 C-101.48834646 7.51599595 -100.11378218 6.16955519 -98.73828125 4.82421875 C-98.1040625 4.15777344 -97.46984375 3.49132812 -96.81640625 2.8046875 C-72.49595779 -21.03150424 -26.1068456 -19.89298483 0 0 Z " fill="#38BDF8" transform="translate(1715.73828125,551.17578125)"/>
</svg>
