<?xml version="1.0" encoding="UTF-8"?>
<svg version="1.1" xmlns="http://www.w3.org/2000/svg" width="5333" height="1142">
<path d="M0 0 C28.07716104 25.72230238 42.69058761 64.09075271 57.38525391 98.35473633 C62.48851764 110.23417655 67.82352353 122.00560163 73.17050171 133.77694702 C78.38864077 145.26516008 83.56228636 156.77045375 88.65905762 168.3130188 C95.47483576 183.74455896 102.50729292 199.06790608 109.62451172 214.36254883 C114.54999392 224.94848597 119.43226501 235.5520922 124.25 246.1875 C129.50570242 257.78755446 134.80067845 269.36877388 140.125 280.9375 C145.79707071 293.2631432 151.43691377 305.60274122 157.04199219 317.95898438 C162.03653535 328.96714859 167.07176318 339.9561648 172.125 350.9375 C177.7968819 363.26323073 183.43691327 375.60274011 189.04199219 387.95898438 C194.03653559 398.96714911 199.07184732 409.95612573 204.125 420.9375 C210.12927969 433.98654153 216.09939653 447.05046968 222.03344727 460.1315918 C225.1941583 467.09766175 228.36419189 474.0592326 231.5546875 481.01171875 C238.6120044 496.39541631 245.5838992 511.81042944 252.4225769 527.29263306 C258.23962193 540.44845679 264.26109561 553.503244 270.33840942 566.54055786 C276.32127955 579.38115959 282.14901123 592.28075733 287.86376953 605.24267578 C292.77339712 616.37035281 297.85031765 627.40572293 303.05334473 638.3989563 C308.07104755 649.00968517 312.88899536 659.69831075 317.625 670.4375 C322.97398218 682.56381129 328.45886602 694.61227911 334.11862183 706.59661865 C338.89599068 716.71323376 343.57600978 726.86921344 348.1875 737.0625 C354.3865293 750.75896995 360.70726978 764.39475165 367.08525085 778.00866699 C370.64866773 785.61765843 374.1801749 793.24144867 377.71337891 800.86450195 C380.58753727 807.06171396 383.47326284 813.25316573 386.375 819.4375 C387.00720345 820.78643865 387.63936517 822.13539687 388.27148438 823.484375 C389.18247672 825.4284588 390.09422591 827.37216137 391.0090332 829.31445312 C402.78617923 854.31957724 402.78617923 854.31957724 402.6875 864.1875 C402.67847656 865.35796875 402.66945312 866.5284375 402.66015625 867.734375 C402.64855469 868.62640625 402.63695313 869.5184375 402.625 870.4375 C349.36834715 872.77886017 295.08280876 870.7765096 252.6875 834.3125 C223.06306046 806.89114378 207.52169096 767.93161178 191.26025391 731.86547852 C187.1974012 722.85932246 183.04789453 713.89872461 178.83096313 704.9637146 C173.9331284 694.58249394 169.09169874 684.18095013 164.4375 673.6875 C163.7873291 672.2344043 163.7873291 672.2344043 163.12402344 670.75195312 C160.17344668 664.03523113 157.96786687 657.46610062 155.625 650.4375 C4.815 650.4375 -145.995 650.4375 -301.375 650.4375 C-312.33552063 674.66601929 -323.2325295 698.87659728 -333.88671875 723.234375 C-339.18239468 735.30893393 -344.57886177 747.33794695 -350.03393555 759.34130859 C-353.3726129 766.69683854 -356.67070358 774.05504544 -359.75 781.5234375 C-365.0900056 794.35422533 -369.68776795 803.45650238 -380.375 812.4375 C-381.2696009 813.44934485 -382.14328179 814.48003648 -382.99609375 815.52734375 C-384.91492731 817.87468529 -386.69315626 819.75666162 -389 821.6875 C-391.27554641 823.61813919 -393.50272076 825.55869329 -395.66796875 827.61328125 C-432.6780814 862.67247323 -482.00847042 879.69017635 -532.48291016 879.56787109 C-535.13319544 879.56248334 -537.78331341 879.56785847 -540.43359375 879.57421875 C-542.1380212 879.57355835 -543.84244855 879.57227798 -545.546875 879.5703125 C-546.3293158 879.57233673 -547.11175659 879.57436096 -547.91790771 879.57644653 C-552.50447753 879.55703452 -556.84946701 879.19225517 -561.375 878.4375 C-549.66607128 848.48198217 -536.80197525 819.06308312 -523.33190918 789.86251831 C-520.16405356 782.99162294 -517.03862326 776.10178823 -513.91650391 769.21002197 C-507.74590347 755.59286784 -501.49644279 742.01308762 -495.22180176 728.44360352 C-489.40598819 715.86416846 -483.63799393 703.26410948 -477.91577148 690.6418457 C-477.30456174 689.29376577 -476.69331499 687.94570263 -476.08203125 686.59765625 C-475.62838448 685.59724052 -475.62838448 685.59724052 -475.16557312 684.57661438 C-472.93849981 679.669378 -470.69693955 674.7689032 -468.44921875 669.87109375 C-461.72932995 655.22383534 -455.07476022 640.55337052 -448.5625 625.8125 C-442.00336499 610.968099 -435.22484022 596.23235991 -428.37841797 581.51855469 C-423.43268695 570.88826814 -418.52757468 560.24131794 -413.6875 549.5625 C-413.38673553 548.89900543 -413.08597107 548.23551086 -412.77609253 547.5519104 C-411.56543953 544.88096387 -410.35480799 542.21000765 -409.14445496 539.53892517 C-405.57377669 531.66303902 -401.97369044 523.80061478 -398.375 515.9375 C-393.52086684 505.3299515 -388.68041483 494.71638013 -383.859375 484.09375 C-377.87477153 470.90733557 -371.84625913 457.74170693 -365.79327393 444.58654785 C-360.15031051 432.32084463 -354.54422649 420.03892686 -348.96655273 407.7434082 C-345.8058417 400.77733825 -342.63580811 393.8157674 -339.4453125 386.86328125 C-332.3879956 371.47958369 -325.4161008 356.06457056 -318.5774231 340.58236694 C-312.76037807 327.42654321 -306.73890439 314.371756 -300.66159058 301.33444214 C-295.02396338 289.23481035 -289.51051412 277.08885817 -284.125 264.875 C-278.85817558 252.93299187 -273.44901005 241.07160671 -267.8772583 229.26885986 C-262.52740658 217.93562596 -257.30479926 206.54963179 -252.13598633 195.1328125 C-247.81689929 185.59526981 -243.4537161 176.07893394 -239.06970215 166.57107544 C-227.24656722 140.91684249 -215.62758932 115.17860791 -204.5625 89.1875 C-176.56759727 23.48915967 -176.56759727 23.48915967 -151.375 -1.5625 C-150.55515625 -2.38234375 -149.7353125 -3.2021875 -148.890625 -4.046875 C-142.35101107 -10.24454833 -135.08606807 -14.97512849 -127.375 -19.5625 C-126.50875 -20.08070312 -125.6425 -20.59890625 -124.75 -21.1328125 C-85.20330316 -42.8574782 -31.88573025 -26.81444115 0 0 Z M-77.375 145.4375 C-88.61375192 169.67023578 -99.8339301 193.91141108 -111.02140808 218.16786194 C-113.64806921 223.86265645 -116.2766967 229.55654043 -118.90625 235.25 C-126.59604256 251.90102541 -134.27401427 268.55734953 -141.92550659 285.22601318 C-145.91202032 293.91036815 -149.90488765 302.59170473 -153.9140625 311.265625 C-154.29257355 312.08456741 -154.67108459 312.90350983 -155.06106567 313.74726868 C-155.82592375 315.40204042 -156.59078581 317.05681031 -157.35565186 318.71157837 C-163.04327093 331.01736062 -168.70866478 343.33239632 -174.30957031 355.67791748 C-175.24177962 357.73188774 -176.17535785 359.78523019 -177.109375 361.83837891 C-179.92846031 368.03716094 -182.73620257 374.24031929 -185.515625 380.45703125 C-190.64422395 391.85336347 -196.12136959 402.85432154 -202.3684082 413.67944336 C-221.26215637 446.44383692 -233.25613309 479.00957912 -243.375 515.4375 C-131.175 515.4375 -18.975 515.4375 96.625 515.4375 C95.3381818 509.64681812 94.23787607 504.94771591 92.1484375 499.5703125 C91.90669296 498.94654724 91.66494843 498.32278198 91.4158783 497.68011475 C90.61942156 495.63730929 89.81105691 493.59954975 89 491.5625 C88.71700043 490.84709045 88.43400085 490.13168091 88.14242554 489.39459229 C81.90825335 473.67890038 74.91426761 458.34079661 67.76367188 443.02539062 C65.56280628 438.30982762 63.38110024 433.58554618 61.203125 428.859375 C60.83273102 428.0557251 60.46233704 427.2520752 60.08071899 426.42407227 C59.32789548 424.79062074 58.57509813 423.15715715 57.82232666 421.52368164 C56.30683028 418.23691371 54.78877197 414.95133213 53.2706604 411.66577148 C46.75686997 397.56796185 40.27519012 383.45544885 33.79588318 369.34176636 C31.30270269 363.9115504 28.80627879 358.48283281 26.30859375 353.0546875 C18.90767547 336.9678807 11.53486126 320.86897033 4.21606445 304.74462891 C-1.94803666 291.16534111 -8.14929197 277.60313704 -14.35385132 264.04229736 C-16.68560118 258.94567883 -19.01523688 253.84809804 -21.34375 248.75 C-30.24154712 229.27042018 -39.16371807 209.80216267 -48.11621094 190.34765625 C-49.69884694 186.90812805 -51.28002393 183.46793315 -52.86035156 180.02734375 C-54.95757452 175.46152139 -57.05703975 170.89673617 -59.15802002 166.3326416 C-59.96603359 164.57640046 -60.77329099 162.81981121 -61.57977295 161.06286621 C-62.69694548 158.6294937 -63.81687357 156.19740842 -64.9375 153.765625 C-65.27206207 153.03525024 -65.60662415 152.30487549 -65.95132446 151.55236816 C-67.31065864 148.2667486 -67.31065864 148.2667486 -69.375 145.4375 C-72.04558851 145.29634839 -74.69932238 145.39502893 -77.375 145.4375 Z " fill="#38BDF8" transform="translate(4814.375,34.5625)"/>
<path d="M0 0 C0.78117187 0.04463379 1.56234375 0.08926758 2.3671875 0.13525391 C51.89444312 3.34751695 101.89364181 27.14970749 140 58 C141.01191406 58.80695313 142.02382812 59.61390625 143.06640625 60.4453125 C151.28202367 67.15462879 158.79959875 74.58904145 166.3125 82.0625 C166.8244693 82.56920227 167.3364386 83.07590454 167.86392212 83.59796143 C174.71384789 90.39336247 181.00854964 97.42047291 187 105 C187.90287346 106.09676311 188.80742567 107.1921502 189.71484375 108.28515625 C196.63317181 116.93002663 201.86506764 126.21321254 207 136 C207.64551179 137.19808997 208.2913206 138.39601998 208.9375 139.59375 C224.73886753 169.78564866 231.19571406 204.63277046 231.12698364 238.50047302 C231.12854363 239.70224326 231.13010362 240.90401349 231.13171089 242.14220101 C231.13498654 245.44651834 231.13383784 248.75077803 231.13072467 252.05509174 C231.1284457 255.63793111 231.13196426 259.22076573 231.13470459 262.80360413 C231.13914894 269.83968318 231.13818759 276.87575154 231.13529195 283.91183101 C231.13301391 289.69572353 231.13273575 295.4796131 231.13381577 301.26350594 C231.13404561 302.5092653 231.13404561 302.5092653 231.13428011 303.78019153 C231.13459998 305.46984656 231.1349242 307.15950159 231.1352527 308.84915663 C231.13810838 324.73043278 231.13482871 340.61170319 231.12945233 356.4929784 C231.12507061 369.83931611 231.12573091 383.18564491 231.13037109 396.53198242 C231.15917017 481.57740816 230.97182077 566.61109061 230 655 C228.5634806 655.00531833 227.12695549 655.00910704 225.69042969 655.01225281 C224.4904837 655.01566445 224.4904837 655.01566445 223.26629639 655.01914501 C188.70120884 654.72714922 156.95458181 640.54395942 132 617 C127.26833976 612.0609393 123.66530438 606.61926265 120.1875 600.75 C119.67050537 599.88028564 119.15351074 599.01057129 118.62084961 598.11450195 C103.15998994 571.68141929 95.02542902 544.57331857 94.71875 513.91015625 C94.70082002 512.41615498 94.68262574 510.92215686 94.66419983 509.42816162 C94.61382173 505.2103942 94.57024449 500.99257765 94.52788162 496.77472305 C94.49984242 494.04717158 94.46958803 491.31965306 94.43869019 488.59213257 C94.1074614 459.14257024 93.94321473 429.69275535 93.81201553 400.24176216 C93.78526556 394.25312445 93.75709547 388.26449389 93.72872925 382.27586365 C93.70972747 378.24111962 93.69079411 374.20637527 93.671875 370.17163086 C93.66715187 369.16816836 93.66242875 368.16470587 93.65756249 367.13083541 C93.60060536 354.9744864 93.55070356 342.8181471 93.51122099 330.6617285 C93.48550113 322.86901566 93.45300522 315.07634828 93.41573709 307.28368223 C93.39419224 302.71576977 93.37590855 298.14790268 93.3662281 293.57994843 C93.28320643 256.2192996 93.00846474 218.44078189 72 186 C71.48179687 185.18402344 70.96359375 184.36804688 70.4296875 183.52734375 C59.09032025 167.37301905 37.11275018 155.65719219 19 149 C17.98164063 148.62359375 16.96328125 148.2471875 15.9140625 147.859375 C-9.82101201 139.17297706 -42.22432656 138.18108734 -68 147 C-68.69029297 147.22993652 -69.38058594 147.45987305 -70.09179688 147.69677734 C-83.84927405 152.40135509 -95.98386985 159.55476205 -107 169 C-107.61101563 169.47824219 -108.22203125 169.95648438 -108.8515625 170.44921875 C-131.04120487 188.13000685 -139.90858767 219.52494999 -143.125 246.5 C-145.21683333 266.61434686 -145.19609329 286.86854282 -145.35503554 307.06924081 C-145.38615301 310.90771371 -145.4220254 314.74614284 -145.45729065 318.58457947 C-145.51765516 325.22097261 -145.57517862 331.85738527 -145.63075256 338.49382019 C-145.71164434 348.14734237 -145.79757921 357.80081497 -145.88474101 367.45428234 C-146.02683181 383.20077891 -146.16574209 398.94730172 -146.30224609 414.69384766 C-146.31039013 415.63321043 -146.31853416 416.57257321 -146.32692498 417.54040152 C-146.35988555 421.34265922 -146.3928414 425.14491696 -146.42579022 428.94717476 C-146.5159094 439.3428803 -146.60668531 449.73858007 -146.69775391 460.13427734 C-146.70588677 461.06276523 -146.71401963 461.99125311 -146.72239894 462.94787699 C-146.85961206 478.60404233 -146.9989505 494.26018826 -147.13948298 509.91632414 C-147.2178537 518.65911133 -147.29505095 527.40190592 -147.36924744 536.14472961 C-147.70571682 575.76869918 -148.15394809 615.382979 -149 655 C-150.43559941 655.00488878 -151.87120365 655.00837028 -153.30680847 655.01126099 C-154.50598546 655.01439647 -154.50598546 655.01439647 -155.72938824 655.01759529 C-192.49833543 654.73266753 -224.55325948 639.99316242 -250.29760742 614.13232422 C-275.03224462 588.33093427 -284.0582936 549.36003116 -284.182724 514.68925476 C-284.1941396 513.0811304 -284.1941396 513.0811304 -284.20578581 511.44051868 C-284.22997977 507.88312901 -284.24766829 504.32573792 -284.26538086 500.76831055 C-284.28156691 498.2029036 -284.29818504 495.63749935 -284.31520081 493.07209778 C-284.35121424 487.56225149 -284.38409005 482.05239391 -284.41499138 476.54251671 C-284.45997756 468.55130657 -284.51186634 460.56015173 -284.56572718 452.568997 C-284.65334291 439.56774436 -284.73822755 426.56647582 -284.82006836 413.56518555 C-284.82495947 412.78848241 -284.82985057 412.01177926 -284.8348899 411.21153966 C-284.90402855 400.21185131 -284.97040881 389.21214803 -285.03565777 378.212436 C-285.04253965 377.05238394 -285.04253965 377.05238394 -285.04956055 375.86889648 C-285.05414101 375.09648661 -285.05872147 374.32407673 -285.06344073 373.52826049 C-285.14037803 360.58569015 -285.22452627 347.64317825 -285.31442744 334.70069152 C-285.36940861 326.74469948 -285.41851641 318.78871604 -285.45971144 310.83264045 C-285.4919364 304.71234453 -285.53392117 298.59214908 -285.57927513 292.47193718 C-285.59619118 289.9837566 -285.61001544 287.4955525 -285.62029648 285.00733566 C-285.70275022 265.69274113 -285.80747852 245.90097505 -290.25 227 C-290.46615967 226.05125 -290.68231934 225.1025 -290.9050293 224.125 C-297.74448128 195.41149323 -312.51163479 175.31349346 -337.42626953 159.90478516 C-366.77701092 142.32117529 -403.64180359 137.04172633 -437 144.67578125 C-456.37753275 149.58430347 -473.77707541 158.05952173 -489 171 C-489.89589844 171.75796875 -490.79179688 172.5159375 -491.71484375 173.296875 C-515.97815092 195.57874107 -522.39518581 235.12769641 -523.78588867 266.37463379 C-524.31979924 280.79578213 -524.21883491 295.24239666 -524.27039146 309.67135334 C-524.2888946 314.51804145 -524.31322319 319.36470032 -524.33703613 324.21136475 C-524.39170271 335.51995497 -524.43980929 346.82856816 -524.48697662 358.13719177 C-524.62206254 390.42501976 -524.76981437 422.71268907 -525 455 C-525.00589645 455.84051281 -525.01179291 456.68102562 -525.01786804 457.54700851 C-525.08775996 467.43440497 -525.17498482 477.32134276 -525.29664612 487.20824432 C-525.32854244 489.82463371 -525.3535683 492.44079093 -525.37486267 495.05731964 C-525.56593511 517.51150214 -526.57752026 540.33955663 -533 562 C-533.19932129 562.67756348 -533.39864258 563.35512695 -533.60400391 564.05322266 C-539.26325253 582.71262363 -548.72868693 598.94370808 -561 614 C-561.73734375 614.93328125 -562.4746875 615.8665625 -563.234375 616.828125 C-584.3402159 642.05991976 -617.05365416 651.55143567 -648.4921875 654.66796875 C-653.00531143 655.05907975 -657.47175721 655.05851606 -662 655 C-663.3660476 643.30998235 -663.17482537 631.57398431 -663.20532227 619.82324219 C-663.21491947 617.47120499 -663.22493058 615.11916945 -663.23532104 612.76713562 C-663.26234787 606.37004515 -663.28341389 599.97294748 -663.30332303 593.57583141 C-663.32277203 587.45253104 -663.34731335 581.32924994 -663.37124526 575.20596579 C-663.4189644 562.95226441 -663.46211734 550.69855117 -663.50268555 538.44482422 C-663.54115213 526.82729779 -663.58257357 515.20978771 -663.62768555 503.59228516 C-663.63318077 502.17417415 -663.63867508 500.75606315 -663.6441685 499.33795214 C-663.64688496 498.63685405 -663.64960143 497.93575597 -663.65240022 497.21341249 C-663.65647077 496.16267272 -663.65647077 496.16267272 -663.66062355 495.09070587 C-663.66469065 494.04109422 -663.66469065 494.04109422 -663.66883991 492.97027829 C-663.78830737 462.09264812 -663.88466188 431.21499332 -663.96253143 400.33723086 C-663.98655139 390.81574632 -664.01406874 381.2942786 -664.04412999 371.77281132 C-664.0829646 359.44957482 -664.11385831 347.12634977 -664.13298529 334.80306554 C-664.14232554 328.84931151 -664.1546286 322.89561089 -664.1760273 316.9418869 C-664.24979014 295.73708158 -664.26484341 274.56845122 -663.09985352 253.38964844 C-663.05977358 252.65633065 -663.01969364 251.92301286 -662.97839916 251.16747332 C-659.44929442 188.75363436 -641.73095476 130.76098408 -600.48828125 82.90234375 C-599.08741057 81.26836115 -597.69882384 79.62299326 -596.35546875 77.94140625 C-592.40858417 73.01633126 -587.66523256 69.20837871 -582.70458984 65.33349609 C-581.51330254 64.40155521 -580.32647042 63.46390375 -579.14306641 62.52197266 C-537.11983376 29.09321599 -486.46441863 7.17202037 -433 1 C-432.22769043 0.9057373 -431.45538086 0.81147461 -430.65966797 0.71435547 C-381.19838892 -4.61195064 -330.61647924 4.16698712 -286 26 C-285.21850586 26.37850098 -284.43701172 26.75700195 -283.63183594 27.14697266 C-266.46967885 35.54328263 -249.70989581 45.58580782 -236 59 C-234.61155246 60.21681288 -233.21591334 61.42547879 -231.8125 62.625 C-228.5098812 65.4615234 -225.59205269 68.52676812 -222.73828125 71.8125 C-221.01752528 73.25153168 -221.01752528 73.25153168 -218.58984375 72.83203125 C-205.89896952 68.75487256 -194.65664474 58.98983605 -184.1015625 51.09375 C-175.69533817 44.80769898 -167.17537391 39.10662866 -158 34 C-156.74703125 33.30173096 -156.74703125 33.30173096 -155.46875 32.58935547 C-107.01522779 5.86507984 -54.81370132 -3.29062516 0 0 Z " fill="#38BDF8" transform="translate(2341,258)"/>
<path d="M0 0 C3.17911211 0.00218409 6.35814844 -0.00773939 9.53724378 -0.01721084 C17.06867973 -0.03919856 24.59991611 -0.04039564 32.1313684 -0.02818251 C39.78576421 -0.01615636 47.43941976 -0.04063474 55.0936895 -0.08332264 C61.7648107 -0.11909772 68.43570237 -0.13047309 75.10691541 -0.12404716 C79.04711929 -0.12050167 82.98679722 -0.12484797 86.92691016 -0.15347624 C142.27958907 -0.52118801 198.71045111 14.26136008 249.56325316 35.60316515 C250.57774535 36.02388292 251.59223754 36.4446007 252.63747191 36.87806749 C300.52056855 56.86190064 342.82284298 84.80540161 382.00856566 118.5523839 C384.87872481 121.02159955 387.76771963 123.46725868 390.66530395 125.90419054 C396.74303404 131.01758746 402.70579373 136.23822483 408.56325316 141.60316515 C409.07920043 142.07399523 409.5951477 142.54482531 410.12672973 143.02992296 C418.67342564 150.83386433 427.1166222 158.6325431 434.66481566 167.4273839 C436.83070322 169.90968713 439.07202274 172.3137166 441.31325316 174.72816515 C447.09496308 181.07842445 452.36723791 187.76967326 457.56325316 194.60316515 C458.01313598 195.19081652 458.46301879 195.77846788 458.92653441 196.38392687 C498.00108993 247.63409136 498.00108993 247.63409136 496.62575316 265.60316515 C495.2936858 271.86967334 492.18313881 277.16934999 487.56325316 281.60316515 C485.13652607 283.12196883 482.61000077 284.15188072 479.93825316 285.16566515 C479.19970092 285.45594591 478.46114867 285.74622667 477.70021605 286.04530382 C448.94917407 296.98559231 419.66784586 297.62368492 389.56325316 292.60316515 C388.40438598 292.42140734 387.24551879 292.23964952 386.05153441 292.0523839 C363.47134418 287.52402379 341.73381339 268.35157158 326.16090941 252.20472765 C324.40922062 250.448756 322.57127907 248.84218736 320.68825316 247.22816515 C317.72917722 244.68370062 314.97353596 242.02374962 312.25075316 239.22816515 C308.26849144 235.2052681 304.07790553 231.61012746 299.65309691 228.0836339 C297.48553777 226.34355798 295.36255722 224.58754097 293.25465941 222.7789464 C275.42038466 207.63412102 255.2940493 195.01276449 234.78981566 183.82142687 C232.78715553 182.72567313 230.79871761 181.60856462 228.81325316 180.4820714 C148.50705448 135.50212808 49.49780892 124.40824536 -66.21018434 150.4742589 C-91.26468876 157.73463749 -115.3715827 167.41974787 -138.43674684 179.60316515 C-139.58989381 180.2076549 -139.58989381 180.2076549 -140.76633668 180.82435656 C-164.12582399 193.13612598 -185.62784533 208.14925776 -205.43674684 225.60316515 C-206.37389527 226.42816515 -207.31104371 227.25316515 -208.27659059 228.10316515 C-214.62102956 233.81228993 -220.70216548 239.76940763 -226.74924684 245.79066515 C-227.87882813 246.91323717 -227.87882813 246.91323717 -229.03122926 248.05848742 C-233.7038322 252.74453372 -238.14370243 257.56809635 -242.43674684 262.60316515 C-243.25659059 263.55320421 -244.07643434 264.50324327 -244.92112184 265.4820714 C-284.42264061 312.27093933 -308.07770443 369.7630707 -314.43674684 430.60316515 C-314.57705323 431.9038695 -314.57705323 431.9038695 -314.7201941 433.2308507 C-318.73887802 474.97669323 -313.06340038 516.03012032 -299.43674684 555.60316515 C-299.21583375 556.25446398 -298.99492066 556.90576281 -298.76731324 557.57679796 C-285.54448229 596.13106271 -263.79766499 631.08737251 -234.57346559 659.48133898 C-228.54533607 665.34570178 -228.54533607 665.34570178 -228.24143434 668.8648839 C-228.26463746 669.66539171 -228.28784059 670.46589952 -228.31174684 671.29066515 C-228.32979371 672.09890734 -228.34784059 672.90714952 -228.36643434 673.7398839 C-228.38963746 674.35476671 -228.41284059 674.96964952 -228.43674684 675.60316515 C-227.67362184 675.80941515 -226.91049684 676.01566515 -226.12424684 676.22816515 C-215.42058744 680.21936018 -207.53188514 686.61925583 -199.12278199 694.10560656 C-183.79579903 707.71923434 -167.15030278 719.3241445 -149.43674684 729.60316515 C-148.66669312 730.05401476 -147.89663941 730.50486437 -147.10325074 730.96937609 C-61.79994108 780.58438674 47.91069342 792.12178475 142.63594604 767.3585515 C196.75544801 752.93283705 247.41915525 726.28013181 291.50465941 691.9664464 C323.25514093 667.43382658 360.36585802 653.1083388 401.06325316 658.22816515 C423.66375653 662.37159077 450.64071725 671.38791789 467.56325316 687.60316515 C468.61792296 707.64189128 448.45988705 727.28178855 436.19215941 741.27333117 C433.19898651 744.69110244 430.29589988 748.14434633 427.50075316 751.72816515 C419.41040919 761.93265251 410.15775973 771.11684912 401.00075316 780.35316515 C399.70778319 781.66571276 399.70778319 781.66571276 398.38869262 783.00477648 C393.17612688 788.22424954 387.77815493 793.02204255 382.02101684 797.63343859 C380.06912514 799.19774397 378.15971742 800.78437103 376.27809691 802.43129015 C308.21186023 861.7858144 213.76034581 898.15568377 48.37575316 917.79066515 C47.15210555 917.78975878 47.15210555 917.78975878 45.90373778 917.7888341 C-38.45795858 917.62134643 -121.24331948 897.36821419 -279.43674684 807.60316515 C-280.41256715 806.82199327 -281.38838746 806.0408214 -282.39377809 805.23597765 C-287.69099696 800.95375036 -292.82729207 796.53510103 -297.85471559 791.93910265 C-299.22440932 790.69995461 -300.59933475 789.46568588 -302.00974488 788.27308702 C-308.65158714 782.62347933 -314.77486187 776.45113343 -320.93601441 770.28920031 C-322.86119386 768.36620333 -324.79423715 766.45135941 -326.72776246 764.5367589 C-333.76859504 757.52757319 -340.27045527 750.4005824 -346.43674684 742.60316515 C-347.43109081 741.43868162 -348.43379861 740.28123368 -349.44846559 739.13441515 C-395.18031118 687.40988993 -426.50508549 621.46371047 -443.31174684 554.91566515 C-443.58591432 553.83108019 -443.8600818 552.74649523 -444.14255738 551.62904406 C-444.95520695 548.29619688 -445.69903582 544.95339173 -446.43674684 541.60316515 C-446.82632066 539.9320492 -446.82632066 539.9320492 -447.22376466 538.22717333 C-449.98791879 524.87045654 -449.91358906 511.58439942 -449.90558648 497.9875598 C-449.90546488 495.24064554 -449.9141063 492.49378196 -449.922364 489.7468822 C-449.94147481 483.23995621 -449.94453015 476.73315836 -449.9377234 470.22621202 C-449.9311189 463.60232696 -449.95382962 456.97900385 -449.99103713 450.35523248 C-450.02216865 444.59564153 -450.03304741 438.83622699 -450.02920032 433.07655406 C-450.02717372 429.66903769 -450.03433822 426.26229729 -450.05709291 422.85480547 C-450.16946661 403.9374391 -448.27839037 386.12613228 -444.43674684 367.60316515 C-444.19780702 366.44835901 -443.9588672 365.29355288 -443.71268678 364.10375261 C-430.81490876 302.48120252 -404.14432106 240.16551671 -363.43674684 191.60316515 C-362.75104615 190.7833214 -362.75104615 190.7833214 -362.05149293 189.94691515 C-359.73437361 187.18459561 -357.40320819 184.43471288 -355.06174684 181.6930089 C-350.36070278 176.1792478 -345.79902942 170.54752096 -341.26487184 164.8961339 C-336.04447529 158.42617435 -330.55938144 152.25878412 -324.89573121 146.17982531 C-323.39174503 144.55453368 -321.90491956 142.91486478 -320.42112184 141.2711339 C-315.16018414 135.46267398 -309.8303105 129.93216587 -303.91721559 124.7711339 C-301.28978548 122.47471861 -298.74205574 120.10441591 -296.18674684 117.72816515 C-289.87397483 111.99089129 -283.21054685 106.77808217 -276.43674684 101.60316515 C-275.79543824 101.11025988 -275.15412965 100.6173546 -274.49338746 100.10951281 C-250.43716365 81.65176359 -224.55572233 66.14675666 -197.43674684 52.60316515 C-196.45270875 52.10719835 -195.46867066 51.61123156 -194.45481324 51.10023546 C-155.20689867 31.40353828 -112.72710996 17.16193033 -69.93674684 7.41566515 C-68.95440064 7.18959581 -67.97205445 6.96352648 -66.9599402 6.73060656 C-64.19921179 6.12466297 -61.43330943 5.56730859 -58.65799832 5.03277254 C-57.11512086 4.73436798 -55.57343894 4.42974156 -54.03274846 4.12024355 C-36.00051254 0.57027027 -18.29508474 -0.02503344 0 0 Z " fill="#38BDF8" transform="translate(449.4367468357086,-0.6031651496887207)"/>
<path d="M0 0 C1.19789154 0.00021149 2.39578308 0.00042297 3.62997437 0.00064087 C24.12643461 0.0365688 44.13262681 1.15199357 64.375 4.375 C65.55642578 4.56223633 66.73785156 4.74947266 67.95507812 4.94238281 C143.28022969 17.33955813 211.12769012 49.93371845 265.03979492 103.85449219 C266.56737416 105.37986713 268.10283582 106.89700672 269.63867188 108.4140625 C276.00212129 114.74144466 281.80096547 121.32948733 287.375 128.375 C288.39911217 129.61855381 289.42605253 130.85978927 290.45703125 132.09765625 C302.30978626 146.51843755 312.1890384 162.15179304 321.375 178.375 C321.89223633 179.2717041 321.89223633 179.2717041 322.41992188 180.18652344 C356.90929456 240.18996422 366.23355061 316.63832715 355.375 384.375 C355.17632324 385.61620605 354.97764648 386.85741211 354.77294922 388.13623047 C345.65773166 442.98457704 323.93035118 498.53259783 283.06150818 537.68806458 C281.33100054 539.4190106 279.74374694 541.2213573 278.15258789 543.08081055 C274.50059846 547.27969629 270.6675202 551.2604932 266.74609375 555.20703125 C266.03453629 555.92428879 265.32297882 556.64154633 264.58985901 557.38053894 C263.09116175 558.88861938 261.59105487 560.39530019 260.08959961 561.90063477 C257.83563008 564.16427073 255.59259588 566.43837867 253.34960938 568.71289062 C244.81853649 577.30632593 236.12659788 585.19454094 226.375 592.375 C225.77707642 592.81868927 225.17915283 593.26237854 224.56311035 593.71951294 C215.83166674 600.19597821 206.85596066 606.05294265 197.375 611.375 C196.56482422 611.83132813 195.75464844 612.28765625 194.91992188 612.7578125 C135.71670424 645.7317565 67.71413669 655.06383261 0.84350586 654.76611328 C-3.06638926 654.74885649 -6.97567872 654.7593144 -10.88555431 654.77644348 C-58.71589545 654.95371902 -104.00853974 648.07360592 -141.625 616.375 C-142.88957031 615.40433594 -142.88957031 615.40433594 -144.1796875 614.4140625 C-168.41273375 594.20695364 -179.96772513 559.50088261 -182.8125 529.25 C-183.04447083 526.43371804 -183.25825395 523.61728809 -183.45507812 520.79833984 C-183.59170658 518.84981392 -183.75285243 516.9030148 -183.921875 514.95703125 C-184.74565132 498.00096874 -179.88582044 474.82830358 -170.625 460.375 C-158.81599963 462.76192561 -149.32438859 466.97615197 -140 474.5625 C-108.58700385 500.11068802 -69.22146841 510.3411555 -29.625 514.375 C-28.69437744 514.47216309 -27.76375488 514.56932617 -26.80493164 514.66943359 C-17.26039259 515.53914806 -7.72692533 515.52687193 1.84838867 515.50537109 C4.67176736 515.50002976 7.49498562 515.50533603 10.31835938 515.51171875 C25.26074139 515.51949399 39.94381307 515.28735775 54.625 512.1875 C55.68710693 511.96827881 56.74921387 511.74905762 57.84350586 511.52319336 C67.87552612 509.38554186 77.65771511 506.64948717 87.375 503.375 C88.06851563 503.14200195 88.76203125 502.90900391 89.4765625 502.66894531 C119.15324846 492.51413337 145.81513923 476.1167905 168.375 454.375 C169.30957031 453.51519531 170.24414062 452.65539062 171.20703125 451.76953125 C182.4421554 441.13151859 189.89972661 428.02994927 197.20556641 414.52001953 C198.43204171 412.27037192 199.68981594 410.03995256 200.94921875 407.80859375 C213.78955093 384.70700114 218.60386779 360.42457472 218.625 334.125 C218.62567474 333.36933746 218.62634949 332.61367493 218.62704468 331.83511353 C218.60953975 319.45978491 217.8993982 307.52260746 215.375 295.375 C215.10163818 294.04009521 215.10163818 294.04009521 214.82275391 292.67822266 C209.62394481 267.91764567 199.20255169 245.85817822 184.375 225.375 C183.97458496 224.8190918 183.57416992 224.26318359 183.16162109 223.69042969 C176.84499095 215.00538124 169.78522426 207.13506317 162.375 199.375 C161.77300781 198.72015625 161.17101563 198.0653125 160.55078125 197.390625 C124.67652504 159.43801138 67.11018458 143.06617282 16.375 141.375 C-42.24251508 139.72516928 -102.12503202 155.7334146 -146.625 195.375 C-147.6046875 196.23480469 -148.584375 197.09460938 -149.59375 197.98046875 C-166.42729288 212.93858606 -179.30853792 230.40129007 -189.625 250.375 C-190.15867187 251.40343018 -190.15867187 251.40343018 -190.703125 252.45263672 C-204.49205159 279.38725647 -206.70654493 307.41708772 -206.92382812 337.25073242 C-206.94315513 339.47698797 -206.96279744 341.70324081 -206.98272705 343.92949104 C-207.03572627 350.01643571 -207.082358 356.10341392 -207.12737465 362.1904223 C-207.15649576 366.07575756 -207.18725835 369.96107666 -207.2184906 373.84639549 C-207.56783631 417.51821547 -207.76601877 461.1903379 -207.90625 504.86328125 C-207.90866967 505.61602599 -207.91108933 506.36877073 -207.91358232 507.14432591 C-208.00016311 534.15086251 -208.07693006 561.15742817 -208.15106201 588.16400146 C-208.15977774 591.33500166 -208.16850603 594.50600182 -208.17724609 597.67700195 C-208.17940496 598.46062858 -208.18156383 599.2442552 -208.18378812 600.05162809 C-208.22029271 613.26658535 -208.26019372 626.48153019 -208.30254889 639.69646996 C-208.32579511 646.98953465 -208.34745236 654.28259618 -208.36463928 661.57567787 C-208.42651825 687.53080051 -208.49408131 713.48807224 -208.90718937 739.44039571 C-208.93834688 741.48489156 -208.96527211 743.52945776 -208.98728848 745.57407248 C-209.36790489 779.18298716 -217.35632103 811.62744845 -238.625 838.375 C-239.23384033 839.15206299 -239.23384033 839.15206299 -239.85498047 839.94482422 C-259.78334873 865.21342514 -289.12187144 881.82182119 -321.02500916 886.12098694 C-325.74285763 886.58190977 -330.45594684 886.50407974 -335.19140625 886.453125 C-336.19981567 886.44748535 -337.2082251 886.4418457 -338.24719238 886.43603516 C-340.7065623 886.42146111 -343.16572897 886.40100773 -345.625 886.375 C-346.4625644 842.24363607 -346.76914697 798.11102707 -346.94140625 753.97265625 C-346.94549416 752.92618704 -346.94549416 752.92618704 -346.94966465 751.85857704 C-347.03061715 731.04933334 -347.0997422 710.24005328 -347.16535287 689.43075626 C-347.18258638 683.96965099 -347.20016534 678.50854692 -347.21794128 673.04744339 C-347.35771718 630.07798326 -347.48134588 587.10849341 -347.58997977 544.13894337 C-347.61279048 535.12044568 -347.63620828 526.1019499 -347.66024226 517.08345538 C-347.74268183 486.1380292 -347.8140141 455.19264516 -347.84800434 424.24711895 C-347.85072021 421.78200467 -347.85344227 419.31689039 -347.85617065 416.85177612 C-347.85749935 415.64356313 -347.85882805 414.43535014 -347.86019701 413.19052464 C-347.8701698 404.77723506 -347.88775923 396.36398285 -347.90872192 387.95071411 C-347.93390698 377.7899504 -347.94835394 367.62924121 -347.94883865 357.46844506 C-347.94931753 352.36049215 -347.95419983 347.25266358 -347.97260094 342.14474106 C-348.28496145 251.00584363 -320.35473313 172.2002493 -258.0703125 105.04296875 C-256.0505867 102.8393382 -254.1090678 100.60074378 -252.1875 98.3125 C-198.58674668 36.89234266 -108.66449845 6.41098839 -29.71911621 0.56350708 C-19.82496585 -0.03928779 -9.90886638 -0.01625744 0 0 Z " fill="#38BDF8" transform="translate(2982.625,255.625)"/>
<path d="M0 0 C61.3625517 -1.34764023 122.92129572 10.69251489 178.41796875 37.06640625 C179.62718994 37.63415771 179.62718994 37.63415771 180.86083984 38.21337891 C211.24712586 52.55959146 238.02926158 71.66931142 262.59375 94.4609375 C265.13152969 96.80215334 267.70435236 99.09433616 270.29296875 101.37890625 C280.50711827 110.57328561 289.91591972 120.26171894 298.41796875 131.06640625 C299.85480862 132.77529484 301.2923271 134.48361304 302.73046875 136.19140625 C352.00970604 196.56492209 376.4702107 278.87342148 369.59765625 356.27246094 C364.53635634 405.98357951 349.35226675 454.763131 322.41796875 497.06640625 C322.0204541 497.69369629 321.62293945 498.32098633 321.21337891 498.96728516 C310.38322645 515.92508122 298.03620382 531.93486594 284.47265625 546.7890625 C282.71231077 548.74016785 281.02612552 550.72654169 279.35546875 552.75390625 C276.0563337 556.61630826 272.28654269 559.78964313 268.41796875 563.06640625 C267.44214844 563.93007813 266.46632813 564.79375 265.4609375 565.68359375 C189.84988919 632.3586882 87.65096838 660.74626652 -20.89892578 657.83935547 C-104.34569306 652.39264973 -188.07088144 621.04547555 -249.6796875 563.74609375 C-252.27714928 561.34789889 -254.91990219 559.01704219 -257.58203125 556.69140625 C-262.02921115 552.70673306 -266.04640089 548.42357756 -270.04858398 544.00219727 C-273.30179614 540.41580287 -276.66222337 536.99712142 -280.14453125 533.62890625 C-285.72227765 528.09917488 -290.50485224 522.14264096 -295.21582031 515.87695312 C-296.54912569 514.11001376 -297.90364485 512.36121858 -299.26171875 510.61328125 C-345.83369514 449.86575326 -363.92487835 366.65307664 -354.109375 291.44482422 C-346.02710064 234.33756901 -323.3747437 181.34779079 -287.58203125 136.06640625 C-287.10443359 135.46022461 -286.62683594 134.85404297 -286.13476562 134.22949219 C-279.08614276 125.31557374 -271.73928294 116.79469961 -263.94580078 108.52734375 C-261.84974556 106.28194553 -259.81166806 103.98578669 -257.76953125 101.69140625 C-256.37651646 100.14719234 -254.9809783 98.60524801 -253.58203125 97.06640625 C-253.04835938 96.47730469 -252.5146875 95.88820313 -251.96484375 95.28125 C-246.6969974 89.73821765 -240.57663272 85.18077544 -234.51757812 80.54882812 C-232.59934576 79.07966731 -230.69217534 77.59695386 -228.78515625 76.11328125 C-164.0617326 26.187997 -80.97941846 2.08267793 0 0 Z M-155.58203125 194.06640625 C-156.41476562 194.79085937 -157.2475 195.5153125 -158.10546875 196.26171875 C-160.63328366 198.49397376 -163.1125272 200.76992478 -165.58203125 203.06640625 C-166.3709375 203.77796875 -167.15984375 204.48953125 -167.97265625 205.22265625 C-181.0565311 217.54682224 -190.46638338 233.16988539 -198.58203125 249.06640625 C-199.12899658 250.13157471 -199.12899658 250.13157471 -199.68701172 251.21826172 C-208.08134107 267.75991661 -213.40369205 284.81082047 -216.58203125 303.06640625 C-216.92234375 304.99033203 -216.92234375 304.99033203 -217.26953125 306.953125 C-220.11593771 326.50240271 -220.69574808 348.89800859 -215.58203125 368.06640625 C-215.38335449 368.83919922 -215.18467773 369.61199219 -214.97998047 370.40820312 C-204.32342183 411.05479233 -179.62103334 447.22762806 -146.58203125 473.06640625 C-145.65777344 473.80761719 -144.73351563 474.54882812 -143.78125 475.3125 C-104.74184347 505.79387696 -50.48439421 520.95057852 -1.58203125 522.06640625 C-0.79828125 522.08687012 -0.01453125 522.10733398 0.79296875 522.12841797 C46.41606918 523.18032253 89.07276194 514.6169474 129.41796875 493.06640625 C130.08280273 492.71465332 130.74763672 492.36290039 131.43261719 492.00048828 C175.26114747 468.65954049 210.15149374 431.26553756 224.88671875 383.45703125 C236.79891314 342.66225497 238.62418396 296.81924534 219.41796875 258.06640625 C219.1034375 257.41575195 218.78890625 256.76509766 218.46484375 256.09472656 C205.36983671 229.16950551 184.12569221 205.19611791 160.18457031 187.38867188 C158.41975817 186.0677456 156.67990389 184.71858788 154.94140625 183.36328125 C80.91679807 126.38126335 -21.58252325 122.99896273 -155.58203125 194.06640625 Z " fill="#38BDF8" transform="translate(1280.58203125,255.93359375)"/>
<path d="M0 0 C312.18 0 624.36 0 946 0 C946 40.63052164 936.47862699 67.75191596 909 97 C908.195625 97.90105469 908.195625 97.90105469 907.375 98.8203125 C873.05024319 135.71942607 810.59652554 143.20315983 763 146 C762.11248047 146.05639648 761.22496094 146.11279297 760.31054688 146.17089844 C699.38194002 149.93715102 638.14281243 143.82907857 577.57568359 137.75073242 C576.56494278 137.64932449 575.55420197 137.54791656 574.51283264 137.44343567 C572.68087728 137.25904123 570.84902166 137.07364986 569.01731873 136.88676453 C558.68469808 135.84309287 548.34449254 134.94040841 538 134 C538 388.43 538 642.86 538 905 C518.08100213 903.82829424 518.08100213 903.82829424 509.5 902.25 C508.04182861 901.98558105 508.04182861 901.98558105 506.55419922 901.71582031 C474.95736168 895.75925249 447.84043971 881.11505203 429.1875 854.25 C408.01933847 822.4548756 402.65701922 789.51138691 402.75708008 751.9465332 C402.75602372 749.5589321 402.7541008 747.17133126 402.75139618 744.78373146 C402.74709776 738.93731814 402.75211497 733.0909563 402.76130307 727.24455276 C402.77189808 720.19471848 402.77101554 713.14489627 402.77005186 706.09505574 C402.7685926 692.1964442 402.77912671 678.29786058 402.79470261 664.39925883 C402.80836114 652.18465008 402.81750237 639.97004735 402.82275391 627.75543213 C402.86393462 534.78274805 403.06030345 441.81046086 404 134 C403.33256368 134.01207701 402.66512735 134.02415403 401.97746569 134.03659701 C366.61057661 134.67316342 331.25240668 135.16806859 295.87891459 135.20018864 C292.68796247 135.20320962 289.49701325 135.20732472 286.3060627 135.21169281 C276.20681633 135.2251595 266.10757733 135.2349414 256.00832266 135.2388947 C244.54855093 135.24341507 233.08889609 135.26123282 221.62915987 135.2898953 C212.60332513 135.31165668 203.57752314 135.32160556 194.5516625 135.32293582 C189.22796167 135.32396755 183.90437392 135.32952463 178.58070183 135.34775543 C130.71015989 135.50241833 83.32503501 133.54722963 44 103 C43.46358887 102.58991699 42.92717773 102.17983398 42.37451172 101.75732422 C34.79381353 95.91942182 28.7734997 89.60002506 23 82 C22.24976562 81.08734375 21.49953125 80.1746875 20.7265625 79.234375 C1.95159444 55.78168452 0 29.40859988 0 0 Z " fill="#38BDF8" transform="translate(3108,8)"/>
<path d="M0 0 C26.36118697 24.89024499 38.66577131 60.33813381 40.125 96.0625 C40.31439372 104.70554933 40.26012579 113.35293107 40.25198364 121.99749756 C40.25313667 124.65880206 40.25468467 127.3201037 40.25671089 129.9814074 C40.26031186 135.75891173 40.26021957 141.53640669 40.25766373 147.31391144 C40.25387132 155.91079551 40.25582084 164.50767173 40.25887203 173.10455575 C40.26413872 188.48962214 40.26367938 203.87468438 40.26079312 219.25975117 C40.25826862 232.78661444 40.25762488 246.3134762 40.25881577 259.84033966 C40.25893034 261.19104295 40.25893034 261.19104295 40.25904724 262.56903317 C40.25935867 266.22625524 40.25967708 269.88347732 40.260007 273.54069939 C40.26306912 307.89902644 40.26029231 342.25735088 40.2549101 376.61567752 C40.25020459 406.88213279 40.25055442 437.14858384 40.25537109 467.41503906 C40.26078754 501.56315941 40.26281183 535.71127741 40.25975883 569.85939813 C40.25943827 573.54062668 40.25912541 577.22185524 40.25881577 580.9030838 C40.25873669 581.80920611 40.25865761 582.71532843 40.25857614 583.64890899 C40.25753254 596.19431775 40.25841116 608.73972496 40.26080156 621.28513351 C40.26477199 642.41372412 40.26397734 663.54230933 40.25439453 684.67089844 C40.25404061 685.47013783 40.2536867 686.26937722 40.25332205 687.09283599 C40.22512711 748.42013755 39.82570314 809.73896605 39.125 871.0625 C37.69613039 871.06782695 36.26725499 871.0716109 34.83837891 871.07475281 C34.04267487 871.07702724 33.24697083 871.07930166 32.42715454 871.08164501 C-1.93548217 870.79588093 -30.61333727 859.95428994 -56.875 838.0625 C-57.66261719 837.47984375 -58.45023438 836.8971875 -59.26171875 836.296875 C-84.05022395 816.65767282 -95.63000989 776.08773746 -99.2033097 746.0729204 C-100.14461512 737.49048223 -100.14979397 728.94437578 -100.12223816 720.32022095 C-100.12383232 718.48640516 -100.12630202 716.65258996 -100.12955886 714.81877637 C-100.13592661 709.8168987 -100.1299441 704.81510306 -100.12179661 699.81323084 C-100.11515319 694.38057178 -100.1201387 688.947921 -100.12360382 683.5152607 C-100.128599 672.81914007 -100.12289295 662.12305029 -100.11369693 651.4269335 C-100.10326637 638.76836817 -100.10397324 626.10980997 -100.10494814 613.45124125 C-100.10639333 589.05365643 -100.09603682 564.65609146 -100.08029739 540.25851297 C-100.06715656 519.88714765 -100.05788424 499.51578563 -100.05277601 479.14441668 C-100.05118526 472.8333415 -100.04949797 466.52226633 -100.04779625 460.21119118 C-100.04760917 459.5170009 -100.04742209 458.82281061 -100.04722934 458.10758426 C-100.02531262 377.50369689 -99.98727664 296.89961861 -98.875 -33.9375 C-95.21633064 -34.11092688 -91.55741861 -34.27860301 -87.8984375 -34.4453125 C-86.87161865 -34.49405518 -85.8447998 -34.54279785 -84.78686523 -34.59301758 C-50.63720681 -36.13104524 -24.82346038 -22.71669537 0 0 Z " fill="#38BDF8" transform="translate(4189.875,41.9375)"/>
<path d="M0 0 C0.90878906 0.38027344 1.81757813 0.76054688 2.75390625 1.15234375 C8.20868237 3.62573078 11.9945368 6.58131583 16.0625 10.9609375 C17.97899747 12.97789654 19.98515819 14.72490395 22.125 16.5 C26.79786536 20.51847987 31.02873885 25.08621655 33 31 C33.11088978 32.50021144 33.1687162 34.00467888 33.19287109 35.50878906 C33.20893402 36.42114319 33.22499695 37.33349731 33.24154663 38.27349854 C33.28644147 42.48570818 33.32715028 46.69776199 33.35009766 50.91015625 C33.36653984 53.11534261 33.39367113 55.32047833 33.43212891 57.52539062 C33.95870938 87.91137321 33.95870938 87.91137321 23 100 C7.40071795 115.10870892 -13.35285994 124.48051041 -35.171875 124.28125 C-60.39505334 122.42811853 -81.17565275 110.36947553 -98.5625 92.5625 C-106.80914697 82.8892179 -107.18033729 69.96566157 -107.1875 57.875 C-107.20586914 56.27785156 -107.20586914 56.27785156 -107.22460938 54.6484375 C-107.2588321 35.84875592 -101.86924242 25.47212585 -89 12 C-88.45988281 11.38511719 -87.91976562 10.77023437 -87.36328125 10.13671875 C-65.13057942 -14.22405026 -27.9823094 -12.06444485 0 0 Z M-54 14 C-54 14.99 -54 15.98 -54 17 C-41.79 17 -29.58 17 -17 17 C-17 16.01 -17 15.02 -17 14 C-29.21 14 -41.42 14 -54 14 Z M-75 26 C-83.79713029 35.7768571 -87.36772467 46.6017176 -87.20703125 59.515625 C-86.61771032 69.4340074 -84.2583203 76.15408426 -77 83 C-76.4740625 83.56589844 -75.948125 84.13179687 -75.40625 84.71484375 C-74.07144793 86.22486988 -74.07144793 86.22486988 -72 86 C-72 66.2 -72 46.4 -72 26 C-72.99 26 -73.98 26 -75 26 Z M0 27 C0.02320312 27.93199219 0.04640625 28.86398437 0.0703125 29.82421875 C0.24766056 42.35259245 -0.72375782 53.42782682 -6.14306641 64.88867188 C-7.46253749 67.81870893 -8.12466448 69.49914214 -7.3359375 72.66796875 C-5.41294815 76.02503158 -5.41294815 76.02503158 -3.375 79.3125 C-2.92898438 80.00988281 -2.48296875 80.70726562 -2.0234375 81.42578125 C-1.68570313 81.94527344 -1.34796875 82.46476563 -1 83 C1.34023315 82.71917202 3.67305036 82.37531446 6 82 C7.051875 81.87625 8.10375 81.7525 9.1875 81.625 C13.90225065 78.90092185 14.62100663 74.04668254 16 69 C17.5001678 63.12434277 17.25196008 57.0241364 17 51 C16.96777344 50.13761719 16.93554688 49.27523437 16.90234375 48.38671875 C15.98959494 40.32624687 10.84754926 35.2689312 5 30 C3.36526335 28.94861336 1.7073755 27.92878775 0 27 Z M-36.12109375 38.11572266 C-40.75045638 38.37098848 -45.37529905 38.67134105 -50 39 C-50 42.63 -50 46.26 -50 50 C-46.38521286 51.80739357 -42.16767454 51.22756068 -38.1875 51.25 C-37.28451172 51.270625 -36.38152344 51.29125 -35.45117188 51.3125 C-30.48083343 51.3417158 -26.99496395 51.29852387 -23 48 C-21.41414621 46.45313052 -21.41414621 46.45313052 -20.1875 44.8125 C-19.465625 43.884375 -18.74375 42.95625 -18 42 C-20.65155727 38.84315803 -20.65155727 38.84315803 -24.453125 37.57421875 C-25.37609375 37.61160156 -26.2990625 37.64898438 -27.25 37.6875 C-28.81234375 37.73970703 -28.81234375 37.73970703 -30.40625 37.79296875 C-32.31107528 37.90270325 -34.21594356 38.01178145 -36.12109375 38.11572266 Z M-50 72 C-53.96 79.92 -57.92 87.84 -62 96 C-56.07567313 101.92432687 -45.29728517 101.4698228 -37.453125 101.5078125 C-36.44668945 101.50442871 -36.44668945 101.50442871 -35.41992188 101.50097656 C-33.36969184 101.49999747 -31.32313702 101.54191054 -29.2734375 101.5859375 C-21.6939627 101.65561907 -14.87240995 101.30547954 -9 96 C-7.76924971 93.92511542 -7.76924971 93.92511542 -7 92 C-8.02480469 91.61328125 -9.04960937 91.2265625 -10.10546875 90.828125 C-11.46632699 90.30255216 -12.82699407 89.77648416 -14.1875 89.25 C-14.86103516 88.99734375 -15.53457031 88.7446875 -16.22851562 88.484375 C-22.78719377 85.92489085 -26.5736223 83.13441599 -29.8125 76.75 C-31.53844874 74.11076896 -32.725098 72.30928791 -35.87988281 71.54394531 C-40.69703065 71.10843447 -45.11745491 71.59648388 -50 72 Z " fill="#38BDF8" transform="translate(5300,741)"/>
</svg>
