<?xml version="1.0" encoding="UTF-8"?>
<svg version="1.1" xmlns="http://www.w3.org/2000/svg" width="1280" height="274">
<path d="M0 0 C0.55042969 0.39316406 1.10085938 0.78632812 1.66796875 1.19140625 C3.24578125 2.30515625 3.24578125 2.30515625 4.85546875 3.44140625 C12.00132531 10.428466 15.47403356 20.02012536 19.48046875 29.00390625 C20.13873094 30.46791362 20.79768152 31.93161165 21.45727539 33.39501953 C22.48730862 35.68060144 23.51688238 37.96637949 24.5443573 40.25311279 C27.86777146 47.64926654 31.23552788 55.02480147 34.61193848 62.3968811 C35.61271936 64.58223907 36.61264962 66.76798426 37.61230469 68.95385742 C39.63036809 73.36659853 41.6491058 77.7790309 43.66796875 82.19140625 C46.35594876 88.06618676 49.04361799 93.94110917 51.73046875 99.81640625 C52.06198944 100.54132263 52.39351013 101.26623901 52.7350769 102.01312256 C57.87005554 113.24304662 62.98545988 124.48175973 68.09146118 135.72488403 C72.67853064 145.82450163 77.27839955 155.91819228 81.890625 166.00634766 C82.90550317 168.22663483 83.91960545 170.44727507 84.93359375 172.66796875 C87.9767521 179.32944799 91.03123548 185.98503453 94.12109375 192.625 C94.64026367 193.74447021 95.15943359 194.86394043 95.69433594 196.01733398 C96.64848419 198.07248332 97.60717904 200.12553044 98.57128906 202.17602539 C98.98475586 203.06797607 99.39822266 203.95992676 99.82421875 204.87890625 C100.36272461 206.02939453 100.36272461 206.02939453 100.91210938 207.203125 C101.66796875 209.19140625 101.66796875 209.19140625 101.66796875 212.19140625 C88.5564565 212.6750276 76.02090859 212.36873753 65.66796875 203.19140625 C61.25241068 198.59738403 58.23494887 193.961722 55.6171875 188.17578125 C55.27291214 187.43813538 54.92863678 186.7004895 54.57392883 185.94049072 C53.49053997 183.61219086 52.42301286 181.27700626 51.35546875 178.94140625 C50.62143693 177.36021516 49.88641905 175.77948143 49.15039062 174.19921875 C43.89375877 162.86877631 43.89375877 162.86877631 42.66796875 159.19140625 C6.36796875 159.19140625 -29.93203125 159.19140625 -67.33203125 159.19140625 C-72.61203125 171.07140625 -77.89203125 182.95140625 -83.33203125 195.19140625 C-93.67690623 206.68571178 -102.31556245 212.09232997 -117.33203125 214.19140625 C-121.35259088 214.39401004 -125.31242584 214.35057818 -129.33203125 214.19140625 C-125.77363377 205.42450595 -121.93022849 196.81047951 -117.97583008 188.21777344 C-116.56261402 185.1468309 -115.15402442 182.07377314 -113.74517822 179.00082397 C-113.0150469 177.40829765 -112.28469927 175.81587048 -111.55413818 174.22354126 C-107.96036806 166.38843959 -104.39452311 158.5407657 -100.83203125 150.69140625 C-95.34815957 138.61309469 -89.84077251 126.5456972 -84.32177734 114.48339844 C-79.16760925 103.217539 -74.03267524 91.94309295 -68.91082764 80.6625061 C-65.33437186 72.78617454 -61.75077023 64.91319662 -58.15234375 57.046875 C-57.80412064 56.28532608 -57.45589752 55.52377716 -57.09712219 54.739151 C-55.37035525 50.963838 -53.6407978 47.18984549 -51.90600586 43.41821289 C-49.0821771 37.27107537 -46.27572206 31.12572477 -43.640625 24.89453125 C-39.11571477 14.22873927 -34.14382159 2.56410359 -22.6953125 -2.25390625 C-15.12053624 -4.03178762 -6.77280181 -4.14455036 0 0 Z M-13.33203125 38.19140625 C-21.93399523 56.79645719 -30.53223603 75.40333223 -39.06738281 94.03915405 C-39.73346199 95.49305697 -40.40011022 96.94669935 -41.06738281 98.40005493 C-48.96302365 112.45975751 -48.96302365 112.45975751 -53.33203125 127.19140625 C-26.27203125 127.19140625 0.78796875 127.19140625 28.66796875 127.19140625 C27.16381324 122.67893972 25.52371371 118.47192542 23.53515625 114.1796875 C23.2261438 113.50601639 22.91713135 112.83234528 22.59875488 112.13825989 C21.5830075 109.92548741 20.56298166 107.71471526 19.54296875 105.50390625 C18.82991791 103.9524596 18.11719532 102.40086205 17.40478516 100.84912109 C15.91693496 97.60896376 14.42765629 94.36946844 12.9375 91.13037109 C10.70499844 86.27511157 8.48182001 81.41562773 6.26171875 76.5546875 C5.90570587 75.77521255 5.54969299 74.99573761 5.18289185 74.19264221 C4.4783482 72.64988237 3.77384918 71.10710214 3.06939697 69.56430054 C-1.71018691 59.09693509 -6.5009874 48.63515101 -11.33203125 38.19140625 C-11.99203125 38.19140625 -12.65203125 38.19140625 -13.33203125 38.19140625 Z " fill="#EE2621" transform="translate(1150.33203125,4.80859375)"/>
<path d="M0 0 C2.18355243 1.79751001 4.15811385 3.71189462 6.12109375 5.74609375 C9.51112814 4.21231949 12.24138326 2.19983247 15.18359375 -0.06640625 C28.91765559 -10.08120431 44.72155945 -13.80175732 61.5703125 -11.85546875 C79.91810672 -8.90295014 94.07252162 0.44224435 105.3671875 15.13671875 C112.17984439 25.27225283 114.43610461 35.56661342 114.34814453 47.56835938 C114.34843658 48.62291321 114.34872864 49.67746704 114.34902954 50.76397705 C114.34764351 54.22685157 114.33211646 57.68950712 114.31640625 61.15234375 C114.31267354 63.56229535 114.30982779 65.97224848 114.30783081 68.38220215 C114.30021469 74.7082136 114.28058353 81.03413243 114.25842285 87.36010742 C114.23792086 93.82209012 114.22881979 100.28408786 114.21875 106.74609375 C114.19733576 119.41279981 114.16361167 132.07944184 114.12109375 144.74609375 C112.68086625 144.60585389 111.24118532 144.45999346 109.80175781 144.31176758 C108.99998108 144.23114578 108.19820435 144.15052399 107.37213135 144.06745911 C101.20077761 143.18641683 94.41911745 139.163507 90.12109375 134.74609375 C84.63370415 126.90696575 81.87519695 119.90894185 81.86572266 110.2253418 C81.86029198 109.15062622 81.86029198 109.15062622 81.85475159 108.05419922 C81.84789924 106.51012627 81.84534428 104.96602932 81.84669876 103.42194176 C81.84767144 100.96951069 81.83463421 98.51750908 81.81771851 96.06513977 C81.77167462 89.09660139 81.74685891 82.12810931 81.74023438 75.15942383 C81.73519293 70.8847301 81.71081292 66.61048743 81.67490768 62.33594704 C81.66517269 60.71703626 81.66274298 59.09806295 81.66807938 57.4791317 C81.69953716 47.46598561 81.54092719 38.3207333 75.04296875 30.125 C66.48427933 22.96710327 60.25073929 21.01436958 48.953125 21.2734375 C41.06287151 22.24664919 34.44860971 25.51949517 29.49609375 31.80859375 C24.28427841 39.87850138 23.97692216 48.07553347 23.91577148 57.44506836 C23.90587189 58.39218689 23.89597229 59.33930542 23.88577271 60.31512451 C23.85434289 63.42620396 23.82947393 66.53729864 23.8046875 69.6484375 C23.78410196 71.81320071 23.76310508 73.97796005 23.74171448 76.14271545 C23.68665902 81.82586519 23.63717717 87.5090502 23.58886719 93.19226074 C23.53853114 98.99734619 23.48290839 104.80238075 23.42773438 110.60742188 C23.32035507 121.98693563 23.21886558 133.36649368 23.12109375 144.74609375 C21.68920852 144.60867937 20.25791838 144.46505551 18.8269043 144.31884766 C18.02979538 144.2395401 17.23268646 144.16023254 16.41142273 144.07852173 C9.02033575 143.00574829 1.75593017 138.55087564 -2.703125 132.60546875 C-7.38139316 125.20727724 -8.99699255 119.26864342 -9.02075195 110.45239258 C-9.02422638 109.73620758 -9.02770081 109.02002258 -9.03128052 108.28213501 C-9.03860932 106.73256511 -9.04396995 105.18298491 -9.04757118 103.63340187 C-9.05477627 101.17280861 -9.07047394 98.71241023 -9.08891296 96.25187683 C-9.14118394 89.25770789 -9.18930534 82.26364709 -9.20483398 75.26928711 C-9.21496945 70.98390275 -9.24443294 66.6990124 -9.28615379 62.41382408 C-9.29838921 60.78934164 -9.30359882 59.1647892 -9.30135536 57.54026222 C-9.29091851 47.51401936 -9.45146287 38.33033155 -15.95703125 30.125 C-24.35738404 23.0995251 -30.34806918 21.13415219 -41.40234375 21.39453125 C-49.03845362 22.16672214 -55.60363954 25.10278517 -60.87890625 30.74609375 C-65.59448961 38.39610263 -66.99587572 45.00895405 -67.02075195 53.96972656 C-67.02422638 54.66655045 -67.02770081 55.36337433 -67.03128052 56.08131409 C-67.03859678 57.58557601 -67.043964 59.08984845 -67.04757118 60.59412384 C-67.05479075 62.9833886 -67.0704981 65.37245434 -67.08891296 67.76165771 C-67.14112186 74.55185196 -67.18931124 81.34193359 -67.20483398 88.13232422 C-67.21497171 92.29567478 -67.24443774 96.45851712 -67.28615379 100.62166595 C-67.29838292 102.19869882 -67.30359999 103.7758037 -67.30135536 105.35288239 C-67.2880294 117.77193392 -68.71823245 127.45876838 -77.61328125 136.765625 C-82.92127983 141.4055479 -88.07714857 143.65570747 -95.05908203 144.30078125 C-95.96119415 144.38569824 -96.86330627 144.47061523 -97.79275513 144.55810547 C-98.82539993 144.65115967 -98.82539993 144.65115967 -99.87890625 144.74609375 C-99.94863495 131.41073091 -100.00183333 118.07541196 -100.03434277 104.73990345 C-100.04995123 98.54666992 -100.0711011 92.35356178 -100.10522461 86.16040039 C-100.13799034 80.17573005 -100.15579545 74.19117979 -100.16353798 68.20642662 C-100.1690507 65.93125203 -100.17981513 63.65608348 -100.19609642 61.38096046 C-100.34343306 39.92523658 -98.49774641 21.51558254 -82.74609375 5.28515625 C-59.45973489 -15.33627871 -25.60524494 -18.69657852 0 0 Z " fill="#EE2621" transform="translate(502.87890625,74.25390625)"/>
<path d="M0 0 C0.72251953 0.20367188 1.44503906 0.40734375 2.18945312 0.6171875 C18.5235142 5.38067606 33.36354954 13.61708543 46 25 C47.25490234 26.04220703 47.25490234 26.04220703 48.53515625 27.10546875 C58.06604086 35.19272632 68.43409287 47.1322652 73 59 C72.37109375 61.23046875 72.37109375 61.23046875 71 63 C63.31765359 67.21775881 53.74615709 67.40313138 45.3125 65.34375 C38.75229081 62.70144352 33.99743258 57.85988309 28.95703125 53.05078125 C10.51621595 35.95355905 -14.0530619 27.33821987 -39.04296875 27.75 C-62.16359758 29.21073075 -85.00612104 37.77582266 -101 55 C-101.60457031 55.62261719 -102.20914063 56.24523438 -102.83203125 56.88671875 C-116.32225315 71.25393404 -122.46521907 89.23515512 -122.2734375 108.796875 C-121.48012301 125.55858899 -114.58440041 142.97395099 -102.296875 154.61328125 C-101 156 -101 156 -101 158 C-100.40058594 158.27585938 -99.80117187 158.55171875 -99.18359375 158.8359375 C-97 160 -97 160 -94.0625 162.625 C-75.63207595 178.69758728 -50.9511312 184.40766335 -27 183 C-7.76503701 181.13680986 10.13143935 173.12383637 25.1875 161.1875 C32.68621656 155.39621424 40.58001004 153.1028581 50 154 C56.10395353 155.31411168 61.03409919 157.21023359 66 161 C65.03471502 166.38146378 61.41008255 169.90146682 58 174 C57.33742187 174.81082031 56.67484375 175.62164062 55.9921875 176.45703125 C39.33537722 195.9719289 15.65002945 207.39649604 -9 213 C-10.44439453 213.3403125 -10.44439453 213.3403125 -11.91796875 213.6875 C-43.82021101 219.88712603 -78.68958661 212.5278191 -105.76318359 194.84863281 C-130.47826639 177.94245686 -147.91014998 152.65293084 -153.54199219 123.16186523 C-157.57310168 95.33302779 -151.72956959 67.19279109 -135.09375 44.38671875 C-133.12067778 41.86948573 -131.07776809 39.4312636 -129 37 C-128.36964844 36.21238281 -127.73929688 35.42476562 -127.08984375 34.61328125 C-112.67936453 17.37068473 -92.32992221 6.19000579 -71 0 C-69.90969482 -0.31759277 -69.90969482 -0.31759277 -68.79736328 -0.64160156 C-46.97054383 -6.67037069 -21.71349761 -6.27580127 0 0 Z " fill="#EE2621" transform="translate(154,4)"/>
<path d="M0 0 C17.06091881 13.6859758 28.40150303 31.05940653 30.90625 53.14453125 C32.65964917 72.06866809 29.14691841 91.81769058 17.25146484 107.17431641 C14.19221643 110.83398852 10.88583875 114.20568272 7.5 117.5625 C6.80390625 118.29210937 6.1078125 119.02171875 5.390625 119.7734375 C-10.13030798 134.99357721 -31.64660389 139.72790969 -52.625 139.8125 C-54.50832031 139.8434375 -54.50832031 139.8434375 -56.4296875 139.875 C-68.75285453 139.92613347 -80.18705019 138.4331343 -89.4375 129.7421875 C-96.37373668 122.37243603 -98.54272565 114.61726852 -98.5 104.5625 C-97.97909117 100.70434007 -97.24699906 97.05649813 -95.5 93.5625 C-92.22666056 94.15961467 -90.45157288 95.23016461 -87.9375 97.375 C-75.8713215 106.69277117 -59.18895051 107.64540803 -44.5 106.5625 C-31.92466172 104.81019876 -20.01243373 99.07142895 -11.5 89.5625 C-9.14936368 86.37161429 -7.24867827 83.11590391 -5.5 79.5625 C-5.1596875 78.88960938 -4.819375 78.21671875 -4.46875 77.5234375 C-0.52524097 68.06631861 -1.20368063 55.98036562 -4.625 46.5 C-9.88500038 34.68703825 -18.49723526 25.56983035 -30.55078125 20.59375 C-46.20745692 15.11909785 -61.82877528 14.92794389 -77.3125 21.375 C-89.43604962 27.34697074 -97.57458765 34.96832026 -102.58984375 47.66796875 C-104.66701229 54.27389959 -104.64537043 60.69189106 -104.6418457 67.54980469 C-104.64532013 68.64652496 -104.64879456 69.74324524 -104.65237427 70.87319946 C-104.65971341 73.24998216 -104.66506858 75.62677162 -104.66866493 78.00356293 C-104.67585035 81.77059945 -104.69153262 85.53750722 -104.71000671 89.30450439 C-104.76237873 100.01353635 -104.81087428 110.72248462 -104.82592773 121.43164062 C-104.83523722 127.98742936 -104.86540263 134.54294789 -104.90724754 141.09860992 C-104.91953113 143.59113343 -104.92468365 146.08370302 -104.92244911 148.5762558 C-104.92008735 152.07039501 -104.94233026 155.56360402 -104.9699707 159.05761719 C-104.96006859 160.58852493 -104.96006859 160.58852493 -104.94996643 162.15036011 C-105.07543665 171.85464056 -107.88525479 179.71857842 -114.57421875 186.80859375 C-121.44155513 193.06302384 -128.21983394 195.68273772 -137.5 195.5625 C-137.5937684 176.93322565 -137.66413754 158.30399971 -137.70724869 139.67453766 C-137.72780501 131.02301609 -137.75579169 122.37164182 -137.80175781 113.72021484 C-137.84183929 106.17270694 -137.86748306 98.62530581 -137.87635398 91.07769442 C-137.88153298 87.08752491 -137.89355761 83.09766063 -137.92292023 79.10758972 C-137.95042785 75.33842557 -137.95837522 71.56968722 -137.95243073 67.80043221 C-137.95402572 65.78526955 -137.97536089 63.77015137 -137.99768066 61.75511169 C-137.91191247 42.38163172 -131.5426592 25.0233901 -118.5 10.5625 C-117.90832031 9.87800781 -117.31664062 9.19351563 -116.70703125 8.48828125 C-87.45638527 -23.25708933 -33.77386316 -24.453987 0 0 Z " fill="#EE2621" transform="translate(770.5,78.4375)"/>
<path d="M0 0 C0.78246094 0.7115625 1.56492187 1.423125 2.37109375 2.15625 C3.22574219 2.9296875 4.08039063 3.703125 4.9609375 4.5 C19.90163949 18.6992837 27.95515441 37.72659732 28.55859375 58.28125 C28.16850533 79.02686138 20.74995749 96.82167537 6.60546875 112.0078125 C-11.85830375 129.7614399 -36.76373891 137.82017856 -62.13671875 137.33984375 C-85.70343712 136.10087757 -108.34885093 127.72157285 -124.62890625 110.15625 C-125.51642578 109.27646484 -125.51642578 109.27646484 -126.421875 108.37890625 C-139.43387401 94.86354171 -145.59583015 76.75624199 -145.67236328 58.15869141 C-145.18270808 35.59603989 -135.41034756 17.13736512 -119.48046875 1.640625 C-87.30797655 -26.38910793 -32.8106208 -28.01563681 0 0 Z M-102.0703125 30.21875 C-110.56694248 40.78097674 -113.82608935 51.67131255 -112.62890625 65.15625 C-110.47774187 77.54337156 -103.07091742 87.8667973 -92.94140625 95.06640625 C-77.99299977 104.4290385 -60.80773826 106.72692745 -43.52734375 103.49609375 C-29.84553785 99.99221663 -17.13478243 92.25047726 -9.7109375 79.98828125 C-4.28401948 69.40514658 -2.93459246 58.63802566 -5.27734375 46.91015625 C-9.37830273 34.55470292 -19.13697493 24.81396231 -30.50390625 18.84375 C-32.53039728 17.91409724 -34.57180674 17.01605331 -36.62890625 16.15625 C-37.43328125 15.81464844 -38.23765625 15.47304687 -39.06640625 15.12109375 C-60.24849805 7.82277686 -86.81901028 13.83365793 -102.0703125 30.21875 Z " fill="#EE2621" transform="translate(367.62890625,81.84375)"/>
<path d="M0 0 C74.91 0 149.82 0 227 0 C227 10.27172328 224.73644594 15.83050148 217.79296875 23.27734375 C197.43011197 42.84165713 141.99281185 32 129 32 C129 93.05 129 154.1 129 217 C118.77158501 215.9771585 112.13538161 214.78083445 105.125 207.1875 C99.16383065 199.73603832 96.87217775 192.92821091 96.87974548 183.4004364 C96.87889106 182.750963 96.87803663 182.10148961 96.87715632 181.4323352 C96.87551419 179.26435066 96.88100205 177.09644416 96.88647461 174.9284668 C96.88675678 173.37109885 96.88659816 171.81373078 96.8860321 170.25636292 C96.8857453 166.0336415 96.8916232 161.81094852 96.89860606 157.58823371 C96.904859 153.17331063 96.90544494 148.7583869 96.90663147 144.34346008 C96.90973906 135.98545203 96.91794474 127.62745707 96.92798096 119.26945478 C96.93915986 109.75319762 96.94465703 100.23693983 96.94967639 90.72067773 C96.96012782 71.14711119 96.9777162 51.57355642 97 32 C96.18504562 32.00444122 95.37009125 32.00888245 94.53044128 32.01345825 C86.80789902 32.05371991 79.08540846 32.0840777 71.3627882 32.10362434 C67.39358692 32.11401164 63.42447318 32.12807714 59.45532227 32.15087891 C55.61682094 32.1727893 51.77840322 32.18460652 47.93984413 32.18975449 C46.48360187 32.19341788 45.0273636 32.20057041 43.57115746 32.21146011 C29.69533308 32.31099224 18.48816141 31.99274343 7.9921875 22.109375 C1.26700968 14.96211489 0 9.84169847 0 0 Z " fill="#EE2721" transform="translate(746,2)"/>
<path d="M0 0 C1.43275644 -0.02704114 2.86566143 -0.0462811 4.29858398 -0.06225586 C5.09650864 -0.0738121 5.89443329 -0.08536835 6.71653748 -0.09727478 C14.05442371 0.21531685 20.73260734 5.25246818 25.5625 10.4375 C31.88348849 18.25349407 33.16048197 25.98205711 33.12025452 35.896698 C33.12110894 36.67361594 33.12196337 37.45053389 33.12284368 38.2509948 C33.12448574 40.84427419 33.11899802 43.43748833 33.11352539 46.03076172 C33.11324322 47.893692 33.11340184 49.75662239 33.1139679 51.61955261 C33.1142547 56.67069887 33.10837687 61.72182136 33.10139394 66.77296209 C33.09514092 72.05405399 33.09455506 77.33514643 33.09336853 82.61624146 C33.09026097 92.61397446 33.08205531 102.61169652 33.07201904 112.60942471 C33.06084007 123.99265897 33.05534295 135.37589376 33.05032361 146.75913215 C33.03987224 170.17276083 33.0222839 193.5863798 33 217 C31.39517503 216.85989017 29.79085359 216.71400462 28.18676758 216.56567383 C27.29331131 216.48505203 26.39985504 216.40443024 25.47932434 216.32136536 C19.17415227 215.50410082 12.39113814 211.5131142 8 207 C2.09662351 198.69976388 -0.32365524 191.02594316 -0.24050903 180.86279297 C-0.24221788 180.08416617 -0.24392673 179.30553938 -0.24568737 178.50331783 C-0.24895957 175.91617823 -0.23801634 173.32930287 -0.22705078 170.7421875 C-0.22648618 168.87896226 -0.22680419 167.01573658 -0.22793579 165.1525116 C-0.22850838 160.10971848 -0.21676926 155.06702098 -0.20278788 150.02425003 C-0.19026485 144.74851214 -0.18910878 139.47277194 -0.18673706 134.19702148 C-0.18052692 124.21350564 -0.16412238 114.23003373 -0.14403808 104.24653721 C-0.12166461 92.87777124 -0.110682 81.50900315 -0.10064721 70.14022064 C-0.07975576 46.76012276 -0.04458881 23.38006385 0 0 Z " fill="#EE2622" transform="translate(982,2)"/>
<path d="M0 0 C5.81926631 5.18673736 5.81926631 5.18673736 6.23828125 9.390625 C6.35590857 13.92237228 6.33267412 17.23762181 4.5 21.4375 C0.37066152 25.67007194 -4.071664 28.1699481 -10.0625 28.4375 C-17.05986694 27.66001478 -21.38765629 25.29062955 -26 20 C-28.01992162 15.96015676 -27.71761819 11.37041242 -27 7 C-24.54784616 2.58470566 -21.4975793 -0.25121035 -17 -2.5 C-10.44411241 -3.59264793 -5.92008215 -3.17930338 0 0 Z M-15 2 C-15 2.33 -15 2.66 -15 3 C-12.03 3 -9.06 3 -6 3 C-6 2.67 -6 2.34 -6 2 C-8.97 2 -11.94 2 -15 2 Z M-20 5 C-22.44208981 8.09957553 -23.01287686 9.62657097 -22.875 13.625 C-22.23344052 17.27357961 -22.23344052 17.27357961 -19 20 C-19 15.05 -19 10.1 -19 5 C-19.33 5 -19.66 5 -20 5 Z M-2 5 C-1.95875 5.886875 -1.9175 6.77375 -1.875 7.6875 C-2 11 -2 11 -3.125 13.6875 C-3.41375 14.450625 -3.7025 15.21375 -4 16 C-3.01 17.485 -3.01 17.485 -2 19 C-1.01 18.67 -0.02 18.34 1 18 C2.54586876 14.90826248 2.29359521 12.40570448 2 9 C0.14579161 6.55901182 0.14579161 6.55901182 -2 5 Z M-14 8 C-14 8.99 -14 9.98 -14 11 C-11.08347826 11.16681109 -11.08347826 11.16681109 -8 11 C-7.34 10.34 -6.68 9.68 -6 9 C-7.18424326 7.58422523 -7.18424326 7.58422523 -10.5625 7.9375 C-12.2640625 7.9684375 -12.2640625 7.9684375 -14 8 Z M-14 16 C-14.99 17.98 -15.98 19.96 -17 22 C-14.6603331 23.16983345 -13.16608473 23.1661241 -10.5625 23.1875 C-9.38880859 23.20876953 -9.38880859 23.20876953 -8.19140625 23.23046875 C-5.70794013 23.14086064 -5.70794013 23.14086064 -3 21 C-3.78375 20.731875 -4.5675 20.46375 -5.375 20.1875 C-8 19 -8 19 -10 16 C-11.32 16 -12.64 16 -14 16 Z " fill="#EE2621" transform="translate(1274,179)"/>
</svg>
