<?xml version="1.0" encoding="UTF-8"?>
<svg version="1.1" xmlns="http://www.w3.org/2000/svg" width="921" height="752">
<path d="M0 0 C7.11320415 4.10543929 14.359474 7.94745379 21.6171875 11.7890625 C30.37087233 16.42961932 39.10076001 21.10072258 47.7434082 25.94604492 C53.89792097 29.39196664 60.09818384 32.75033116 66.3046875 36.1015625 C73.22006426 39.83788354 80.12644756 43.58720369 86.9921875 47.4140625 C87.68892578 47.80239258 88.38566406 48.19072266 89.10351562 48.59082031 C89.83376953 48.9978418 90.56402344 49.40486328 91.31640625 49.82421875 C97.638195 53.34712784 103.9698799 56.8521321 110.3046875 60.3515625 C111.23220825 60.86394974 111.23220825 60.86394974 112.1784668 61.38668823 C122.17057059 66.90309455 132.2051238 72.33582308 142.26318359 77.73120117 C149.05575201 81.37855829 155.81276307 85.08208581 162.54174805 88.84521484 C168.76615804 92.31966648 175.03247996 95.71429572 181.3046875 99.1015625 C189.04394509 103.28148886 196.75819449 107.50005157 204.43530273 111.79296875 C209.67803109 114.71728399 214.95413634 117.57565922 220.24121094 120.41894531 C276.60565877 150.75819668 276.60565877 150.75819668 285.30859375 177.15234375 C288.98566357 189.88509923 289.45688068 202.98026203 289.43840027 216.16079712 C289.4417986 217.97022374 289.4417986 217.97022374 289.44526559 219.81620443 C289.45046186 223.12922518 289.45125721 226.44219121 289.45007122 229.75521207 C289.44986566 233.3422949 289.45540061 236.92936988 289.46012878 240.51644897 C289.46840286 247.53133605 289.47118216 254.54621473 289.47174116 261.56110628 C289.4722179 267.26909541 289.47428047 272.97708178 289.47744179 278.68507004 C289.48623976 294.90290013 289.49086254 311.12072363 289.49011131 327.33855613 C289.49005138 328.64751137 289.49005138 328.64751137 289.48999023 329.98291016 C289.48992891 331.29348171 289.48992891 331.29348171 289.48986635 332.63052945 C289.4894602 346.77931076 289.49902431 360.92806543 289.5131286 375.07683904 C289.52752895 389.63864755 289.53439677 404.20044309 289.53353482 418.76225889 C289.5332041 426.92392121 289.53589618 435.08555559 289.54671288 443.24721146 C289.55586621 450.19780478 289.5579538 457.1483575 289.55120345 464.09895428 C289.54796235 467.63741163 289.54779302 471.1757913 289.5565567 474.71424103 C289.66851713 530.0951121 289.66851713 530.0951121 270.9375 550.0625 C257.47675262 563.04393294 240.74046011 571.44395815 224.39672852 580.17138672 C217.2229116 584.00691307 210.11670088 587.93933625 203.0546875 591.9765625 C193.58591162 597.38207069 183.99530225 602.52924373 174.36102295 607.63076782 C165.12966552 612.52210492 155.99643117 617.5532147 146.92578125 622.73828125 C138.86705253 627.32712257 130.6991846 631.70146868 122.51193237 636.05480957 C113.3898733 640.90839169 104.36893374 645.91786711 95.39453125 651.0390625 C88.83594768 654.76971748 82.20283063 658.32005786 75.50561523 661.79418945 C69.19013785 665.08948053 62.9927715 668.5736998 56.8046875 672.1015625 C49.10282288 676.49244034 41.34722006 680.7279797 33.47705078 684.80834961 C28.40807979 687.45227521 23.42555446 690.21794357 18.4675293 693.06420898 C-27.91032836 719.67898271 -27.91032836 719.67898271 -47.6953125 724.6015625 C-48.86707031 724.90126953 -48.86707031 724.90126953 -50.0625 725.20703125 C-86.53655332 730.67272767 -120.45886452 706.38688668 -150.70581055 689.11450195 C-157.2296544 685.39725984 -163.83035173 681.86583666 -170.49487305 678.40869141 C-177.81471487 674.58930938 -184.97658111 670.50668582 -192.1484375 666.41796875 C-198.10859764 663.03151412 -204.11047444 659.7580036 -210.1953125 656.6015625 C-217.05520984 653.04137175 -223.7969643 649.31000691 -230.5078125 645.4765625 C-239.4859057 640.3514657 -248.55988514 635.43774488 -257.6953125 630.6015625 C-267.57675474 625.36957124 -277.36613437 620.01428773 -287.07421875 614.46484375 C-295.13294747 609.87600243 -303.3008154 605.50165632 -311.48806763 601.14831543 C-320.60517643 596.29736721 -329.62347181 591.2943245 -338.59008789 586.1706543 C-344.5393366 582.78299694 -350.54976887 579.55411773 -356.6328125 576.4140625 C-369.15728628 569.91207888 -380.90189467 562.73445451 -391.6953125 553.6015625 C-392.7265625 552.8384375 -393.7578125 552.0753125 -394.8203125 551.2890625 C-407.57621378 539.36506782 -412.91160657 522.62654155 -413.86696887 505.52964878 C-414.13690491 497.18558465 -414.11985157 488.83859334 -414.10214555 480.49119473 C-414.09736973 476.69008201 -414.10996239 472.88901775 -414.12016296 469.08792114 C-414.1372715 461.6611364 -414.13820748 454.23443656 -414.13295006 446.80763724 C-414.12889174 440.76413178 -414.13037154 434.72065121 -414.13569832 428.67714691 C-414.13644674 427.81362578 -414.13719516 426.95010465 -414.13796626 426.06041621 C-414.13949791 424.30557737 -414.14103626 422.55073854 -414.14258123 420.79589972 C-414.15627787 404.37578059 -414.15088889 387.95570923 -414.13939602 371.53559121 C-414.12946964 356.55419731 -414.14239908 341.57292701 -414.16633021 326.59155217 C-414.19078605 311.16400695 -414.20031302 295.73651915 -414.19367748 280.30895495 C-414.19019924 271.6654798 -414.19232431 263.02209959 -414.20992851 254.37863922 C-414.22473205 247.01972607 -414.22518065 239.6609747 -414.2078576 232.30206445 C-414.19941111 228.55668146 -414.19703963 224.81158644 -414.21250916 221.06621933 C-414.40136742 171.70481066 -414.40136742 171.70481066 -397.234375 153.875 C-382.41981482 140.61027073 -365.24286692 131.35210335 -347.81079102 122.04443359 C-340.3990354 118.08234498 -333.05753522 114.01611618 -325.7578125 109.8515625 C-318.21158643 105.54934036 -310.60701824 101.40886689 -302.89672852 97.40917969 C-296.58107735 94.11382681 -290.38355497 90.62951555 -284.1953125 87.1015625 C-276.50341353 82.71636613 -268.75760756 78.48676657 -260.8984375 74.41015625 C-254.58229792 71.11431832 -248.38412891 67.62984276 -242.1953125 64.1015625 C-234.50341353 59.71636613 -226.75760756 55.48676657 -218.8984375 51.41015625 C-212.58229792 48.11431832 -206.38412891 44.62984276 -200.1953125 41.1015625 C-193.2549504 37.14482167 -186.28706414 33.28032867 -179.1953125 29.6015625 C-172.33540145 26.04136463 -165.59384634 22.30969797 -158.8828125 18.4765625 C-146.68935996 11.52271192 -134.3180253 4.9219304 -121.90763855 -1.63381958 C-118.30040288 -3.54114677 -114.70721257 -5.47190727 -111.125 -7.42578125 C-70.31752724 -29.57714376 -39.04212895 -22.62613328 0 0 Z M-93.1328125 129.1640625 C-93.78851227 129.51650024 -94.44421204 129.86893799 -95.11978149 130.23205566 C-103.41756415 134.69254178 -111.69485764 139.19195635 -119.8828125 143.8515625 C-120.647146 144.28025635 -121.41147949 144.7089502 -122.19897461 145.15063477 C-127.21991426 148.04351003 -127.21991426 148.04351003 -130.6953125 152.6015625 C-131.17639438 156.08066474 -131.17639438 156.08066474 -129.6953125 159.6015625 C-124.4233677 164.94632422 -116.23101776 168.00845163 -109.61376953 171.43676758 C-103.05340641 174.8437619 -96.6148437 178.43701307 -90.1953125 182.1015625 C-83.25520801 186.05872024 -76.28713489 189.92298116 -69.1953125 193.6015625 C-61.09708986 197.80217118 -53.16696045 202.26719707 -45.2421875 206.78515625 C-39.28203137 210.1716086 -33.28020785 213.44523333 -27.1953125 216.6015625 C-19.02105265 220.84219965 -11.0074462 225.33854493 -3.00927734 229.90161133 C3.82909967 233.79570329 10.73342895 237.52048806 17.734375 241.11328125 C20.3046875 242.6015625 20.3046875 242.6015625 21.3046875 244.6015625 C21.97813228 247.77818883 22.0389242 250.43111173 21.3046875 253.6015625 C19.73632812 255.12963867 19.73632812 255.12963867 17.5859375 256.45703125 C16.76561035 256.96443848 15.9452832 257.4718457 15.10009766 257.99462891 C10.44340832 260.67151356 5.72900529 263.22611579 0.97323608 265.72241211 C-2.1264038 267.34978766 -5.21805608 268.99213643 -8.30859375 270.63671875 C-8.93205185 270.96838043 -9.55550995 271.30004211 -10.19786072 271.64175415 C-16.20006054 274.84773762 -22.10467071 278.21725371 -28.0078125 281.6015625 C-30.75253796 283.15325479 -33.50090075 284.69801487 -36.25341797 286.23583984 C-37.792636 287.09670624 -39.32860887 287.96342573 -40.85986328 288.83837891 C-50.34466555 294.19229102 -59.84701528 296.72692286 -70.6953125 294.6015625 C-78.66251709 292.15193931 -85.91931623 287.96417101 -93.1953125 283.9765625 C-94.34241699 283.35338135 -95.48952148 282.7302002 -96.67138672 282.08813477 C-103.77928595 278.21947362 -110.86422616 274.30992356 -117.92773438 270.36083984 C-124.1533202 266.8847464 -130.42150135 263.4896953 -136.6953125 260.1015625 C-144.43515472 255.92132038 -152.14857636 251.70001401 -159.828125 247.41015625 C-167.11411135 243.34932873 -174.45436949 239.39005499 -181.79492188 235.42895508 C-187.95746808 232.09911282 -194.08731739 228.71772401 -200.1953125 225.2890625 C-205.94287516 222.07102442 -211.74222593 218.98770271 -217.6328125 216.0390625 C-218.30183594 215.70414795 -218.97085938 215.3692334 -219.66015625 215.02416992 C-224.33508 212.71410018 -227.97912827 211.41946711 -233.1953125 211.2890625 C-234.154375 211.25167969 -235.1134375 211.21429688 -236.1015625 211.17578125 C-245.40585103 212.27813717 -253.53572099 216.87460282 -261.5078125 221.5390625 C-262.86036133 222.30766602 -262.86036133 222.30766602 -264.24023438 223.09179688 C-274.11564998 228.79388938 -281.69667585 235.0964783 -285.0703125 246.4765625 C-286.1588574 251.76689072 -285.85642911 257.23100877 -285.6953125 262.6015625 C-275.7315969 268.25028316 -265.72250219 273.81642825 -255.6953125 279.3515625 C-255.07071136 279.69635651 -254.44611023 280.04115051 -253.80258179 280.39639282 C-244.35776939 285.60723503 -234.88000345 290.75423611 -225.3840332 295.87133789 C-217.52358234 300.12092503 -209.75140714 304.51656572 -201.98681641 308.93823242 C-195.35947637 312.6982033 -188.66033474 316.28532925 -181.8972168 319.79370117 C-174.57830556 323.61249726 -167.41716869 327.69421662 -160.24658203 331.78295898 C-154.24450083 335.19371167 -148.19753639 338.48425794 -142.0703125 341.6640625 C-135.15484109 345.27836377 -128.27060084 348.9443394 -121.4453125 352.7265625 C-120.57567871 353.19328369 -119.70604492 353.66000488 -118.81005859 354.14086914 C-110.54316175 358.78022394 -104.91666282 364.48184068 -101.50859261 373.41393471 C-99.73987303 380.34637978 -100.15469914 387.59138735 -100.19702148 394.69995117 C-100.19319341 396.52256208 -100.18757021 398.34516996 -100.18029785 400.16777039 C-100.16839077 404.07571768 -100.16880266 407.98339608 -100.17889214 411.89134789 C-100.19450717 418.07327751 -100.18073838 424.25493311 -100.16285706 430.43684387 C-100.13209874 442.43927989 -100.13053414 454.44163127 -100.13250732 466.44409943 C-100.13390216 481.73260938 -100.12354707 497.02105461 -100.0839296 512.30951673 C-100.06900824 518.45270738 -100.06925637 524.59565376 -100.08140743 530.73884809 C-100.08612066 534.55995961 -100.07859545 538.38097772 -100.06786346 542.20207405 C-100.0654592 543.97134342 -100.06818606 545.74062847 -100.07647133 547.50988007 C-100.08712023 549.92876376 -100.07932052 552.34693182 -100.06712341 554.76579285 C-100.07469947 555.46229814 -100.08227552 556.15880344 -100.09008116 556.87641495 C-100.02507892 562.97403237 -98.42889059 567.43702014 -94.60546875 572.2109375 C-90.73224236 575.392702 -86.58738762 577.58525924 -82.1328125 579.8515625 C-81.28267578 580.29757812 -80.43253906 580.74359375 -79.55664062 581.203125 C-71.14381894 585.5579974 -63.44792349 587.11391617 -53.95703125 584.98828125 C-43.78603095 581.56781152 -33.11335385 576.35343707 -26.6953125 567.6015625 C-25.52185575 564.08119226 -25.55495058 560.91547488 -25.56401062 557.25354004 C-25.56189491 556.49919725 -25.55977919 555.74485446 -25.55759937 554.9676528 C-25.55159341 552.43219677 -25.55259996 549.89679042 -25.5534668 547.36132812 C-25.55043557 545.54624344 -25.54691422 543.73115952 -25.54293823 541.91607666 C-25.535044 538.00209976 -25.52990225 534.088132 -25.52664757 530.17414856 C-25.52073779 523.97914848 -25.50419614 517.78420587 -25.48530579 511.5892334 C-25.47896808 509.46790317 -25.47264246 507.34657291 -25.46632862 505.22524261 C-25.46316281 504.16271365 -25.459997 503.10018469 -25.45673525 502.00545788 C-25.41467804 487.5817739 -25.3817027 473.15811618 -25.36938477 458.734375 C-25.36099278 449.00773061 -25.33845726 439.28122804 -25.3000291 429.5546546 C-25.2803017 424.40949219 -25.26785275 419.26454162 -25.27286339 414.11933899 C-25.27752497 409.27324397 -25.26362209 404.42754964 -25.23585129 399.58153534 C-25.22896405 397.80912847 -25.2287862 396.03667995 -25.23605156 394.2642746 C-25.27834269 382.7815344 -24.71058696 371.65612162 -17.34643555 362.19970703 C-10.7614409 355.82600085 -1.47819775 351.73725053 6.5546875 347.4765625 C14.80362605 343.05879906 22.98895568 338.55011924 31.1171875 333.9140625 C38.94995238 329.45115381 46.84031051 325.13866656 54.85424805 321.00952148 C59.35464811 318.679589 63.64355225 316.17904374 67.9296875 313.4765625 C73.06871192 310.42053676 76.37923389 309.66101431 82.3046875 310.6015625 C84.0271225 311.6859684 84.0271225 311.6859684 85.3046875 313.6015625 C85.59838863 316.10888265 85.70792803 318.3683949 85.68322754 320.87606812 C85.68775767 321.62239364 85.6922878 322.36871917 85.6969552 323.13766062 C85.70860975 325.64582328 85.69892009 328.15345576 85.68945312 330.66162109 C85.69355687 332.45688726 85.69901656 334.25215077 85.70573425 336.04740906 C85.71747554 339.91724209 85.71993778 343.78693243 85.71537781 347.65678024 C85.7085817 353.77456726 85.72441303 359.89216575 85.74377441 366.00991821 C85.78167485 378.99878945 85.79443489 391.98764445 85.8046875 404.9765625 C85.81575396 418.99112371 85.83107444 433.00559852 85.87540007 447.02010024 C85.89377771 453.10277803 85.89764088 459.18524132 85.89046478 465.26794028 C85.88894426 469.05181912 85.89971857 472.8355904 85.91384315 476.61944008 C85.91785014 478.37502576 85.91671341 480.1306318 85.91007042 481.88620949 C85.90170056 484.28209976 85.91166544 486.67724434 85.92614746 489.0730896 C85.91925353 489.76852257 85.91235959 490.46395554 85.90525675 491.18046224 C85.95590079 495.47867265 86.65834386 498.1926744 89.3046875 501.6015625 C92.02197046 503.28877549 92.02197046 503.28877549 95.3046875 503.6015625 C97.90560735 502.73045585 99.88280429 501.85558736 102.2421875 500.5390625 C102.91749512 500.18199219 103.59280273 499.82492187 104.28857422 499.45703125 C106.64275766 498.19839007 108.97437786 496.90386125 111.3046875 495.6015625 C112.21653809 495.09512207 113.12838867 494.58868164 114.06787109 494.06689453 C119.01284365 491.31303773 123.9387123 488.52850431 128.84765625 485.7109375 C132.07632026 483.85898251 135.31460187 482.04361596 138.60546875 480.3046875 C148.66653844 474.94964406 155.70973603 469.10454043 159.49839783 458.11242676 C161.26586793 450.41625027 160.85791388 442.47323999 160.82226562 434.6171875 C160.82769309 432.6038767 160.83481924 430.59056988 160.84350586 428.57727051 C160.86166777 423.13510816 160.85470115 417.69325073 160.84198952 412.25108337 C160.83182483 406.54140432 160.84126481 400.83175045 160.84753418 395.12207031 C160.85480049 385.53575987 160.84524953 375.94957292 160.82617188 366.36328125 C160.80440518 355.29837269 160.81145726 344.233759 160.8334775 333.16885757 C160.85166043 323.64919648 160.85417566 314.12962388 160.84372282 304.60995102 C160.83750382 298.93283 160.83660836 293.25584735 160.84986877 287.57873535 C160.86146877 282.24008967 160.85332579 276.90182222 160.83029175 271.56321716 C160.8250268 269.61019009 160.82648025 267.65713089 160.83534241 265.70411682 C160.89340742 251.60205137 160.16801797 240.48815745 149.87841797 229.84765625 C145.60632215 226.11939961 140.92132231 223.6172247 135.8671875 221.1015625 C133.72218489 219.98788656 131.57765689 218.87329605 129.43359375 217.7578125 C127.86375732 216.9534375 127.86375732 216.9534375 126.26220703 216.1328125 C122.22590935 214.04302721 118.26347046 211.83366658 114.3046875 209.6015625 C107.33805349 205.70593125 100.32761542 201.89464763 93.3046875 198.1015625 C85.56486534 193.92128261 77.85142416 189.7000143 70.171875 185.41015625 C63.91135051 181.92086751 57.61085963 178.50752765 51.3046875 175.1015625 C43.56486534 170.92128261 35.85142416 166.7000143 28.171875 162.41015625 C21.91135051 158.92086751 15.61085963 155.50752765 9.3046875 152.1015625 C2.28169893 148.30844462 -4.7267985 144.49390002 -11.6953125 140.6015625 C-18.87659667 136.59313347 -26.09124808 132.64815448 -33.3203125 128.7265625 C-34.32835937 128.17871094 -35.33640625 127.63085938 -36.375 127.06640625 C-48.65954261 120.00157184 -48.65954261 120.00157184 -62.3203125 117.2890625 C-63.28195312 117.25167969 -64.24359375 117.21429688 -65.234375 117.17578125 C-75.25213019 118.40821389 -84.36993119 124.43076106 -93.1328125 129.1640625 Z M-283.0078125 309.4765625 C-285.69757881 312.86367563 -285.82316262 314.77556398 -285.83575439 319.05175781 C-285.84146454 320.20962296 -285.84717468 321.3674881 -285.85305786 322.56044006 C-285.85417572 323.83729172 -285.85529358 325.11414337 -285.85644531 326.4296875 C-285.86107301 327.78319942 -285.86609761 329.13671003 -285.87149048 330.49021912 C-285.88462823 334.17453842 -285.89106306 337.85883948 -285.89550114 341.54317856 C-285.89843195 343.84719844 -285.90253695 346.15121334 -285.90700531 348.45523071 C-285.92068892 355.66978718 -285.9303492 362.88433225 -285.9342072 370.09890079 C-285.93867881 378.41488703 -285.95618117 386.73070816 -285.9852078 395.04664421 C-286.00687914 401.47991201 -286.01691452 407.91313357 -286.01824832 414.34643745 C-286.01929321 418.18540923 -286.02513228 422.02422599 -286.04306793 425.86315918 C-286.05964131 429.48127849 -286.06165965 433.09912788 -286.05292892 436.7172718 C-286.05180065 438.66435344 -286.06544957 440.61142647 -286.0796814 442.55845642 C-286.03793891 451.40608919 -285.08377708 459.84669796 -280.0078125 467.3515625 C-279.35232422 468.36476563 -279.35232422 468.36476563 -278.68359375 469.3984375 C-272.86819097 475.84222369 -265.15288888 479.72937345 -257.5703125 483.7265625 C-255.44761089 484.85880191 -253.32522258 485.99162889 -251.203125 487.125 C-250.12836914 487.69702148 -249.05361328 488.26904297 -247.94628906 488.85839844 C-244.7430566 490.57596225 -241.55654989 492.32076374 -238.375 494.078125 C-236.87864014 494.90352783 -236.87864014 494.90352783 -235.35205078 495.74560547 C-233.45031751 496.79630272 -231.55018281 497.84989986 -229.65185547 498.90673828 C-228.79479004 499.37837402 -227.93772461 499.85000977 -227.0546875 500.3359375 C-226.30670898 500.75069336 -225.55873047 501.16544922 -224.78808594 501.59277344 C-222.71986961 502.58972513 -220.96628561 503.26507862 -218.6953125 503.6015625 C-215.24970616 501.96079758 -213.83856288 500.81643808 -211.6953125 497.6015625 C-211.38403414 494.8130203 -211.38403414 494.8130203 -211.42115784 491.60005188 C-211.41118271 490.34536606 -211.40120758 489.09068024 -211.39093018 487.79797363 C-211.39003434 486.40478528 -211.38937079 485.01159677 -211.38891602 483.6184082 C-211.38129549 482.15312782 -211.37286817 480.68785143 -211.36369324 479.22257996 C-211.34172516 475.23886874 -211.33294575 471.2552343 -211.32786679 467.27146935 C-211.32422461 464.78134961 -211.31798514 462.29125 -211.3108654 459.80113792 C-211.28635864 451.11001069 -211.27331728 442.41894321 -211.26977539 433.7277832 C-211.26614366 425.6337519 -211.23627768 417.54010063 -211.19437081 409.44618541 C-211.15963673 402.49317801 -211.14422638 395.54029628 -211.14352936 388.58720273 C-211.14273731 384.43634153 -211.13403326 380.28586697 -211.10553169 376.1350956 C-211.07929873 372.22709801 -211.07717439 368.319806 -211.09318733 364.41176033 C-211.09499797 362.98153898 -211.08834581 361.5512766 -211.07236862 360.12114334 C-210.988742 352.14592757 -211.04619136 345.67819211 -216.6953125 339.6015625 C-219.36092492 337.43462897 -219.36092492 337.43462897 -222.5078125 335.9140625 C-223.09401367 335.60065918 -223.68021484 335.28725586 -224.28417969 334.96435547 C-225.63316148 334.24451496 -226.98688073 333.53350938 -228.34423828 332.82958984 C-232.03507988 330.90176707 -235.68615059 328.90139469 -239.34399414 326.91186523 C-242.44482691 325.22682637 -245.5502263 323.55044745 -248.65625 321.875 C-255.60555684 318.11807942 -262.50952625 314.2820143 -269.40625 310.4296875 C-274.20418373 307.76290248 -278.21774538 305.59272429 -283.0078125 309.4765625 Z " fill="#38BDF8" transform="translate(522.6953125,26.3984375)"/>
</svg>
