<?xml version="1.0" encoding="UTF-8"?>
<svg version="1.1" xmlns="http://www.w3.org/2000/svg" width="3393" height="752">
<path d="M0 0 C2.44799446 0.01611486 4.89433912 0.0000091 7.34228516 -0.01904297 C22.15383498 -0.03964164 36.95613081 1.6189749 51.13525391 6.07861328 C51.95783691 6.33280029 52.78041992 6.5869873 53.62792969 6.84887695 C61.86159635 9.50672046 69.45381247 13.09085892 76.94775391 17.39111328 C77.86379395 17.91511719 77.86379395 17.91511719 78.79833984 18.44970703 C88.81878621 24.29184661 97.06229907 31.47537309 105.22509766 39.68017578 C108.39696929 42.73637455 109.99208409 44.27165455 114.44775391 44.82861328 C118.57639918 43.13291969 120.49364917 41.0335836 123.50634766 37.82080078 C148.08897092 13.35617411 187.59592137 0.37584277 221.81103516 0.18798828 C222.64249557 0.18228821 223.47395599 0.17658813 224.33061218 0.17071533 C226.08619946 0.16131844 227.84180396 0.15475264 229.59741211 0.15087891 C232.21518037 0.14127858 234.83212589 0.11024867 237.44970703 0.07861328 C252.7131474 -0.01831774 267.72254072 1.53458183 282.32275391 6.20361328 C283.150896 6.46078125 283.97903809 6.71794922 284.83227539 6.98291016 C291.84423952 9.22542918 298.40017147 12.01027712 304.94775391 15.39111328 C305.85267578 15.82810547 306.75759766 16.26509766 307.68994141 16.71533203 C334.96212444 30.50952316 353.24148695 56.47649033 362.88525391 84.89111328 C369.38281265 105.01520779 371.09547883 124.98203842 371.12475586 145.97412109 C371.13102938 147.95598467 371.13767696 149.93784708 371.14466858 151.91970825 C371.16558517 158.39454345 371.17605127 164.86937858 371.18603516 171.34423828 C371.19008572 173.57849896 371.19420273 175.81275952 371.19838524 178.04701996 C371.21740036 188.53456623 371.23164563 199.02210557 371.23999721 209.50966573 C371.24979148 221.60697611 371.27618338 233.70410459 371.3164981 245.80135083 C371.34662809 255.16377838 371.36146265 264.52615362 371.36477822 273.88862872 C371.36712988 279.47677128 371.37610762 285.06471865 371.4012394 290.65280914 C371.42447405 295.90273805 371.42877191 301.15234248 371.41847801 306.40230942 C371.41798162 308.32842716 371.42433243 310.25456066 371.43803406 312.18062973 C371.45569478 314.81020259 371.4486762 317.43860309 371.4355011 320.06817627 C371.44647034 320.82984958 371.45743959 321.59152289 371.46874124 322.37627721 C371.40651898 327.52050157 370.18822211 330.4271431 366.94775391 334.39111328 C361.36501925 338.63025038 354.58308817 337.84083846 347.88525391 337.82470703 C346.62060303 337.82994888 345.35595215 337.83519073 344.05297852 337.84059143 C341.38314509 337.84700574 338.71416938 337.84712784 336.04443359 337.8371582 C332.63471625 337.82566157 329.22603353 337.84590112 325.81645203 337.87507534 C322.54771453 337.89789957 319.27905238 337.89096843 316.01025391 337.88720703 C314.79136475 337.89844101 313.57247559 337.90967499 312.31665039 337.92124939 C301.55926149 337.83283523 301.55926149 337.83283523 296.94775391 333.39111328 C293.33958487 328.85142069 292.36860412 325.41792328 292.44895935 319.7428894 C292.44088252 318.61705545 292.44088252 318.61705545 292.43264252 317.46847737 C292.41940931 314.96302379 292.43449681 312.45855669 292.44946289 309.953125 C292.44563801 308.15219677 292.44001752 306.35127159 292.43273926 304.550354 C292.42079156 300.6740128 292.42127658 296.7979425 292.43133354 292.92159653 C292.44692985 286.77422151 292.43318736 280.62712282 292.41529846 274.47976685 C292.38447112 262.51753026 292.38297499 250.5553781 292.38494873 238.59310913 C292.38634067 223.41836493 292.37572716 208.24368733 292.336371 193.06899083 C292.32156041 186.97792137 292.32161668 180.88709867 292.33384883 174.79602599 C292.33861491 170.97537369 292.33095478 167.1548125 292.32030487 163.33417511 C292.31793151 161.58488263 292.32051514 159.83557383 292.32891273 158.0862999 C292.43398865 134.76974637 289.94589696 108.24881714 273.16259766 90.36376953 C255.45919871 74.59619199 233.8465965 72.24378088 210.94775391 73.39111328 C191.86665671 75.29130553 173.38027726 83.79201383 160.50244141 98.10986328 C144.49427323 118.29643467 140.6337287 142.80011159 140.67651367 167.92797852 C140.67211683 169.6541315 140.66681122 171.38028237 140.66067505 173.10643005 C140.64925448 176.79653147 140.64372158 180.48657608 140.64279366 184.17669487 C140.64084001 190.01409421 140.62271996 195.85137696 140.60203552 201.68873596 C140.55304007 216.17577915 140.52192422 230.66285348 140.50073242 245.14996338 C140.4842071 256.43519765 140.46142051 267.72033038 140.41771168 279.00549656 C140.39595322 284.8068964 140.38787552 290.60810318 140.39010441 296.40954101 C140.3884377 300.01429362 140.37439102 303.61891986 140.35689163 307.22362709 C140.35129412 308.89333045 140.35080506 310.56306002 140.35582924 312.2327652 C140.36197374 314.5139403 140.34973477 316.7943184 140.33302307 319.07542419 C140.33101174 320.35089332 140.32900042 321.62636244 140.32692814 322.94048214 C139.77035517 328.00550993 138.17745205 331.2536425 134.44775391 334.70361328 C130.69820724 337.23455728 127.88861068 337.52170421 123.4699707 337.55224609 C122.34838058 337.56185364 121.22679047 337.57146118 120.07121277 337.58135986 C118.25246391 337.58773468 118.25246391 337.58773468 116.39697266 337.59423828 C114.52692314 337.60278839 114.52692314 337.60278839 112.61909485 337.61151123 C109.97869212 337.62096494 107.33840315 337.62785981 104.69799805 337.63134766 C101.9947361 337.63573765 99.29179238 337.64964895 96.58862305 337.67236328 C92.69130758 337.70282407 88.7943939 337.71339585 84.89697266 337.71923828 C83.69054611 337.73158508 82.48411957 337.74393188 81.24113464 337.75665283 C70.72400545 337.72874687 70.72400545 337.72874687 65.94775391 334.39111328 C60.96431658 329.13830097 60.79921516 324.86220505 60.81645203 317.86950684 C60.81327846 316.72786017 60.81327846 316.72786017 60.81004077 315.56314993 C60.80404517 313.01034724 60.80504066 310.45759404 60.8059082 307.90478516 C60.80287609 306.07459937 60.79935449 304.24441433 60.79537964 302.41423035 C60.787489 298.46864233 60.78234485 294.52306337 60.77908897 290.57746887 C60.77316799 284.32110853 60.75661323 278.06480477 60.73774719 271.80847168 C60.73140931 269.66336826 60.72508369 267.51826481 60.71877003 265.37316132 C60.71560422 264.29861663 60.7124384 263.22407194 60.70917666 262.11696529 C60.66719068 247.5545497 60.63418093 232.99215952 60.62182617 218.4296875 C60.6134058 208.60553206 60.59076302 198.78151605 60.55247051 188.95743036 C60.53283109 183.76672505 60.52026432 178.57622758 60.52530479 173.38548279 C60.53000308 168.48682047 60.51586783 163.58854973 60.48829269 158.6899662 C60.48146501 156.9084381 60.48116141 155.12686874 60.48849297 153.34534264 C60.57276517 130.53240797 56.66443751 107.27136934 40.88525391 89.70361328 C24.87399373 74.83601455 3.65197275 72.71951182 -17.19091797 73.25488281 C-38.30285485 74.26004158 -56.55416162 83.14878969 -70.95458984 98.40673828 C-92.94404643 124.53480008 -91.49306109 159.96048715 -91.42663074 192.02166891 C-91.42105497 196.7642419 -91.43566926 201.50674693 -91.44898987 206.2492981 C-91.48490002 220.30013911 -91.49140645 234.35097261 -91.4888916 248.40185547 C-91.48717921 259.37227548 -91.49428499 270.3425292 -91.52887017 281.31290257 C-91.54562119 286.94183836 -91.54391029 292.57036659 -91.52804744 298.19930053 C-91.52224778 301.69376713 -91.53299265 305.18804036 -91.54829407 308.68247223 C-91.55201583 310.29855635 -91.5489251 311.91467311 -91.53842354 313.53072739 C-91.52501669 315.7412582 -91.53628958 317.95038304 -91.55345154 320.16085815 C-91.55324225 321.39551756 -91.55303297 322.63017696 -91.55281734 323.90225029 C-92.29627646 329.09583796 -94.27434212 332.99543726 -98.48583984 336.30151367 C-103.99763065 337.98546235 -109.38271049 337.83851238 -115.11474609 337.82470703 C-116.37939697 337.82994888 -117.64404785 337.83519073 -118.94702148 337.84059143 C-121.61685491 337.84700574 -124.28583062 337.84712784 -126.95556641 337.8371582 C-130.36528375 337.82566157 -133.77396647 337.84590112 -137.18354797 337.87507534 C-140.45228547 337.89789957 -143.72094762 337.89096843 -146.98974609 337.88720703 C-148.20863525 337.89844101 -149.42752441 337.90967499 -150.68334961 337.92124939 C-157.09888471 337.86852059 -161.19704925 337.75965508 -166.05224609 333.39111328 C-166.65037109 332.87548828 -167.24849609 332.35986328 -167.86474609 331.82861328 C-170.32027281 328.85613357 -170.17957366 325.79040112 -170.18646717 322.11925793 C-170.19092501 321.01971537 -170.19538286 319.92017281 -170.19997579 318.78731078 C-170.19979143 317.57449331 -170.19960706 316.36167584 -170.19941711 315.11210632 C-170.2030938 313.82745745 -170.20677049 312.54280858 -170.21055859 311.21923095 C-170.22058258 307.64609537 -170.22429602 304.07297659 -170.2269479 300.49982893 C-170.2308497 296.64900792 -170.24042803 292.79820022 -170.24916077 288.9473877 C-170.26892727 279.64486222 -170.27899099 270.34233565 -170.28788856 261.03979442 C-170.29227059 256.66078906 -170.29763757 252.28178493 -170.30287743 247.90278053 C-170.31988884 233.349487 -170.33438402 218.79619422 -170.34162617 204.24289227 C-170.3435361 200.46588325 -170.34545643 196.68887423 -170.34741211 192.91186523 C-170.34789585 191.97309195 -170.34837959 191.03431866 -170.34887799 190.0670977 C-170.3571821 174.85233419 -170.38252582 159.63764921 -170.41499279 144.42292001 C-170.44804201 128.80828312 -170.46607293 113.19368618 -170.46927041 97.57901412 C-170.47143734 88.80946439 -170.48021286 80.04002922 -170.50573158 71.27051353 C-170.5274093 63.8036701 -170.53550344 56.33696905 -170.5257648 48.87009772 C-170.52121173 45.05969585 -170.52316438 41.24958794 -170.54252625 37.43922615 C-170.56332928 33.30963301 -170.5531998 29.18069535 -170.53999329 25.05107117 C-170.55096253 23.84494586 -170.56193178 22.63882056 -170.57323343 21.396146 C-170.52439588 15.09365226 -170.34282951 11.15665167 -166.05224609 6.39111328 C-161.93600471 2.54043585 -157.47927848 2.27366587 -152.02172852 2.22998047 C-150.5594709 2.21556915 -150.5594709 2.21556915 -149.06767273 2.2008667 C-148.02488663 2.19661682 -146.98210052 2.19236694 -145.90771484 2.18798828 C-144.82396072 2.18228821 -143.7402066 2.17658813 -142.62361145 2.17071533 C-140.33314994 2.16128181 -138.04267495 2.15473791 -135.75219727 2.15087891 C-132.26277803 2.14117732 -128.773949 2.11013922 -125.28466797 2.07861328 C-123.05485374 2.0720822 -120.82503532 2.06683214 -118.59521484 2.06298828 C-117.04014473 2.04446808 -117.04014473 2.04446808 -115.45365906 2.02557373 C-109.27501528 2.04441231 -104.65507658 2.71987125 -99.05224609 5.39111328 C-95.34027496 9.19826316 -93.99620176 12.37714906 -93.73583984 17.62158203 C-93.69394531 18.42402344 -93.65205078 19.22646484 -93.60888672 20.05322266 C-93.56957031 20.88660156 -93.53025391 21.71998047 -93.48974609 22.57861328 C-93.4465625 23.42359375 -93.40337891 24.26857422 -93.35888672 25.13916016 C-93.25293092 27.22295762 -93.15209589 29.30701431 -93.05224609 31.39111328 C-92.50439453 30.91802734 -91.95654297 30.44494141 -91.39208984 29.95751953 C-79.82702126 20.31055988 -67.29204462 13.25999887 -53.05224609 8.39111328 C-52.38999023 8.16439941 -51.72773438 7.93768555 -51.04541016 7.70410156 C-34.36681738 2.13264031 -17.55159632 -0.13660193 0 0 Z " fill="#38BDF8" transform="translate(194.05224609375,205.60888671875)"/>
<path d="M0 0 C0.83263367 -0.00979385 1.66526733 -0.01958771 2.52313232 -0.02967834 C20.64563623 -0.19899338 38.30376058 -0.21340319 55.99609375 4.23828125 C56.86911133 4.45790527 57.74212891 4.6775293 58.64160156 4.90380859 C85.77319828 11.98488472 110.15214171 24.16408152 130.8203125 43.25 C132.56610749 44.84534946 134.32897477 46.33763857 136.18359375 47.80078125 C139.86229516 50.98898913 142.90833336 54.48273141 145.99609375 58.23828125 C146.74890625 59.14191406 147.50171875 60.04554688 148.27734375 60.9765625 C178.62026323 98.76117901 187.44894752 145.62003583 183.69580078 193.03173828 C181.44830944 212.58920755 175.61214661 231.57423621 166.99609375 249.23828125 C166.68945801 249.87072754 166.38282227 250.50317383 166.06689453 251.15478516 C158.79884866 265.93578255 149.40865456 278.42330293 137.99609375 290.23828125 C137.13371094 291.16382813 136.27132812 292.089375 135.3828125 293.04296875 C108.24656719 321.42547125 65.82295203 339.43738039 26.61987305 340.39941406 C25.10341347 340.41890079 23.58687224 340.43269234 22.0703125 340.44140625 C21.24893799 340.44842056 20.42756348 340.45543488 19.58129883 340.46266174 C16.94867398 340.48005445 14.31627392 340.48651284 11.68359375 340.48828125 C10.33559189 340.48929337 10.33559189 340.48929337 8.96035767 340.49032593 C-3.91641239 340.4749384 -16.41399515 340.19758293 -29.00390625 337.23828125 C-29.78878418 337.06135742 -30.57366211 336.88443359 -31.38232422 336.70214844 C-60.08170344 330.10943248 -87.3180518 317.39402015 -109.00390625 297.23828125 C-109.63828613 296.65304687 -110.27266602 296.0678125 -110.92626953 295.46484375 C-121.09324647 285.98386114 -129.5916096 276.00133377 -137.00390625 264.23828125 C-137.41721191 263.5839209 -137.83051758 262.92956055 -138.25634766 262.25537109 C-162.44009165 223.24964862 -168.69671771 173.64306163 -158.81640625 129.17578125 C-153.13249177 105.15918164 -143.49616334 82.61076699 -128.00390625 63.23828125 C-127.53871582 62.65498047 -127.07352539 62.07167969 -126.59423828 61.47070312 C-98.09311447 26.16092461 -56.35111365 5.35462174 -11.43525696 0.4573822 C-7.62380916 0.11391392 -3.82514172 0.03744139 0 0 Z M-32.00390625 80.23828125 C-32.93589844 80.69074219 -33.86789062 81.14320313 -34.828125 81.609375 C-41.55379502 85.07070308 -47.33100485 89.24908458 -53.00390625 94.23828125 C-53.75414062 94.893125 -54.504375 95.54796875 -55.27734375 96.22265625 C-74.39216282 114.06315405 -82.97635464 140.22955962 -84.171875 165.8359375 C-84.32666546 193.29576444 -77.40175875 219.28517146 -59.00390625 240.23828125 C-58.359375 240.98207031 -57.71484375 241.72585938 -57.05078125 242.4921875 C-42.39968857 258.22056641 -19.76885923 268.22491045 1.60009766 269.37890625 C20.28416474 270.00473332 37.02861146 268.5518614 53.99609375 260.23828125 C54.91648437 259.79742187 55.836875 259.3565625 56.78515625 258.90234375 C77.85267781 248.16087501 92.04352003 229.16095479 99.99609375 207.23828125 C103.69950774 195.60187116 105.20138548 184.49326793 105.23632812 172.28955078 C105.2459393 170.27072404 105.27698391 168.25295974 105.30859375 166.234375 C105.41205009 139.77541713 95.85495185 114.94672103 77.58984375 95.703125 C57.16814048 76.37544154 31.89420437 70.66332466 4.6875 70.95703125 C-8.28418134 71.32392932 -20.3541662 74.52174214 -32.00390625 80.23828125 Z " fill="#38BDF8" transform="translate(2011.00390625,205.76171875)"/>
<path d="M0 0 C1.0349762 -0.00960754 2.06995239 -0.01921509 3.1362915 -0.02911377 C4.80664459 -0.03548859 4.80664459 -0.03548859 6.51074219 -0.04199219 C7.66249939 -0.04769226 8.81425659 -0.05339233 10.00091553 -0.05926514 C12.4385893 -0.06870981 14.87627582 -0.075247 17.31396484 -0.07910156 C21.02952568 -0.08879391 24.7445302 -0.11981782 28.45996094 -0.15136719 C30.83105141 -0.1578989 33.20214583 -0.16314871 35.57324219 -0.16699219 C36.67871399 -0.17933899 37.78418579 -0.19168579 38.92315674 -0.20440674 C45.26044305 -0.18625182 50.08692859 0.34613845 55.80761719 3.16113281 C59.42650066 7.61514324 60.93049069 11.21766735 60.93891907 16.89878845 C60.94292725 17.87317368 60.94693542 18.8475589 60.95106506 19.85147095 C60.95053635 20.91908661 60.95000763 21.98670227 60.94946289 23.08666992 C60.95293732 24.21209702 60.95641174 25.33752411 60.95999146 26.49705505 C60.96735074 28.94429466 60.9726952 31.39154095 60.97628212 33.83878899 C60.98343629 37.70895207 60.99909406 41.57898754 61.0176239 45.44911194 C61.07015054 56.45393054 61.11853285 67.45868092 61.13354492 78.46362305 C61.14281614 85.19101746 61.17287949 91.91804479 61.21486473 98.64532661 C61.22720528 101.21258686 61.23229046 103.77989238 61.2300663 106.34718132 C61.22772314 109.9338721 61.24980555 113.51963539 61.27758789 117.10620117 C61.27098648 118.1717926 61.26438507 119.23738403 61.25758362 120.33526611 C61.25751399 125.93120506 61.25751399 125.93120506 63.62858582 130.84864807 C65.86840581 132.44624802 65.86840581 132.44624802 69.20214844 132.21582031 C73.45420665 130.97198963 75.35091056 129.38210196 78.49511719 126.28613281 C79.54031593 125.27793226 80.58589974 124.27013079 81.63183594 123.26269531 C82.15825684 122.74610352 82.68467773 122.22951172 83.22705078 121.69726562 C85.70061433 119.29324001 88.25504917 116.98058386 90.80761719 114.66113281 C91.80805677 113.74494592 92.8080559 112.82827784 93.80761719 111.91113281 C123.80761719 84.41113281 123.80761719 84.41113281 125.30737305 83.03637695 C126.30821387 82.11892596 127.30902764 81.20144545 128.30981445 80.28393555 C130.7967298 78.0040273 133.28410034 75.72461989 135.77246094 73.44628906 C140.96058765 68.69505723 146.1403528 63.93505207 151.30761719 59.16113281 C156.96650687 53.93301202 162.6414455 48.72269192 168.32373047 43.52001953 C170.81926126 41.23470786 173.31336246 38.94783701 175.80761719 36.66113281 C176.80761043 35.74445878 177.80761043 34.82779211 178.80761719 33.91113281 C179.55011719 33.23050781 179.55011719 33.23050781 180.30761719 32.53613281 C181.80761719 31.16113281 183.30761719 29.78613281 184.80761719 28.41113281 C185.30277832 27.95714111 185.79793945 27.50314941 186.30810547 27.03540039 C187.30609949 26.1207621 188.30447078 25.20653529 189.30322266 24.29272461 C191.83719933 21.97328854 194.36379376 19.64660396 196.87792969 17.30566406 C215.44601472 0.05352072 215.44601472 0.05352072 227.99707031 0.01586914 C228.70177963 0.01251053 229.40648895 0.00915192 230.1325531 0.00569153 C232.45134261 -0.00377182 234.7700596 -0.00575903 237.08886719 -0.00683594 C238.7064212 -0.01005094 240.32397492 -0.0134152 241.94152832 -0.016922 C245.32739944 -0.02290114 248.71324507 -0.02476307 252.09912109 -0.02416992 C256.4334704 -0.02406819 260.76765631 -0.03773734 265.10196686 -0.05494213 C268.44086455 -0.06606836 271.77972275 -0.06808896 275.11863708 -0.0675602 C276.71659408 -0.06873872 278.31455215 -0.07315332 279.91249084 -0.08089256 C282.14783151 -0.09070823 284.38281748 -0.08780869 286.61816406 -0.08178711 C287.88881714 -0.08321213 289.15947021 -0.08463715 290.46862793 -0.08610535 C294.48594993 0.21136051 297.37884212 1.0770184 300.58886719 3.51269531 C302.1458609 5.61862912 302.27205514 6.93121314 302.30761719 9.53613281 C302.35402344 10.66148437 302.35402344 10.66148437 302.40136719 11.80957031 C301.53423098 15.2438861 299.34296605 16.72496599 296.80761719 19.16113281 C295.09984724 20.87352984 293.39242865 22.58627733 291.68530273 24.29931641 C286.74663074 29.25433449 281.80541162 34.20680423 276.86273479 39.15782738 C273.88249794 42.14328006 270.90320388 45.12966123 267.92602539 48.11816406 C265.03065298 51.02447268 262.13278059 53.92826755 259.23322487 56.83040237 C258.1364637 57.92899534 257.04057518 59.0284603 255.9456234 60.12885666 C250.71910262 65.38034148 245.4736447 70.52945843 239.84162903 75.35073853 C235.8983656 78.86048288 232.21754065 82.64380517 228.50209045 86.39149475 C226.98949387 87.91707258 225.47360517 89.43931367 223.95690918 90.96081543 C220.73762607 94.19142235 217.52231607 97.42596504 214.30761719 100.66113281 C210.57686069 104.41564408 206.84440968 108.16843894 203.10768127 111.91700745 C201.62791163 113.4031697 200.15123154 114.89235277 198.67468262 116.38171387 C194.05109782 121.02199839 189.39052606 125.53895337 184.40441895 129.78965759 C182.41591839 131.49755855 180.57922572 133.2920874 178.80761719 135.22363281 C178.23011719 135.83335937 177.65261719 136.44308594 177.05761719 137.07128906 C175.32164972 139.97360968 175.38635716 141.82934898 175.80761719 145.16113281 C177.06184117 147.68332856 177.06184117 147.68332856 178.99511719 150.03613281 C179.7234375 150.98488281 180.45175781 151.93363281 181.20214844 152.91113281 C182.06758561 153.99690616 182.93630611 155.08006747 183.80761719 156.16113281 C184.30052246 156.7734375 184.79342773 157.38574219 185.30126953 158.01660156 C187.48621801 160.72196873 189.67876997 163.42089056 191.88208008 166.11132812 C196.14493047 171.3175811 200.27129897 176.61034185 204.35449219 181.95800781 C211.20749368 190.9298117 218.26266784 199.74534132 225.32446289 208.55297852 C230.07255981 214.47984978 234.76561416 220.44897915 239.44873047 226.42724609 C241.73215022 229.34080108 244.02012522 232.25077474 246.30761719 235.16113281 C247.22430542 236.32778254 248.14097209 237.4944492 249.05761719 238.66113281 C249.51136719 239.23863281 249.96511719 239.81613281 250.43261719 240.41113281 C254.55761719 245.66113281 254.55761719 245.66113281 255.93237305 247.41088867 C256.84976727 248.57843691 257.76724785 249.7459173 258.68481445 250.91333008 C260.96605963 253.81596072 263.24582933 256.71972555 265.52246094 259.62597656 C269.71762061 264.97808379 273.92590298 270.31755607 278.18847656 275.61621094 C283.51868569 282.24239248 288.72167517 288.95133429 293.859375 295.7277832 C298.30156325 301.56099342 302.89726238 307.25783923 307.58276367 312.8972168 C314.59798131 321.40215674 314.59798131 321.40215674 315.05761719 325.25878906 C314.97511719 325.9071875 314.89261719 326.55558594 314.80761719 327.22363281 C314.71480469 328.20009766 314.71480469 328.20009766 314.62011719 329.19628906 C313.35864048 332.24687938 311.55597018 333.37058126 308.80761719 335.16113281 C306.09952397 335.54824582 303.80118031 335.70953706 301.09912109 335.67871094 C299.95909386 335.68922485 299.95909386 335.68922485 298.79603577 335.69995117 C296.2917084 335.71750911 293.78851792 335.70591463 291.28417969 335.69238281 C289.53689356 335.69507894 287.78960889 335.69896236 286.04232788 335.70397949 C282.38223979 335.70987201 278.72254259 335.70132179 275.0625 335.68261719 C270.38282851 335.65986138 265.70407641 335.67293055 261.02443886 335.69690704 C257.41603746 335.71140069 253.80785192 335.70674218 250.19944382 335.69639587 C248.47475449 335.69373667 246.75004525 335.69696987 245.02537918 335.70631409 C242.60803036 335.71653508 240.19214303 335.70090164 237.77490234 335.67871094 C237.06921616 335.68680786 236.36352997 335.69490479 235.63645935 335.70324707 C230.20478362 335.61141061 227.19566039 334.13713604 222.80761719 331.16113281 C220.94772405 329.11664878 219.35254984 327.19234267 217.74511719 324.97363281 C216.79809807 323.71806445 215.84876857 322.46423627 214.89746094 321.21191406 C214.15085205 320.22312256 214.15085205 320.22312256 213.38916016 319.21435547 C210.62112963 315.62078697 207.70864393 312.14749946 204.80761719 308.66113281 C200.11327669 302.99633685 195.5096951 297.27537535 190.99121094 291.46972656 C187.34276619 286.80014276 183.58747891 282.22472396 179.80761719 277.66113281 C175.11467901 271.99514482 170.50972831 266.27541803 165.99121094 260.46972656 C162.34276589 255.80014237 158.58747005 251.22473201 154.80761719 246.66113281 C150.00011742 240.85661388 145.2801161 234.99655877 140.64404297 229.05444336 C135.63389138 222.63896005 130.47576456 216.34661563 125.24902344 210.10644531 C124.00958984 208.61757813 124.00958984 208.61757813 122.74511719 207.09863281 C121.99101563 206.20015625 121.23691406 205.30167969 120.45996094 204.37597656 C118.80761719 202.16113281 118.80761719 202.16113281 118.80761719 200.16113281 C114.98208391 199.10734008 111.44254297 198.23761186 107.85058594 200.26660156 C105.73333263 202.1431566 103.77831246 204.13103715 101.80761719 206.16113281 C99.96130719 207.85722528 98.10640706 209.54399289 96.24511719 211.22363281 C90.93027932 216.09450234 85.65987189 221.01355656 80.40429688 225.94824219 C77.38690098 228.77695338 74.35435863 231.58034065 71.25683594 234.32128906 C70.70511719 234.81306641 70.15339844 235.30484375 69.58496094 235.81152344 C68.09607682 237.13395982 66.59862947 238.44673744 65.10058594 239.75878906 C60.75631881 244.31027847 60.56529007 248.45068966 60.62817383 254.59423828 C60.63496407 255.69037445 60.63496407 255.69037445 60.64189148 256.80865479 C60.65281733 258.38937847 60.66829904 259.9700759 60.68785286 261.5507164 C60.71811541 264.05663735 60.73485302 266.56232377 60.74790955 269.06838989 C60.78757733 276.19144345 60.85263141 283.3142135 60.92407227 290.43701172 C60.96689947 294.79993591 60.99492655 299.16276454 61.01437187 303.5258522 C61.0249058 305.18360233 61.0412654 306.84132649 61.06367683 308.49895859 C61.09504051 310.82251117 61.10767455 313.1455058 61.11645508 315.46923828 C61.12914932 316.78874481 61.14184357 318.10825134 61.15492249 319.46774292 C60.65076892 324.82912289 59.30353413 328.74001172 55.30761719 332.53613281 C51.54339362 334.98287813 48.72200386 335.29190671 44.32983398 335.32226562 C43.20824387 335.33187317 42.08665375 335.34148071 40.93107605 335.35137939 C39.11232719 335.35775421 39.11232719 335.35775421 37.25683594 335.36425781 C35.38678642 335.37280792 35.38678642 335.37280792 33.47895813 335.38153076 C30.8385554 335.39098447 28.19826643 335.39787935 25.55786133 335.40136719 C22.85459938 335.40575718 20.15165566 335.41966848 17.44848633 335.44238281 C13.55117086 335.4728436 9.65425718 335.48341538 5.75683594 335.48925781 C4.55040939 335.50160461 3.34398285 335.51395142 2.10099792 335.52667236 C-8.41613127 335.4987664 -8.41613127 335.4987664 -13.19238281 332.16113281 C-17.58516802 327.53089976 -18.31474619 324.05884178 -18.32660389 317.83428574 C-18.33329066 316.2047358 -18.33329066 316.2047358 -18.34011251 314.54226565 C-18.33992814 313.34928906 -18.33974378 312.15631246 -18.33955383 310.92718506 C-18.34323052 309.6594271 -18.34690721 308.39166914 -18.35069531 307.08549428 C-18.3607061 303.56408554 -18.36443061 300.04269385 -18.36708462 296.5212729 C-18.37099033 292.72428302 -18.38056839 288.9273066 -18.38929749 285.13032532 C-18.40905288 275.96020659 -18.41912628 266.79008677 -18.42802528 257.61995208 C-18.43240911 253.30147662 -18.43777562 248.98300239 -18.44301414 244.66452789 C-18.46002441 230.30935801 -18.47451912 215.95418888 -18.48176289 201.59901047 C-18.48367277 197.87443796 -18.48559311 194.14986545 -18.48754883 190.42529297 C-18.48803257 189.49957226 -18.48851631 188.57385156 -18.48901471 187.62007871 C-18.4973171 172.62012473 -18.52265845 157.62025044 -18.55512951 142.62033126 C-18.58819488 127.22035539 -18.60621112 111.82042004 -18.60940713 96.42040849 C-18.61157255 87.77377011 -18.6203261 79.12724801 -18.6458683 70.48064423 C-18.66756806 63.11781942 -18.67562926 55.75513913 -18.66590152 48.39228597 C-18.66135488 44.63630987 -18.66326394 40.88063199 -18.68266296 37.12469673 C-18.70352345 33.05059277 -18.69331585 28.977151 -18.68013 24.90301514 C-18.69109925 23.71896143 -18.7020685 22.53490772 -18.71337014 21.31497359 C-18.65981237 14.46929482 -17.90666253 9.9703159 -14.19238281 4.16113281 C-9.72637959 0.69998031 -5.53510537 0.04159888 0 0 Z " fill="#38BDF8" transform="translate(1059.1923828125,207.8388671875)"/>
<path d="M0 0 C1.55719254 -0.01441132 1.55719254 -0.01441132 3.14584351 -0.02911377 C4.257388 -0.03336365 5.3689325 -0.03761353 6.51416016 -0.04199219 C7.66687408 -0.04769226 8.81958801 -0.05339233 10.00723267 -0.05926514 C12.44312628 -0.06870028 14.87903257 -0.07524321 17.31494141 -0.07910156 C21.03261633 -0.08881336 24.74973973 -0.11985422 28.46728516 -0.15136719 C30.83707355 -0.15789713 33.20686588 -0.16314764 35.57666016 -0.16699219 C37.23790421 -0.18551239 37.23790421 -0.18551239 38.93270874 -0.20440674 C46.54234868 -0.18254101 51.50986563 0.28628055 57.33099365 5.56816101 C60.89987458 10.03041219 60.35864448 15.02756023 60.29003906 20.50317383 C60.29570389 21.63718628 60.30136871 22.77119873 60.3072052 23.9395752 C60.32069151 27.68173423 60.29977317 31.42292254 60.27978516 35.16503906 C60.28528467 37.76766117 60.29340865 40.37027895 60.30404663 42.97288513 C60.32850056 49.82148719 60.32275377 56.66981221 60.3102417 63.51843262 C60.29045721 74.48405609 60.30183886 85.44950089 60.33610153 96.41508293 C60.34221629 100.24688171 60.32893223 104.07828196 60.31411743 107.91004944 C60.31706486 110.25619612 60.32071921 112.60234206 60.32519531 114.94848633 C60.315905 116.01512009 60.30661469 117.08175385 60.29704285 118.18070984 C60.22812358 125.21852908 60.22812358 125.21852908 63.67822266 131.16113281 C67.02434863 132.40714491 67.02434863 132.40714491 70.67822266 132.16113281 C73.56298958 130.67506869 73.56298958 130.67506869 76.05322266 128.28613281 C76.99552734 127.45597656 77.93783203 126.62582031 78.90869141 125.77050781 C82.20522391 122.66460695 85.42501097 119.4999903 88.58837891 116.25878906 C91.03848774 113.79952094 93.62329114 111.55701405 96.25634766 109.29785156 C99.58522201 106.36092532 102.81531678 103.3226704 106.05322266 100.28613281 C111.0430381 95.60909898 116.06819604 90.9818343 121.16650391 86.42285156 C125.81999315 82.2325401 130.40509908 77.96767113 135.00048828 73.71386719 C143.3781328 65.96040108 151.77526891 58.22847622 160.19433594 50.52001953 C162.68986672 48.23470786 165.18396793 45.94783701 167.67822266 43.66113281 C168.6782159 42.74445878 169.6782159 41.82779211 170.67822266 40.91113281 C171.42072266 40.23050781 171.42072266 40.23050781 172.17822266 39.53613281 C177.67822266 34.49446615 183.17822266 29.45279948 188.67822266 24.41113281 C189.17370605 23.95681885 189.66918945 23.50250488 190.1796875 23.03442383 C191.17431793 22.12292234 192.16943108 21.21194731 193.16503906 20.30151367 C195.75151313 17.93502978 198.32758741 15.5584747 200.88916016 13.16503906 C201.41896484 12.67261719 201.94876953 12.18019531 202.49462891 11.67285156 C203.96203836 10.30841821 205.42572486 8.93998406 206.88916016 7.57128906 C213.70887855 1.67805902 217.9747765 0.04206944 226.84594727 0.01586914 C227.91742256 0.01083122 227.91742256 0.01083122 229.01054382 0.00569153 C231.3672358 -0.00379214 233.72385655 -0.0057602 236.08056641 -0.00683594 C237.7219699 -0.01005001 239.36337311 -0.01341419 241.004776 -0.016922 C244.44370183 -0.02290658 247.88260254 -0.02476256 251.3215332 -0.02416992 C255.72429149 -0.02406827 260.12688864 -0.03772685 264.52960873 -0.05494213 C267.91912066 -0.06606903 271.3085937 -0.06808893 274.69812202 -0.0675602 C276.32119872 -0.06873902 277.94427645 -0.07315535 279.56733513 -0.08089256 C281.83870569 -0.09070765 284.10972714 -0.08780868 286.38110352 -0.08178711 C288.31825478 -0.08392464 288.31825478 -0.08392464 290.29454041 -0.08610535 C294.47860765 0.21961517 297.3999901 0.97105422 300.49072266 3.84863281 C302.27725872 7.32767672 302.32453679 9.28324804 301.67822266 13.16113281 C296.42519152 20.97157649 288.42175122 27.56889848 281.7722168 34.19750977 C279.74559286 36.21877549 277.72436718 38.24532855 275.70361328 40.27246094 C274.39468896 41.58072435 273.08545441 42.88867748 271.77587891 44.19628906 C271.18291519 44.79127701 270.58995148 45.38626495 269.97901917 45.99928284 C267.04527355 48.91701313 264.06447345 51.72038634 260.92211914 54.4128418 C256.11751457 58.57157096 251.65900203 63.06725211 247.1875 67.57669067 C245.64129526 69.13587008 244.09180369 70.69171902 242.54150391 72.24682617 C239.25089283 75.54876417 235.96425304 78.85463697 232.67822266 82.16113281 C228.86485761 85.99824757 225.04980117 89.83364956 221.23046875 93.66482544 C219.71746214 95.18422747 218.20754296 96.70664984 216.69775391 98.22924805 C212.08844337 102.86292078 207.42370238 107.3627092 202.459198 111.6161499 C199.69025877 114.01818416 197.07374979 116.56570415 194.46337891 119.13769531 C193.6515641 119.9374025 193.6515641 119.9374025 192.823349 120.75326538 C191.69697222 121.86597311 190.57202193 122.98012665 189.44848633 124.09570312 C188.30184808 125.23070288 187.15072732 126.36119051 185.99536133 127.48730469 C184.3081862 129.131938 182.63454191 130.78931266 180.96337891 132.45019531 C180.18849876 133.19881332 180.18849876 133.19881332 179.39796448 133.96255493 C176.50185721 136.8765138 174.80714336 138.98010855 174.67822266 143.16113281 C177.25018412 148.6798642 180.91269032 153.14015731 184.80322266 157.78613281 C185.97123168 159.20169294 187.13788366 160.61837381 188.30322266 162.03613281 C189.16367188 163.08220703 189.16367188 163.08220703 190.04150391 164.14941406 C192.35025399 166.98713791 194.5857634 169.87681546 196.80322266 172.78613281 C201.574405 179.03722955 206.42407467 185.22309629 211.29150391 191.39941406 C212.66239948 193.14103069 214.03022256 194.88501166 215.39697266 196.62988281 C220.12633552 202.66553976 224.88154546 208.67879483 229.67822266 214.66113281 C234.93456909 221.21676282 240.13764326 227.81251777 245.31933594 234.42724609 C247.60275569 237.34080108 249.89073068 240.25077474 252.17822266 243.16113281 C253.09491088 244.32778254 254.01157756 245.4944492 254.92822266 246.66113281 C255.38197266 247.23863281 255.83572266 247.81613281 256.30322266 248.41113281 C260.42822266 253.66113281 260.42822266 253.66113281 261.80297852 255.41088867 C262.72037274 256.57843691 263.63785332 257.7459173 264.55541992 258.91333008 C266.8366651 261.81596072 269.1164348 264.71972555 271.39306641 267.62597656 C275.58854771 272.97849412 279.7971678 278.31836294 284.06005859 283.61743164 C289.48411906 290.36025894 294.79969024 297.17430709 300.00463867 304.08813477 C302.41236955 307.27167782 304.82995643 310.39411262 307.49853516 313.36425781 C314.21778296 320.90498105 314.21778296 320.90498105 314.42822266 326.09863281 C314.0449692 329.4992468 313.3053873 331.82587535 310.67822266 334.16113281 C307.14623925 335.33846061 303.94819561 335.31647178 300.27270508 335.32226562 C299.52112625 335.32723053 298.76954742 335.33219543 297.99519348 335.33731079 C295.50801681 335.35191906 293.02090394 335.35873246 290.53369141 335.36425781 C288.80357359 335.37001072 287.07345579 335.37576844 285.34333801 335.38153076 C281.71432193 335.39203719 278.08532798 335.39788208 274.45629883 335.40136719 C269.8125326 335.40684871 265.16906005 335.43087086 260.52538586 335.45933914 C256.95053765 335.4779897 253.37575982 335.48317243 249.80086708 335.48470306 C248.08929147 335.48772507 246.37771696 335.49573834 244.66618919 335.50888824 C242.26787546 335.52599826 239.87027432 335.52405657 237.47192383 335.51757812 C236.76885101 335.52679291 236.0657782 335.53600769 235.34140015 335.54550171 C229.2403815 335.49403752 225.33575366 333.84351435 221.07275391 329.51660156 C220.20098845 328.46974721 219.34080127 327.4131728 218.49072266 326.34863281 C218.01932861 325.77532227 217.54793457 325.20201172 217.06225586 324.61132812 C213.3101506 320.02230585 209.65524053 315.3538525 206.01538086 310.67553711 C202.31871094 305.93456606 198.51376728 301.29018463 194.67822266 296.66113281 C189.9851678 290.99524349 185.38033115 285.27541465 180.86181641 279.46972656 C177.21337136 274.80014237 173.45807552 270.22473201 169.67822266 265.66113281 C164.86772276 259.85299155 160.14528106 253.9889134 155.50585938 248.04345703 C152.10306804 243.68672936 148.62701322 239.3959567 145.11572266 235.12597656 C142.16863111 231.5412931 139.23320926 227.94730453 136.30322266 224.34863281 C135.75303467 223.67372803 135.20284668 222.99882324 134.63598633 222.3034668 C131.90193834 218.93913234 129.19548244 215.55783361 126.54150391 212.12988281 C126.04763184 211.49284424 125.55375977 210.85580566 125.04492188 210.19946289 C124.11859042 208.99985258 123.19674381 207.7967603 122.28027344 206.58959961 C119.02471704 202.23646926 119.02471704 202.23646926 114.67822266 199.16113281 C110.15577714 199.04887353 107.50835185 199.98919856 104.17041016 202.89941406 C102.95059454 204.0763939 101.74545839 205.26872384 100.55322266 206.47363281 C99.23078926 207.75928634 97.90786403 209.04443415 96.58447266 210.32910156 C95.92833984 210.97540527 95.27220703 211.62170898 94.59619141 212.28759766 C91.80404378 215.01505958 88.93282968 217.65171132 86.05322266 220.28613281 C84.99822338 221.25845088 83.94353576 222.23110722 82.88916016 223.20410156 C80.645921 225.2708984 78.40064602 227.3354667 76.15478516 229.39941406 C75.57293457 229.9348584 74.99108398 230.47030273 74.39160156 231.02197266 C73.28796154 232.03754793 72.18353027 233.05226437 71.078125 234.06591797 C64.75830874 239.3350733 64.75830874 239.3350733 60.67822266 246.16113281 C60.57894791 248.69967054 60.53453281 251.21154675 60.53637695 253.75024414 C60.53116531 254.90687309 60.53116531 254.90687309 60.52584839 256.08686829 C60.51849739 257.76143994 60.51314851 259.4360213 60.50955772 261.11060524 C60.50238734 263.76316334 60.48671632 266.41553699 60.46821594 269.06803894 C60.41577454 276.60986803 60.36777596 284.15159603 60.35229492 291.69360352 C60.3422037 296.30732644 60.31285061 300.92058504 60.27097511 305.53412437 C60.25867658 307.29030531 60.25354176 309.04655185 60.25577354 310.80277443 C60.25813117 313.26363146 60.23592673 315.72316059 60.20825195 318.18383789 C60.21815407 319.26649933 60.21815407 319.26649933 60.22825623 320.37103271 C60.13542104 325.41236566 58.82992578 328.26880703 55.67822266 332.16113281 C50.095488 336.40026991 43.31355692 335.61085799 36.61572266 335.59472656 C35.35107178 335.59996841 34.0864209 335.60521027 32.78344727 335.61061096 C30.11361384 335.61702527 27.44463813 335.61714737 24.77490234 335.60717773 C21.365185 335.5956811 17.95650228 335.61592065 14.54692078 335.64509487 C11.27818328 335.6679191 8.00952113 335.66098796 4.74072266 335.65722656 C3.5218335 335.66846054 2.30294434 335.67969452 1.04711914 335.69126892 C-9.71026976 335.60285476 -9.71026976 335.60285476 -14.32177734 331.16113281 C-19.4023089 325.51017854 -18.88170699 319.89717431 -18.82298279 312.55932617 C-18.83128438 310.63463328 -18.83128438 310.63463328 -18.83975369 308.6710577 C-18.85450196 305.11595082 -18.84433119 301.56128716 -18.83001697 298.00619459 C-18.81890736 294.16972653 -18.83084973 290.33332064 -18.83985901 286.49685669 C-18.85379358 278.98379442 -18.84623372 271.4709002 -18.83118343 263.95784593 C-18.81432482 255.20913433 -18.81753341 246.46046462 -18.82127751 237.71174181 C-18.82715649 222.10206473 -18.81298304 206.49246832 -18.78833008 190.8828125 C-18.7644092 175.73499528 -18.75732577 160.58728584 -18.76782227 145.43945312 C-18.77923097 128.94561516 -18.78116212 112.45182705 -18.76672417 95.95798969 C-18.76519833 94.19929823 -18.76367797 92.44060676 -18.76216316 90.68191528 C-18.76140535 89.81659886 -18.76064753 88.95128243 -18.75986676 88.0597443 C-18.75512356 81.96103579 -18.75697562 75.86234953 -18.76122856 69.76364136 C-18.7661547 62.33163497 -18.7601732 54.89973049 -18.74033426 47.46774745 C-18.73046104 43.67561451 -18.72535743 39.88363674 -18.73322678 36.09149551 C-18.74158057 31.98182962 -18.72670634 27.87257754 -18.7094574 23.76293945 C-18.71546744 22.56275146 -18.72147749 21.36256346 -18.72766966 20.12600613 C-18.65004933 9.99085148 -18.65004933 9.99085148 -15.32177734 5.16113281 C-10.60309019 0.56662164 -6.3868358 0.04795803 0 0 Z " fill="#38BDF8" transform="translate(3077.32177734375,207.8388671875)"/>
<path d="M0 0 C1.23286369 -0.00382555 2.46572739 -0.00765109 3.73595059 -0.01159257 C7.14610905 -0.02011063 10.5560513 -0.01969473 13.96620345 -0.01541197 C17.64864337 -0.01294194 21.33105811 -0.02196236 25.01348877 -0.02944946 C32.2232358 -0.04219087 39.43294558 -0.04399085 46.64270197 -0.0416492 C52.50392309 -0.03986523 58.36513292 -0.04161738 64.22635269 -0.04587364 C65.06096485 -0.04646883 65.89557701 -0.04706402 66.75548045 -0.04767724 C68.45107213 -0.04888901 70.14666381 -0.05010315 71.84225549 -0.05131962 C87.73931719 -0.06219304 103.63635768 -0.06003362 119.53342058 -0.05393478 C134.07014022 -0.04876599 148.60679285 -0.0600204 163.14349924 -0.07903299 C178.07688453 -0.09841438 193.01023811 -0.10666685 207.94363606 -0.10290974 C216.32474989 -0.10099813 224.70580669 -0.10348136 233.08691025 -0.11762428 C240.22198697 -0.12954289 247.35697155 -0.13093761 254.49204956 -0.11883412 C258.13065186 -0.11294874 261.76908566 -0.11183643 265.4076767 -0.12383652 C269.35634043 -0.13670762 273.30474936 -0.12622266 277.25341797 -0.11352539 C278.96953193 -0.12458682 278.96953193 -0.12458682 280.72031486 -0.13587171 C288.2510266 -0.08494171 295.69143339 0.19843717 301.25369263 5.76069641 C303.40404776 9.34462163 303.88457764 12.05584532 303.93069458 16.15596008 C303.94352982 17.15097031 303.95636505 18.14598053 303.96958923 19.17114258 C303.98066963 20.78361626 303.98066963 20.78361626 303.99197388 22.42866516 C304.00004562 23.53744522 304.00811737 24.64622528 304.01643372 25.78860474 C304.03027213 28.13809141 304.04099537 30.48759816 304.04885864 32.83711243 C304.06604216 36.41685016 304.10992853 39.99565735 304.15408325 43.57514954 C304.16421298 45.85964796 304.1727282 48.14415423 304.17947388 50.42866516 C304.19698196 51.49352646 304.21449005 52.55838776 304.23252869 53.65551758 C304.21473523 59.80307919 303.8162962 65.35838174 299.75369263 70.26069641 C295.11678766 74.19461309 290.13867664 73.68157913 284.36721802 73.64546204 C282.80050102 73.65352119 282.80050102 73.65352119 281.20213318 73.66174316 C278.93719901 73.67151709 276.67222741 73.67446649 274.40727425 73.67138672 C270.82191719 73.66690966 267.23705394 73.68090638 263.65174866 73.69978333 C256.0399047 73.73657095 248.4281124 73.75027683 240.81619263 73.76069641 C231.99865237 73.77277238 223.18135246 73.79429795 214.36392021 73.84069824 C210.83302777 73.85427652 207.3024385 73.85009596 203.77153015 73.84529114 C201.60420342 73.85463195 199.43688005 73.86480082 197.26956177 73.87593079 C196.28910889 73.86978256 195.30865601 73.86363434 194.29849243 73.8572998 C189.07989735 73.90435269 185.19617857 74.18831821 180.75369263 77.26069641 C179.83804376 80.007643 179.62807336 81.60958659 179.62620068 84.43654251 C179.62319303 85.29163068 179.62018538 86.14671885 179.61708659 87.02771878 C179.61971215 88.43737224 179.61971215 88.43737224 179.62239075 89.87550354 C179.62027503 90.87359818 179.61815932 91.87169282 179.61597949 92.90003276 C179.60996563 96.26017372 179.61098063 99.62027727 179.61184692 102.98042297 C179.60881635 105.38327092 179.60529517 107.78611828 179.60131836 110.18896484 C179.59342115 115.37162011 179.58826084 120.55427094 179.58502769 125.73693085 C179.57953097 133.93031892 179.56263308 142.12366537 179.54368591 150.31703186 C179.53732905 153.12022774 179.53102062 155.92342374 179.52470875 158.72661972 C179.52312499 159.42719534 179.52154122 160.12777095 179.51990947 160.84957613 C179.5019703 168.82564318 179.48574547 176.80171317 179.47073364 184.77778625 C179.46935777 185.5069542 179.4679819 186.23612214 179.46656433 186.98738608 C179.44464082 198.80004148 179.43387972 210.61268617 179.42636289 222.42535833 C179.41828931 234.55395828 179.39499074 246.68246641 179.35840923 258.81101394 C179.33639311 266.29130353 179.32671681 273.77140428 179.33290956 281.25172463 C179.33646202 286.9863958 179.31920854 292.72085821 179.29423141 298.45546913 C179.28730529 300.80685486 179.28720826 303.15827208 179.29443169 305.50965691 C179.30329644 308.71945446 179.28766351 311.92823945 179.26594543 315.13795471 C179.27860924 316.53422384 179.27860924 316.53422384 179.29152888 317.95870042 C179.21728929 323.89134175 178.2396057 327.41188527 174.75369263 332.26069641 C170.69612853 334.96501265 167.48592053 335.63954337 162.65994263 335.66474915 C161.47851685 335.67743332 160.29709106 335.69011749 159.0798645 335.70318604 C157.81722778 335.7002504 156.55459106 335.69731476 155.25369263 335.69429016 C153.29012817 335.70215294 153.29012817 335.70215294 151.28689575 335.71017456 C148.52312543 335.71908275 145.75964444 335.71670847 142.99588013 335.70674133 C139.46510784 335.69524475 135.9353347 335.71548354 132.4046936 335.74465847 C129.02097451 335.76747822 125.63748673 335.76055184 122.25369263 335.75679016 C120.99105591 335.76802414 119.72841919 335.77925812 118.42752075 335.79083252 C107.31355514 335.70258359 107.31355514 335.70258359 102.75369263 331.26069641 C98.30154559 325.967841 98.18575206 321.83338387 98.25489807 315.22697449 C98.24951352 314.22011632 98.24412896 313.21325815 98.23858124 312.17588913 C98.22531267 308.80400785 98.24045557 305.4328548 98.25540161 302.06098938 C98.25157859 299.64297654 98.2459597 297.22496596 98.23867798 294.80696106 C98.22672291 289.60138469 98.22674224 284.3959534 98.23727226 279.1903801 C98.25222245 271.65968751 98.24228977 264.12918311 98.22575308 256.59850122 C98.19930524 244.37407814 98.18843273 232.14969733 98.18948364 219.92524719 C98.18957113 218.82837372 98.18957113 218.82837372 98.18966038 217.70934118 C98.18992624 214.74621177 98.19024353 211.78308236 98.19062364 208.81995296 C98.19159039 200.65843588 98.19026125 192.49692009 98.18753052 184.33540344 C98.18729063 183.60444048 98.18705073 182.87347753 98.18680357 182.12036417 C98.18239921 169.93860042 98.16617621 157.75687595 98.14230973 145.57513535 C98.12822975 138.06162987 98.12536734 130.54827352 98.13693262 123.03476287 C98.14511076 117.28251414 98.13841522 111.53036012 98.12624359 105.77812195 C98.12382975 103.41578751 98.12659974 101.05344141 98.13485146 98.69112015 C98.14541964 95.47404226 98.13776157 92.25751081 98.12550354 89.04045105 C98.13307959 88.09902185 98.14065565 87.15759266 98.14846128 86.1876353 C98.11599578 81.27372284 98.11599578 81.27372284 96.48045444 76.71196175 C93.33621498 74.06937045 90.18115902 74.13558794 86.20622253 74.12266541 C85.29922104 74.11721207 84.39221954 74.11175873 83.45773315 74.10614014 C82.47008972 74.10509781 81.48244629 74.10405548 80.46487427 74.10298157 C79.418936 74.09790085 78.37299774 74.09282013 77.29536438 74.08758545 C75.02439778 74.07688698 72.75342067 74.06826475 70.48243904 74.06146622 C66.88916127 74.04967792 63.29600372 74.03022612 59.70277405 74.00834656 C49.48647041 73.94672054 39.27017978 73.89264107 29.05374146 73.85932922 C22.80503944 73.83840542 16.55655776 73.80312292 10.30798149 73.75857162 C7.92576118 73.74439608 5.54350191 73.7356857 3.16124153 73.73251724 C-0.16877245 73.72761849 -3.49819942 73.70448732 -6.82809448 73.67720032 C-7.81371368 73.68020645 -8.79933289 73.68321259 -9.81481934 73.68630981 C-14.74822678 73.62615929 -18.28466707 73.55083197 -22.24630737 70.26069641 C-25.46166227 65.78216638 -26.36234052 61.94557229 -26.40744019 56.51142883 C-26.41704773 55.5733287 -26.42665527 54.63522858 -26.43655396 53.66870117 C-26.44080383 52.66136429 -26.44505371 51.6540274 -26.44943237 50.61616516 C-26.45513245 49.57301651 -26.46083252 48.52986786 -26.46670532 47.45510864 C-26.47614612 45.24863191 -26.48268565 43.04214114 -26.48654175 40.83564758 C-26.496241 37.47121911 -26.52727105 34.10740329 -26.55880737 30.74311829 C-26.56533848 28.59663753 -26.57058853 26.45015241 -26.57443237 24.30366516 C-26.59295258 22.80176888 -26.59295258 22.80176888 -26.61184692 21.26953125 C-26.59006822 14.39319871 -25.7387566 9.55429003 -21.49630737 3.94819641 C-15.23541795 -0.74747066 -7.45716782 -0.02453821 0 0 Z " fill="#38BDF8" transform="translate(2324.246307373047,207.7393035888672)"/>
<path d="M0 0 C1.04365723 0.07371826 2.08731445 0.14743652 3.16259766 0.22338867 C10.05317591 0.82021481 16.51503013 1.55095187 21.96484375 6.1875 C22.51269531 6.868125 23.06054688 7.54875 23.625 8.25 C24.19089844 8.930625 24.75679687 9.61125 25.33984375 10.3125 C27.63327651 13.60972506 27.82845998 16.44369653 27.89624023 20.34472656 C27.91553085 21.38300598 27.93482147 22.4212854 27.95469666 23.49102783 C28.01251619 28.23926236 28.0617111 32.98734708 28.0925293 37.73583984 C28.11411587 40.23825881 28.14822589 42.74060215 28.19506836 45.24267578 C28.26206615 48.85483446 28.28952953 52.46543261 28.30859375 56.078125 C28.33642441 57.19189514 28.36425507 58.30566528 28.39292908 59.45318604 C28.37934675 64.59770639 28.26251442 68.27885645 24.96118164 72.38574219 C20.96985328 76.221531 17.78805368 77.34269681 12.29052734 77.35351562 C10.53448347 77.29779964 8.77875827 77.23137212 7.0234375 77.15625 C5.07552259 77.09499625 3.12760586 77.03380033 1.1796875 76.97265625 C-1.85627635 76.86433306 -4.89203535 76.75172979 -7.92773438 76.63623047 C-34.59252689 75.65629495 -63.99314041 76.51997933 -84.8125 95.625 C-86.70526365 97.45475512 -88.50504567 99.33177492 -90.3125 101.25 C-91.06144531 102.04148437 -91.81039063 102.83296875 -92.58203125 103.6484375 C-110.52264347 124.29900835 -112.46457557 153.61861902 -112.4543457 179.66357422 C-112.45738437 181.28120518 -112.46090775 182.89883528 -112.46487427 184.51646423 C-112.47270463 187.97520921 -112.47788558 191.43394416 -112.48116493 194.89269638 C-112.48711821 200.36454106 -112.50369496 205.83632222 -112.52250671 211.30813599 C-112.52884205 213.18717 -112.53516769 215.06620404 -112.54148388 216.94523811 C-112.54464969 217.88547144 -112.5478155 218.82570477 -112.55107725 219.79443002 C-112.59305967 232.5165885 -112.62617105 245.23871419 -112.63842773 257.9609375 C-112.64680488 266.56839729 -112.66927061 275.17569618 -112.7077834 283.78307545 C-112.72753217 288.33047374 -112.73995196 292.87763161 -112.73494911 297.42507553 C-112.73030709 301.69511241 -112.74408321 305.96469169 -112.77196121 310.23463631 C-112.77887669 311.79951666 -112.77899568 313.36444429 -112.77176094 314.9293232 C-112.76287031 317.06848731 -112.77856572 319.20614258 -112.80024719 321.34518433 C-112.80263555 322.54083448 -112.8050239 323.73648464 -112.80748463 324.96836662 C-113.5678292 329.90915111 -115.7952899 333.09793707 -119.74609375 336.09790039 C-125.24986831 337.87585166 -130.62615749 337.69743957 -136.375 337.68359375 C-137.63965088 337.6888356 -138.90430176 337.69407745 -140.20727539 337.69947815 C-142.87710881 337.70589245 -145.54608453 337.70601456 -148.21582031 337.69604492 C-151.62553765 337.68454829 -155.03422038 337.70478784 -158.44380188 337.73396206 C-161.71253938 337.75678629 -164.98120152 337.74985515 -168.25 337.74609375 C-169.46888916 337.75732773 -170.68777832 337.76856171 -171.94360352 337.78013611 C-182.70099241 337.69172194 -182.70099241 337.69172194 -187.3125 333.25 C-192.39303156 327.59904573 -191.87242964 321.9860415 -191.81370544 314.64819336 C-191.82200704 312.72350047 -191.82200704 312.72350047 -191.83047634 310.75992489 C-191.84522461 307.20481801 -191.83505385 303.65015435 -191.82073963 300.09506178 C-191.80963001 296.25859371 -191.82157239 292.42218782 -191.83058167 288.58572388 C-191.84451624 281.0726616 -191.83695638 273.55976738 -191.82190608 266.04671311 C-191.80504748 257.29800152 -191.80825606 248.54933181 -191.81200016 239.80060899 C-191.81787914 224.19093192 -191.80370569 208.58133551 -191.77905273 192.97167969 C-191.75513185 177.82386247 -191.74804843 162.67615302 -191.75854492 147.52832031 C-191.76995363 131.03448235 -191.77188477 114.54069424 -191.75744683 98.04685688 C-191.75592098 96.28816542 -191.75440063 94.52947395 -191.75288582 92.77078247 C-191.752128 91.90546605 -191.75137019 91.04014962 -191.75058941 90.14861149 C-191.74584622 84.04990297 -191.74769827 77.95121672 -191.75195122 71.85250854 C-191.75687736 64.42050216 -191.75089586 56.98859768 -191.73105692 49.55661464 C-191.72118369 45.76448169 -191.71608008 41.97250393 -191.72394943 38.1803627 C-191.73230323 34.07069681 -191.717429 29.96144473 -191.70018005 25.85180664 C-191.7061901 24.65161864 -191.71220014 23.45143064 -191.71839231 22.21487331 C-191.63997971 11.9762681 -191.63997971 11.9762681 -188.3125 7.25 C-183.33942817 3.33502856 -179.60225482 2.13842059 -173.39550781 2.08886719 C-171.9331369 2.07445587 -171.9331369 2.07445587 -170.44122314 2.05975342 C-169.39327576 2.05550354 -168.34532837 2.05125366 -167.265625 2.046875 C-165.6378714 2.03832489 -165.6378714 2.03832489 -163.97723389 2.02960205 C-161.68079603 2.02015916 -159.38434466 2.01362089 -157.08789062 2.00976562 C-153.58960056 2.00007507 -150.09190186 1.96905041 -146.59375 1.9375 C-144.35937848 1.93096804 -142.12500276 1.92571833 -139.890625 1.921875 C-138.85077454 1.9095282 -137.81092407 1.8971814 -136.73956299 1.88446045 C-130.55186382 1.90326498 -125.92298926 2.57339234 -120.3125 5.25 C-116.44516619 9.21649622 -115.23882285 12.47390189 -114.99609375 17.91796875 C-114.95419922 18.81064453 -114.91230469 19.70332031 -114.86914062 20.62304688 C-114.82982422 21.55181641 -114.79050781 22.48058594 -114.75 23.4375 C-114.70681641 24.37787109 -114.66363281 25.31824219 -114.61914062 26.28710938 C-114.51311335 28.60792854 -114.41104971 30.92885325 -114.3125 33.25 C-113.60867188 32.6209375 -112.90484375 31.991875 -112.1796875 31.34375 C-81.4885765 4.7394449 -39.59589936 -2.9146255 0 0 Z " fill="#38BDF8" transform="translate(1717.3125,205.75)"/>
<path d="M0 0 C1.49713028 -0.00956978 1.49713028 -0.00956978 3.02450562 -0.01933289 C4.62620102 -0.02100212 4.62620102 -0.02100212 6.26025391 -0.02270508 C7.92273666 -0.02769768 7.92273666 -0.02769768 9.61880493 -0.03279114 C11.96054673 -0.03784781 14.30229572 -0.04019985 16.64404297 -0.04003906 C20.21675554 -0.04222406 23.78915849 -0.06038935 27.36181641 -0.0793457 C29.64046119 -0.08228022 31.91910743 -0.08426462 34.19775391 -0.08520508 C35.79337662 -0.09598335 35.79337662 -0.09598335 37.42123413 -0.10697937 C50.12513903 -0.06806504 50.12513903 -0.06806504 54.82275391 3.73120117 C55.52271484 4.61678711 55.52271484 4.61678711 56.23681641 5.52026367 C56.71892578 6.10549805 57.20103516 6.69073242 57.69775391 7.29370117 C59.92602404 10.83799662 59.98775169 14.33059476 59.99324417 18.44087601 C59.99708532 19.52027584 60.00092646 20.59967568 60.004884 21.7117846 C60.00401752 22.8969793 60.00315104 24.082174 60.0022583 25.30328369 C60.00522942 26.56287454 60.00820055 27.8224654 60.0112617 29.12022567 C60.01932925 32.61883375 60.02112114 36.11742132 60.02185917 39.61603761 C60.02371015 43.38848562 60.03125771 47.160923 60.03799438 50.93336487 C60.05157645 59.18340057 60.05760222 67.43343142 60.06200504 75.68347645 C60.06476766 80.83482021 60.06900505 85.98616209 60.07350922 91.13750458 C60.08570168 105.40002957 60.09600106 119.66255307 60.09938431 133.92508316 C60.09971366 135.2943415 60.09971366 135.2943415 60.10004966 136.69126163 C60.10037708 138.06379591 60.10037708 138.06379591 60.10071111 139.46405816 C60.10115457 141.31824255 60.10160114 143.17242694 60.10205078 145.02661133 C60.10227221 145.9463508 60.10249364 146.86609028 60.10272178 147.81370065 C60.10666976 162.71664116 60.12412389 177.61953278 60.1474103 192.52245441 C60.17112503 207.82298953 60.18358621 223.12350011 60.18475223 238.42405391 C60.18566891 247.01477773 60.19141967 255.60543784 60.20957184 264.1961441 C60.22497445 271.51137647 60.23009234 278.82652543 60.22183374 286.14177093 C60.2179278 289.87339369 60.21885395 293.6048485 60.23289108 297.33645058 C60.24797804 301.38419131 60.23976187 305.43155382 60.22930908 309.47930908 C60.24139369 311.2437168 60.24139369 311.2437168 60.25372243 313.04376912 C60.21494971 319.45601513 59.68018188 324.34605484 56.86181641 330.14526367 C52.55558917 334.34383523 49.1790996 335.26463711 43.29223633 335.32226562 C42.15062546 335.33510086 41.00901459 335.3479361 39.83280945 335.36116028 C37.98124992 335.37224068 37.98124992 335.37224068 36.09228516 335.38354492 C34.82338943 335.39161667 33.55449371 335.39968842 32.24714661 335.40800476 C29.55966541 335.42184525 26.87230687 335.43286182 24.18481445 335.44042969 C20.75156701 335.45148603 17.31896914 335.48588236 13.88595104 335.52560139 C10.60062715 335.5581174 7.31524543 335.56255045 4.02978516 335.57104492 C2.18733467 335.59730705 2.18733467 335.59730705 0.30766296 335.62409973 C-6.12033273 335.60776225 -10.30350843 335.58310483 -15.13818359 331.14526367 C-18.56526715 327.24547894 -19.2627463 324.01526848 -19.27240467 318.90743637 C-19.27686251 317.8154773 -19.28132036 316.72351823 -19.28591329 315.5984695 C-19.28572893 314.39411604 -19.28554456 313.18976259 -19.28535461 311.94891357 C-19.29086965 310.03524927 -19.29086965 310.03524927 -19.29649609 308.08292508 C-19.30651988 304.53452325 -19.31023349 300.98613834 -19.3128854 297.43772435 C-19.3167873 293.61346927 -19.32636567 289.7892276 -19.33509827 285.96498108 C-19.35486524 276.72622543 -19.36492888 267.48746867 -19.37382606 258.24869716 C-19.37820831 253.89920853 -19.38357526 249.54972112 -19.38881493 245.20023346 C-19.40582694 230.74387744 -19.42032171 216.28752218 -19.42756367 201.83115768 C-19.42947359 198.0792516 -19.43139392 194.32734552 -19.43334961 190.57543945 C-19.43407522 189.17664483 -19.43407522 189.17664483 -19.43481549 187.74959174 C-19.44311804 172.63896794 -19.46845886 157.52842326 -19.50093029 142.41783401 C-19.53398769 126.90828344 -19.55201121 111.39877309 -19.55520791 95.8891871 C-19.55737416 87.17940888 -19.56613966 78.46974605 -19.59166908 69.76000214 C-19.61335802 62.34332602 -19.62143541 54.9267933 -19.6117023 47.51008907 C-19.6071524 43.72589096 -19.60908353 39.94198885 -19.62846375 36.15783119 C-19.64929529 32.05486118 -19.639127 27.95254981 -19.62593079 23.84954834 C-19.63690003 22.65411777 -19.64786928 21.45868721 -19.65917093 20.22703147 C-19.6079618 13.64817809 -19.13488058 9.46293602 -15.13818359 4.14526367 C-10.4797291 0.56183714 -5.7468001 0.0250696 0 0 Z " fill="#38BDF8" transform="translate(783.13818359375,207.854736328125)"/>
<path d="M0 0 C1.0181076 -0.00637985 2.03621521 -0.0127597 3.08517456 -0.01933289 C4.17484528 -0.02044571 5.26451599 -0.02155853 6.38720703 -0.02270508 C7.51772491 -0.02603348 8.6482428 -0.02936188 9.8130188 -0.03279114 C12.20183913 -0.03784823 14.59066651 -0.04019984 16.97949219 -0.04003906 C20.62463072 -0.04222411 24.26946582 -0.06038909 27.91455078 -0.0793457 C30.2387685 -0.08228019 32.56298765 -0.08426462 34.88720703 -0.08520508 C35.97282928 -0.09239059 37.05845154 -0.09957611 38.17697144 -0.10697937 C51.08739133 -0.06820534 51.08739133 -0.06820534 55.51220703 3.58276367 C58.65091829 7.91202058 59.89431281 10.0036686 59.90424061 15.30968857 C59.90869845 16.41072347 59.9131563 17.51175838 59.91774923 18.64615798 C59.91756486 19.86577924 59.9173805 21.0854005 59.91719055 22.34197998 C59.92086724 23.62985798 59.92454393 24.91773598 59.92833203 26.24464059 C59.93836873 29.83143708 59.9420715 33.41821684 59.94472134 37.00502539 C59.94861946 40.86881569 59.95819814 44.73259269 59.9669342 48.59637451 C59.98671267 57.93342995 59.99676662 67.2704865 60.00566199 76.60755765 C60.01004267 81.00200622 60.01541006 85.39645358 60.02065086 89.79090118 C60.0376646 104.39476649 60.05215943 118.99863103 60.0593996 133.60250473 C60.06130957 137.39377595 60.06322989 141.18504716 60.06518555 144.97631836 C60.06566929 145.91864776 60.06615303 146.86097716 60.06665143 147.831862 C60.07495414 163.10165444 60.10029448 178.3713686 60.13276622 193.64112684 C60.16581562 209.30997266 60.18384645 224.97877867 60.18704385 240.64765954 C60.18921092 249.44852313 60.19798838 258.24927257 60.22350502 267.05010223 C60.24518311 274.54441812 60.25327675 282.03859215 60.24353824 289.53293583 C60.23898508 293.3575072 60.2409383 297.1817857 60.26029968 301.00631714 C60.28110226 305.15128974 60.27097336 309.29560927 60.25776672 313.44061279 C60.26873597 314.65131117 60.27970522 315.86200954 60.29100686 317.10939574 C60.24239814 323.40558627 60.0997945 327.40796827 55.77001953 332.14526367 C50.19195023 336.37703741 43.43352785 335.59501361 36.74267578 335.57885742 C35.48039658 335.58409927 34.21811737 335.58934113 32.91758728 335.59474182 C30.25194961 335.60115656 27.58717079 335.60127785 24.92163086 335.59130859 C21.52097838 335.57982368 18.12136509 335.60003307 14.72084904 335.62922573 C11.45728683 335.65207907 8.1937992 335.64511707 4.93017578 335.64135742 C3.10958397 335.65820839 3.10958397 335.65820839 1.25221252 335.67539978 C-5.40047953 335.62071819 -9.98636564 335.4353315 -15.22998047 331.14526367 C-19.26447873 325.40005678 -18.65127983 319.24093236 -18.61766052 312.50549316 C-18.62304606 311.21828102 -18.6284316 309.93106887 -18.63398033 308.60485029 C-18.64843348 305.03842152 -18.64419074 301.47222387 -18.63681352 297.90578246 C-18.63208386 294.05704437 -18.64458983 290.20835643 -18.65483093 286.3596344 C-18.67202764 278.82254441 -18.67285723 271.28553775 -18.66761803 263.74843323 C-18.6635771 257.62304661 -18.66501897 251.49768463 -18.67036629 245.37229919 C-18.67111471 244.50060568 -18.67186313 243.62891217 -18.67263423 242.7308037 C-18.6741657 240.95999228 -18.67570405 239.18918087 -18.6772492 237.41836947 C-18.69097713 220.8122538 -18.68553426 204.20618525 -18.67406399 187.60007066 C-18.66412894 172.40488823 -18.67707643 157.20982753 -18.70099818 142.01466388 C-18.72537419 126.41348107 -18.73500089 110.81235498 -18.72834545 95.21115351 C-18.7248502 86.45172237 -18.72710559 77.69238489 -18.74459648 68.93296814 C-18.75929965 61.47716066 -18.75997856 54.0215128 -18.74252557 46.56570852 C-18.73399799 42.76137292 -18.73190861 38.95732269 -18.74717712 35.15300179 C-18.7635195 31.03011329 -18.74891234 26.90791675 -18.73118591 22.78503418 C-18.74079092 21.58095523 -18.75039593 20.37687629 -18.76029199 19.1363101 C-18.70439346 12.83970553 -18.51364556 8.90761924 -14.22998047 4.14526367 C-10.05450172 0.23917065 -5.53045402 0.0236451 0 0 Z " fill="#38BDF8" transform="translate(2800.22998046875,207.854736328125)"/>
</svg>
