<?xml version="1.0" encoding="UTF-8"?>
<svg version="1.1" xmlns="http://www.w3.org/2000/svg" width="2934" height="3133">
<path d="M0 0 C3.25625508 1.60588156 6.51862789 3.19866149 9.78222656 4.78955078 C22.63853317 11.09441312 35.14160064 17.89502435 47.54980469 25.03759766 C52.43396258 27.84226324 57.33894044 30.61001298 62.24316406 33.37939453 C63.20561035 33.92329834 64.16805664 34.46720215 65.15966797 35.02758789 C81.81699001 44.43523115 98.58833554 53.61968018 115.43066406 62.69189453 C116.5642334 63.30258789 117.69780273 63.91328125 118.86572266 64.54248047 C130.97485186 71.06058059 143.09900527 77.5451001 155.30566406 83.87939453 C163.48463454 88.12427458 171.59590705 92.47746034 179.67260742 96.91357422 C184.98710705 99.82765946 190.31864576 102.70690253 195.67285156 105.54736328 C196.29966324 105.87990616 196.92647491 106.21244904 197.57228088 106.55506897 C198.85657206 107.23627628 200.14087904 107.9174538 201.42520142 108.59860229 C212.06267635 114.24205952 222.61994537 119.99335334 233.07958984 125.96240234 C240.92633647 130.43317469 248.85348697 134.74418081 256.80322266 139.02856445 C262.70230449 142.20925306 268.58019746 145.42269242 274.43066406 148.69189453 C282.34066483 153.10876975 290.30093846 157.42965304 298.27099609 161.73706055 C304.95834344 165.35131442 311.63570379 168.98316579 318.30566406 172.62939453 C326.33090009 177.01433231 334.37594058 181.36137895 342.43066406 185.69189453 C371.79089613 201.4823979 400.95428295 217.62919705 430.08789062 233.83300781 C435.70112545 236.95447801 441.31596127 240.07306584 446.93066406 243.19189453 C453.65800981 246.9287689 460.38504606 250.66619303 467.11035156 254.40673828 C481.69713647 262.51820075 496.30163631 270.596853 510.91920471 278.65264893 C515.23609781 281.03213676 519.5506245 283.41587825 523.86425781 285.80126953 C526.32374052 287.16092098 528.78338301 288.5202829 531.24316406 289.87939453 C532.14917358 290.38001404 532.14917358 290.38001404 533.07348633 290.89074707 C542.27263372 295.97156389 551.50632665 300.98596115 560.75830078 305.9699707 C567.51408451 309.62139438 574.19969691 313.38378432 580.86816406 317.19189453 C589.85751759 322.31831602 598.97253668 327.15297133 608.17138672 331.89160156 C615.81357136 335.83293597 623.37859542 339.89620324 630.91577148 344.03417969 C637.75795925 347.78786717 644.62683503 351.48982452 651.50927734 355.16906738 C669.69388723 364.89034531 687.86443447 374.61904122 705.78735352 384.81738281 C713.61938967 389.26286337 721.52862155 393.55433957 729.45898438 397.82128906 C736.24976574 401.484708 742.97796988 405.24502449 749.68066406 409.06689453 C759.98354544 414.93451873 770.41476475 420.54812596 780.87689209 426.1242218 C788.34589627 430.10520335 795.78311151 434.14087478 803.20654297 438.20605469 C809.13826295 441.45089511 815.08914225 444.65812112 821.04907227 447.85083008 C831.52323579 453.46350248 841.91538028 459.19357327 852.23901367 465.07836914 C858.08061495 468.39694221 863.96797434 471.59665701 869.93066406 474.69189453 C877.90227315 478.8302214 885.7172038 483.21285439 893.52124023 487.65795898 C901.55769442 492.22508399 909.66788459 496.644466 917.80493164 501.02929688 C923.6627026 504.18748247 929.49781793 507.38039468 935.30566406 510.62939453 C945.82054544 516.50277723 956.43996358 522.18167355 967.05175781 527.87744141 C972.51404933 530.81066038 977.97221876 533.75152622 983.43066406 536.69189453 C989.97644048 540.21737827 996.5227577 543.74184269 1003.07128906 547.26220703 C1014.14726487 553.21809469 1025.21265731 559.19189551 1036.24633789 565.22583008 C1040.93230106 567.78755784 1045.62357056 570.33869429 1050.32519531 572.87158203 C1063.16457031 579.79037616 1075.90491843 586.86154793 1088.58056641 594.07568359 C1091.41709329 595.68419893 1094.26046092 597.27986817 1097.10644531 598.87158203 C1166.63052471 637.79575763 1166.63052471 637.79575763 1194.03466797 664.34716797 C1195.2890264 665.55545867 1196.56742721 666.73867158 1197.84863281 667.91845703 C1230.18152955 698.47733643 1245.68879974 751.44077159 1254.43066406 793.69189453 C1254.64480957 794.6905957 1254.85895508 795.68929687 1255.07958984 796.71826172 C1260.54374631 822.53210406 1263.24569115 848.7968641 1264.52807236 875.12772083 C1264.57049082 875.98973205 1264.61290927 876.85174327 1264.65661314 877.73987604 C1265.74313758 900.46396483 1265.71417187 923.18863726 1265.68759917 945.93353039 C1265.68244249 952.29313625 1265.68907791 958.65273301 1265.69408584 965.01233751 C1265.7015974 976.11586992 1265.70119407 987.21938465 1265.69599152 998.32291794 C1265.690454 1010.21446776 1265.68935612 1022.10600615 1265.69346619 1033.99755669 C1265.69372453 1034.75368121 1265.69398288 1035.50980574 1265.69424905 1036.28884313 C1265.69531581 1039.36932223 1265.69641325 1042.44980132 1265.6975496 1045.5302804 C1265.70808221 1074.1032141 1265.7088662 1102.67614014 1265.7032547 1131.24907494 C1265.69785222 1158.77158906 1265.69575005 1186.29409956 1265.69829559 1213.81661415 C1265.69845055 1215.55023267 1265.69860487 1217.28385118 1265.69875853 1219.01746969 C1265.69937955 1225.9853811 1265.70001689 1232.9532925 1265.70067806 1239.92120389 C1265.70251141 1259.39509503 1265.7036531 1278.86898618 1265.70425034 1298.34287739 C1265.70427763 1299.22941666 1265.70430492 1300.11595592 1265.70433304 1301.02936002 C1265.7051507 1329.24717234 1265.70290242 1357.46498355 1265.69855118 1385.68279552 C1265.69841068 1386.59703002 1265.69827018 1387.51126452 1265.69812543 1388.45320309 C1265.69583595 1403.29669973 1265.69339683 1418.14019634 1265.69094508 1432.98369295 C1265.6812323 1491.85021566 1265.68168548 1550.71672928 1265.69140625 1609.58325195 C1265.69384892 1624.42310936 1265.69627114 1639.26296678 1265.69855118 1654.10282421 C1265.69876252 1655.47370982 1265.69876252 1655.47370982 1265.69897814 1656.87229009 C1265.70329465 1685.06529057 1265.70511828 1713.25829029 1265.70425034 1741.45129108 C1265.70420958 1742.78004394 1265.70420958 1742.78004394 1265.70416801 1744.13564028 C1265.70354288 1763.58660682 1265.70227526 1783.03757328 1265.70042933 1802.48853974 C1265.69977114 1809.44901003 1265.69914496 1816.40948032 1265.69852791 1823.36995061 C1265.69837313 1825.10129929 1265.69821567 1826.83264797 1265.69805552 1828.56399665 C1265.69551765 1856.07463393 1265.69835452 1883.58526724 1265.7037558 1911.09590399 C1265.70928875 1939.58864066 1265.70720963 1968.08136819 1265.69669321 1996.57410356 C1265.69558866 1999.64288088 1265.69451523 2002.71165822 1265.69346619 2005.78043556 C1265.69320577 2006.53349271 1265.69294536 2007.28654985 1265.69267705 2008.06242691 C1265.68875497 2019.91552052 1265.69145434 2031.76860263 1265.6970042 2043.6216952 C1265.7023363 2055.31817081 1265.7001974 2067.01462345 1265.69097602 2078.71109715 C1265.68625611 2084.94986668 1265.68451203 2091.18859334 1265.69178799 2097.42736139 C1265.84681063 2241.08678664 1265.84681063 2241.08678664 1214.68847656 2296.25439453 C1212.76847535 2298.32719861 1210.90069588 2300.42772721 1209.05566406 2302.56689453 C1196.73309806 2316.69067088 1183.88237248 2330.97673689 1169.11035156 2342.57080078 C1166.66692628 2344.50488231 1164.30972581 2346.51433921 1161.9609375 2348.56152344 C1137.34308035 2369.89649651 1108.52346853 2387.37158702 1080.43066406 2403.69189453 C1079.53089844 2404.21686523 1078.63113281 2404.74183594 1077.70410156 2405.28271484 C1063.77830326 2413.39069254 1049.62906866 2421.07424157 1035.43066406 2428.69189453 C1034.34930176 2429.27310059 1033.26793945 2429.85430664 1032.15380859 2430.453125 C1021.23503645 2436.32142698 1010.30973748 2442.17647165 999.34863281 2447.96533203 C986.36104064 2454.8279897 973.41964485 2461.73125966 960.66552734 2469.02270508 C953.99608675 2472.83067147 947.26148473 2476.50050396 940.49316406 2480.12939453 C931.30758748 2485.06200295 922.28651516 2490.23164065 913.3034668 2495.52270508 C903.96957792 2501.0038336 894.48143931 2506.1748168 884.95898438 2511.31884766 C881.10013772 2513.41445924 877.26491831 2515.55171622 873.43066406 2517.69189453 C864.08531485 2522.89987107 854.69549174 2528.02496812 845.29589844 2533.13427734 C843.40619401 2534.16157065 841.51686247 2535.18955024 839.62792969 2536.21826172 C827.43098162 2542.85995404 815.19704698 2549.42956369 802.93066406 2555.94189453 C801.92524063 2556.475793 801.92524063 2556.475793 800.89950562 2557.02047729 C793.99156687 2560.68806284 787.08078217 2564.35017692 780.16351318 2568.00013733 C766.61249871 2575.15181869 753.10678478 2582.34335929 739.80517578 2589.95288086 C732.76612919 2593.97063296 725.64519247 2597.81698453 718.49316406 2601.62939453 C708.92765567 2606.73548985 699.53008934 2612.07236167 690.19091797 2617.58007812 C682.75375059 2621.95452157 675.22675762 2626.13064984 667.63525391 2630.23022461 C661.14411189 2633.74031401 654.71620185 2637.34945765 648.30566406 2641.00439453 C638.54839876 2646.55605749 628.68208962 2651.89106354 618.77514648 2657.16894531 C611.53130837 2661.02816326 604.31296926 2664.92952278 597.11816406 2668.87939453 C589.76869725 2672.90901083 582.37133671 2676.83339751 574.93066406 2680.69189453 C565.56088441 2685.55123434 556.27758742 2690.552046 547.02441406 2695.62939453 C543.19923565 2697.72811724 539.36567282 2699.81024991 535.52441406 2701.87939453 C524.71574825 2707.70167422 513.964501 2713.6074705 503.29077148 2719.67382812 C495.82247764 2723.91621013 488.3197402 2728.09371211 480.80566406 2732.25439453 C472.8162504 2736.68077155 464.85042358 2741.14204919 456.93066406 2745.69189453 C429.04789994 2761.68201977 400.71986119 2776.78839124 372.18066406 2791.56689453 C348.23106486 2803.97588388 324.71971485 2817.2084034 301.3190918 2830.61883545 C280.57977532 2842.50381617 259.67874733 2854.07551299 238.61035156 2865.36767578 C234.72953508 2867.44972842 230.85870715 2869.54784682 227.00097656 2871.67236328 C217.07987879 2877.13604961 207.09244499 2882.43508706 197.01144409 2887.59603882 C184.28245674 2894.11325724 171.76699593 2900.90593485 159.36181641 2908.02490234 C153.93445833 2911.11152578 148.45916767 2914.11193467 142.99316406 2917.12939453 C133.43914164 2922.41741912 123.96839356 2927.82893829 114.55102539 2933.35620117 C104.01670984 2939.53643667 93.4082537 2945.58502147 82.79690552 2951.6315155 C78.63132774 2954.00556576 74.46951855 2956.38612054 70.30957031 2958.77001953 C56.11236951 2966.90382103 41.87825571 2974.96795443 27.58447266 2982.93115234 C24.3483623 2984.73784284 21.11775784 2986.5541042 17.88769531 2988.37158203 C2.58383874 2996.95972783 -12.88076001 3005.1641053 -28.51464844 3013.13085938 C-31.02939653 3014.41596961 -33.53607922 3015.71428164 -36.03808594 3017.02392578 C-54.86311038 3026.80090972 -74.69642588 3034.91742787 -95.08248901 3040.77655029 C-98.93793431 3041.89004663 -102.7573769 3043.07292178 -106.56347656 3044.34570312 C-136.51200569 3054.29196019 -164.62670105 3056.91710693 -195.94433594 3056.81689453 C-196.82120308 3056.81653828 -197.69807022 3056.81618202 -198.60150909 3056.81581497 C-266.56885186 3056.77504314 -329.95649511 3035.11962929 -390.56933594 3005.69189453 C-391.57827911 3005.20209106 -391.57827911 3005.20209106 -392.60760498 3004.70239258 C-410.36904339 2996.06299587 -427.83258807 2987.08089551 -444.93652344 2977.19189453 C-449.35441913 2974.67487384 -453.84095318 2972.28652022 -458.31933594 2969.87939453 C-469.47443941 2963.84836293 -480.35261523 2957.37097005 -491.23670959 2950.8677063 C-497.92830781 2946.87329193 -504.65502102 2942.93910351 -511.38183594 2939.00439453 C-518.96335696 2934.56791454 -526.54027155 2930.12430381 -534.09619141 2925.64428711 C-570.06752141 2904.31828572 -606.5726687 2883.97395802 -643.73852539 2864.80322266 C-652.6028482 2860.22028997 -661.37730497 2855.49007538 -670.12011719 2850.68017578 C-673.87668972 2848.6136183 -677.64541136 2846.57188259 -681.42480469 2844.54736328 C-692.64992408 2838.52845408 -703.72863718 2832.32232425 -714.70288086 2825.85693359 C-722.22013519 2821.44130688 -729.82940502 2817.22704077 -737.50048828 2813.08569336 C-743.66130987 2809.75323388 -749.75323026 2806.31843489 -755.81933594 2802.81689453 C-766.80737959 2796.49022548 -777.96495767 2790.49407584 -789.1484375 2784.52148438 C-792.6020407 2782.67440313 -796.05106666 2780.81902339 -799.49902344 2778.96142578 C-811.07718257 2772.73020344 -822.68811783 2766.57865426 -834.38183594 2760.56689453 C-844.74002465 2755.23457253 -854.90603121 2749.6264709 -865.01855469 2743.84423828 C-870.53553755 2740.69458491 -876.10778392 2737.65347089 -881.69433594 2734.62939453 C-889.68476953 2730.29699277 -897.60031146 2725.85042366 -905.48193359 2721.32348633 C-916.46002 2715.02170306 -927.5093379 2708.84852462 -938.56933594 2702.69189453 C-939.69871582 2702.0626709 -940.8280957 2701.43344727 -941.99169922 2700.78515625 C-959.13146425 2691.24706777 -976.39163675 2681.9557222 -993.73085022 2672.78581238 C-1001.49783028 2668.67581162 -1009.23873533 2664.51743821 -1016.98046875 2660.36010742 C-1023.1836532 2657.03207346 -1029.39518745 2653.72121522 -1035.62011719 2650.43408203 C-1048.5701663 2643.59228069 -1061.47143013 2636.70763617 -1074.18725586 2629.43579102 C-1081.29401619 2625.38084281 -1088.47839426 2621.48625452 -1095.69433594 2617.62939453 C-1106.22285045 2611.99611652 -1116.61298864 2606.15833596 -1126.95654297 2600.19384766 C-1151.83974713 2585.88984168 -1176.96355385 2572.0047727 -1202.26708984 2558.45996094 C-1205.61268012 2556.66868748 -1208.95642046 2554.87400049 -1212.29980469 2553.07861328 C-1222.06859957 2547.8360406 -1231.84002185 2542.59971435 -1241.64355469 2537.42236328 C-1254.58552973 2530.58402796 -1267.47903374 2523.70328787 -1280.18725586 2516.43579102 C-1287.29401619 2512.38084281 -1294.47839426 2508.48625452 -1301.69433594 2504.62939453 C-1312.20957338 2499.00322041 -1322.58665244 2493.17306152 -1332.91699219 2487.21582031 C-1360.00087149 2471.65455608 -1387.33905037 2456.52397187 -1415.06640625 2442.1394043 C-1423.4345833 2437.78735185 -1431.71651106 2433.2874552 -1439.98339844 2428.74658203 C-1443.77768931 2426.66420244 -1447.5852978 2424.60957623 -1451.40527344 2422.57470703 C-1488.86359942 2402.58280028 -1525.79246096 2379.6535576 -1558.59472656 2352.57128906 C-1563.39411904 2348.61429243 -1568.29487409 2344.81740193 -1573.25683594 2341.06689453 C-1584.24569499 2332.71765697 -1594.71176124 2324.36602269 -1603.56933594 2313.69189453 C-1604.02663086 2313.14549316 -1604.48392578 2312.5990918 -1604.95507812 2312.03613281 C-1661.97148137 2243.61269043 -1667.71176382 2158.51087741 -1667.7327427 2073.19526114 C-1667.73539829 2066.84299169 -1667.74377192 2060.49072918 -1667.75138509 2054.13846409 C-1667.76392455 2043.02578152 -1667.77289161 2031.91310081 -1667.77937508 2020.80041313 C-1667.78634135 2008.88846126 -1667.79545731 1996.97651387 -1667.80713844 1985.06456566 C-1667.80787756 1984.30933817 -1667.80861667 1983.55411067 -1667.80937818 1982.7759975 C-1667.81239595 1979.69951478 -1667.81542868 1976.62303208 -1667.81848041 1973.54654939 C-1667.84683952 1944.95302147 -1667.8703946 1916.35949149 -1667.89082718 1887.76595688 C-1667.89143155 1886.92022212 -1667.89203591 1886.07448737 -1667.8926586 1885.20312429 C-1667.89326392 1884.35600907 -1667.89386924 1883.50889386 -1667.89449291 1882.63610849 C-1667.91297029 1856.78127 -1667.93326302 1830.92643373 -1667.95533371 1805.07159805 C-1667.95681156 1803.33721961 -1667.95828907 1801.60284117 -1667.95976623 1799.86846272 C-1667.96570464 1792.89768955 -1667.97165026 1785.92691639 -1667.97760684 1778.95614323 C-1667.99425011 1759.47029512 -1668.01055312 1739.98444672 -1668.02658653 1720.4985981 C-1668.02731663 1719.61133253 -1668.02804673 1718.72406695 -1668.02879896 1717.80991455 C-1668.05202782 1689.54981581 -1668.07374245 1661.28971611 -1668.09443092 1633.0296154 C-1668.09510187 1632.1134689 -1668.09577282 1631.1973224 -1668.0964641 1630.25341388 C-1668.10735443 1615.37799705 -1668.11817396 1600.50258017 -1668.12898713 1585.62716328 C-1668.17183179 1526.69365743 -1668.21981278 1467.76015805 -1668.27246094 1408.82666016 C-1668.28571621 1393.98475078 -1668.29896015 1379.14284139 -1668.31212807 1364.30093193 C-1668.31293927 1363.38685643 -1668.31375047 1362.47278094 -1668.31458625 1361.53100618 C-1668.33960721 1333.31888514 -1668.36333216 1305.10676326 -1668.38567162 1276.89463997 C-1668.38637396 1276.00773801 -1668.38707631 1275.12083606 -1668.38779995 1274.20705829 C-1668.40321036 1254.72895601 -1668.41828987 1235.25085349 -1668.43307109 1215.77275072 C-1668.43836278 1208.80144977 -1668.44367185 1201.83014883 -1668.44898644 1194.8588479 C-1668.45030778 1193.12479269 -1668.45162776 1191.39073749 -1668.45294636 1189.65668228 C-1668.47388588 1162.12571857 -1668.49764383 1134.59475824 -1668.52276438 1107.06379806 C-1668.54877428 1078.52427297 -1668.57082478 1049.98474712 -1668.5885203 1021.44521563 C-1668.59044365 1018.366826 -1668.59238324 1015.28843638 -1668.59433556 1012.21004677 C-1668.59481309 1011.45464863 -1668.59529063 1010.69925048 -1668.59578264 1009.92096149 C-1668.60337163 998.06132014 -1668.61438827 986.2016847 -1668.6269036 974.34204763 C-1668.6391981 962.62021969 -1668.64757441 950.8983941 -1668.65231147 939.17656064 C-1668.65493777 932.93156782 -1668.65906676 926.68658776 -1668.66794308 920.44160043 C-1668.7012099 896.24673565 -1668.60619655 872.06364699 -1668.11455345 847.87309456 C-1668.09426714 846.85676677 -1668.07398082 845.84043898 -1668.05307977 844.79331338 C-1666.91495705 789.26061518 -1661.30858831 742.38580138 -1622.81542969 700.15673828 C-1621.31754082 698.51296806 -1619.83050427 696.85924297 -1618.35449219 695.19580078 C-1613.68975619 689.94079942 -1608.86447535 684.91984839 -1603.83105469 680.01611328 C-1601.52979799 677.73575093 -1601.52979799 677.73575093 -1599.60058594 675.16845703 C-1597.40738174 672.494435 -1595.09407817 670.52022643 -1592.38183594 668.37939453 C-1588.97395561 665.65219464 -1585.65287517 662.90025526 -1582.44433594 659.94189453 C-1576.3667393 654.48180771 -1569.79760137 649.62808681 -1563.26928711 644.7253418 C-1561.19535845 643.16337853 -1559.12935467 641.59253094 -1557.06665039 640.01586914 C-1547.24971374 632.54294806 -1537.1712875 625.55832105 -1526.88183594 618.75439453 C-1526.0953064 618.23242493 -1525.30877686 617.71045532 -1524.49841309 617.17266846 C-1512.33599582 609.10267948 -1500.11840649 601.15145691 -1487.56933594 593.69189453 C-1486.64894531 593.14452637 -1485.72855469 592.5971582 -1484.78027344 592.03320312 C-1462.10935928 578.60068648 -1439.05657589 565.87280654 -1415.82666016 553.4375 C-1410.44395682 550.55290033 -1405.06973866 547.65256872 -1399.69433594 544.75439453 C-1392.97684718 541.13294655 -1386.25484618 537.5204473 -1379.51855469 533.93408203 C-1366.71537893 527.11382363 -1353.99532844 520.17285016 -1341.38964844 512.99267578 C-1335.08203359 509.4035632 -1328.73227661 505.89199629 -1322.38183594 502.37939453 C-1313.00161159 497.18727436 -1303.67747128 491.90825005 -1294.38183594 486.56689453 C-1282.81878365 479.92558137 -1271.1417292 473.51808471 -1259.39257812 467.21240234 C-1254.85613322 464.76921842 -1250.33889083 462.29113349 -1245.81933594 459.81689453 C-1237.48267346 455.26349718 -1229.12740836 450.74514848 -1220.75683594 446.25439453 C-1220.16589142 445.93732544 -1219.5749469 445.62025635 -1218.96609497 445.2935791 C-1210.60126442 440.80964567 -1202.19307337 436.41515724 -1193.75683594 432.06689453 C-1184.72673157 427.40596596 -1175.84231265 422.53458245 -1167.01904297 417.49389648 C-1160.60100734 413.82810254 -1154.13598234 410.26482769 -1147.63183594 406.75439453 C-1139.89435595 402.57021355 -1132.27335741 398.21878329 -1124.69433594 393.75439453 C-1115.72267781 388.47174534 -1106.65238955 383.42167307 -1097.4753418 378.50537109 C-1091.7635543 375.44021624 -1086.10465669 372.30415997 -1080.48535156 369.07275391 C-1069.06618535 362.5089812 -1057.43139768 356.44019651 -1045.70349121 350.4536438 C-1035.00334393 344.99141556 -1024.38704397 339.41533566 -1013.87011719 333.60595703 C-1010.03015211 331.4849996 -1006.17123865 329.40329441 -1002.29980469 327.34033203 C-990.50211115 321.0513882 -978.84612265 314.59522666 -967.32983398 307.80395508 C-959.89408786 303.43009501 -952.36827417 299.25498877 -944.77832031 295.15576172 C-938.2451024 291.62258625 -931.77328389 287.99262735 -925.31933594 284.31689453 C-913.96556433 277.86470447 -902.48368709 271.66499702 -890.96679688 265.50976562 C-887.50071999 263.65518037 -884.03852667 261.79351422 -880.57714844 259.93017578 C-869.34752871 253.88934383 -858.09169343 247.90869208 -846.75683594 242.06689453 C-837.72671425 237.40600298 -828.84231065 232.5345813 -820.01904297 227.49389648 C-813.60100734 223.82810254 -807.13598234 220.26482769 -800.63183594 216.75439453 C-792.89435468 212.57021286 -785.27337312 208.2187589 -777.69433594 203.75439453 C-767.63903965 197.83409315 -757.44379371 192.22124085 -747.16308594 186.70361328 C-742.31325028 184.1006822 -737.49709465 181.44294631 -732.69433594 178.75439453 C-716.22439545 169.56522983 -699.58884189 160.69508607 -682.81933594 152.06689453 C-670.63097545 145.79381819 -658.56166109 139.33191986 -646.56933594 132.69189453 C-644.9724292 131.81017578 -644.9724292 131.81017578 -643.34326172 130.91064453 C-630.98481589 124.08532712 -618.65990354 117.20728438 -606.41625977 110.17797852 C-598.63940193 105.71736049 -590.81923057 101.33596059 -582.9909668 96.96630859 C-577.98075109 94.16816196 -572.97668441 91.36109903 -567.99511719 88.51220703 C-555.55902327 81.40681778 -542.98277027 74.60760132 -530.32055664 67.91699219 C-522.74858011 63.91562437 -515.19957541 59.88014509 -507.69433594 55.75439453 C-493.49056741 47.95982482 -479.14027925 40.4388809 -464.81237793 32.87591553 C-458.18847109 29.37939393 -451.56561803 25.88088413 -444.94433594 22.37939453 C-444.231716 22.00262573 -443.51909607 21.62585693 -442.78488159 21.2376709 C-433.78991731 16.48017757 -424.82015113 11.68025929 -415.88183594 6.81689453 C-318.17379014 -46.23590688 -213.39214861 -72.26540627 0 0 Z M-304.77246094 557.37939453 C-310.91319749 560.913571 -317.13744583 564.28257276 -323.38183594 567.62939453 C-324.46311768 568.20923096 -325.54439941 568.78906738 -326.65844727 569.38647461 C-328.85640674 570.56399368 -331.05473209 571.74083004 -333.25341797 572.91699219 C-357.14752184 585.70672383 -380.95437253 598.64596281 -404.63183594 611.83251953 C-409.2310413 614.39367612 -413.8352778 616.94538836 -418.44433594 619.48876953 C-429.5770262 625.63683928 -440.67904097 631.83543497 -451.69433594 638.19189453 C-452.65944092 638.74304932 -453.6245459 639.2942041 -454.61889648 639.86206055 C-462.94312494 644.7022741 -470.46407913 650.03835701 -476.88183594 657.25439453 C-477.68234375 658.14255859 -478.48285156 659.03072266 -479.30761719 659.94580078 C-485.27691952 667.19350293 -487.03296397 672.07314552 -486.89746094 681.33251953 C-486.10275607 689.46878367 -483.33586561 696.55744731 -477.38183594 702.25439453 C-475.48219792 703.78188125 -473.53921778 705.25613488 -471.56933594 706.69189453 C-470.98087891 707.12791992 -470.39242187 707.56394531 -469.78613281 708.01318359 C-451.21507543 721.60613963 -430.03334102 731.09198503 -409.33837891 740.94433594 C-400.53143735 745.16302335 -391.96373383 749.72163278 -383.42871094 754.46142578 C-377.15175844 757.94388951 -370.80791885 761.29598473 -364.46429443 764.65472412 C-352.55847065 770.96309192 -340.78745677 777.4659518 -329.12646484 784.21777344 C-320.64468315 789.10730923 -312.09929856 793.88710373 -303.56933594 798.69189453 C-302.55822754 799.26198242 -301.54711914 799.83207031 -300.50537109 800.41943359 C-285.27641601 809.00054372 -269.9655491 817.41494727 -254.56933594 825.69189453 C-253.45655273 826.29146973 -252.34376953 826.89104492 -251.19726562 827.50878906 C-238.76524829 834.20630724 -226.30954254 840.84719618 -213.75683594 847.31689453 C-204.77512168 851.95261802 -195.94143345 856.80047736 -187.16625977 861.81518555 C-180.31088289 865.72825469 -173.39698672 869.5171775 -166.44433594 873.25439453 C-156.2752013 878.72857132 -146.23679941 884.40502838 -136.22753906 890.16503906 C-121.74145011 898.48575915 -107.15301517 906.59977858 -92.44433594 914.52001953 C-88.70534861 916.53388509 -84.97563934 918.56287721 -81.25683594 920.61376953 C-69.97582087 926.82958149 -58.58514645 932.79076518 -47.12094116 938.65866089 C-37.45354118 943.61359535 -27.93591886 948.77103207 -18.51147461 954.17773438 C-12.71706615 957.49785221 -6.8730247 960.68092183 -0.94433594 963.75439453 C8.42043504 968.61876349 17.55487243 973.8518993 26.69628906 979.12109375 C34.25523476 983.46343809 41.85575216 987.73323095 49.45068359 992.01220703 C51.44450618 993.13603952 53.4376662 994.26104827 55.43017578 995.38720703 C74.38591572 1006.09852984 93.46654483 1016.58901881 112.85253906 1026.50439453 C113.46014069 1026.81598511 114.06774231 1027.12757568 114.6937561 1027.4486084 C117.58277009 1028.92967691 120.47519786 1030.40292639 123.37548828 1031.86181641 C143.9935255 1042.38610455 143.9935255 1042.38610455 147.43066406 1051.69189453 C149.30543974 1059.9051975 149.94770204 1068.29002747 149.43066406 1076.69189453 C149.37394531 1077.78888672 149.31722656 1078.88587891 149.25878906 1080.01611328 C149.15050781 1081.14662109 149.04222656 1082.27712891 148.93066406 1083.44189453 C148.79144531 1084.98103516 148.79144531 1084.98103516 148.64941406 1086.55126953 C145.68874942 1094.18067458 136.9656781 1098.54812659 130.24316406 1102.62939453 C129.3444458 1103.17950195 128.44572754 1103.72960938 127.51977539 1104.29638672 C99.9637572 1120.96995142 71.08979835 1135.61174138 42.52026367 1150.45117188 C35.26537311 1154.23052999 28.0748016 1158.12007383 20.90429688 1162.05688477 C15.98884633 1164.7549733 11.06270947 1167.42972729 6.11425781 1170.06689453 C-5.54738315 1176.28544667 -17.07601787 1182.65992778 -28.46166992 1189.37109375 C-39.27061441 1195.72888004 -50.24747225 1201.77564016 -61.22314453 1207.83935547 C-66.59798679 1210.81500869 -71.95950764 1213.81430324 -77.31933594 1216.81689453 C-78.34212646 1217.38947998 -79.36491699 1217.96206543 -80.41870117 1218.55200195 C-86.50096858 1221.9606815 -92.56993165 1225.39198492 -98.6315918 1228.8371582 C-103.26968715 1231.46938235 -107.91723077 1234.08452516 -112.56933594 1236.69189453 C-113.33681152 1237.12373047 -114.10428711 1237.55556641 -114.89501953 1238.00048828 C-151.33507591 1258.38152495 -196.09477569 1270.21456443 -237.56933594 1259.69189453 C-264.76145019 1251.7252217 -290.78880138 1237.99728027 -315.26000977 1223.95068359 C-323.60296946 1219.18168719 -332.06939394 1214.67214294 -340.56933594 1210.19189453 C-350.86896505 1204.75981776 -361.08090596 1199.21506146 -371.19042969 1193.43408203 C-378.25613585 1189.40371479 -385.39624391 1185.52748794 -392.56933594 1181.69189453 C-400.72830817 1177.32622879 -408.83822126 1172.89176655 -416.88183594 1168.31689453 C-436.91394595 1156.92512778 -457.1359634 1145.88654151 -477.44042969 1134.98876953 C-484.0596477 1131.43390828 -490.65393842 1127.83428859 -497.24511719 1124.2277832 C-503.21224708 1120.9666648 -509.19803302 1117.74200119 -515.19213867 1114.53076172 C-525.66464972 1108.91847694 -536.05547266 1103.18940606 -546.37768555 1097.30541992 C-552.21928683 1093.98684685 -558.10664621 1090.78713205 -564.06933594 1087.69189453 C-572.04094502 1083.55356766 -579.85587568 1079.17093467 -587.65991211 1074.72583008 C-595.69494506 1070.15951276 -603.80379331 1065.74109578 -611.93920898 1061.35668945 C-617.83917456 1058.17549115 -623.71797897 1054.96159417 -629.56933594 1051.69189453 C-637.47933671 1047.27501931 -645.43961034 1042.95413602 -653.40966797 1038.64672852 C-660.0970149 1035.03247487 -666.77442016 1031.40070426 -673.44433594 1027.75439453 C-680.24538684 1024.03737725 -687.06049302 1020.34795706 -693.8894043 1016.68237305 C-707.32364787 1009.47111468 -720.68848408 1002.14154333 -734.02775574 994.75675964 C-738.36231824 992.3576307 -742.70109818 989.96626459 -747.04199219 987.57861328 C-749.5095884 986.22080967 -751.97703132 984.86272794 -754.44433594 983.50439453 C-755.052854 983.16940948 -755.66137207 982.83442444 -756.28833008 982.48928833 C-763.26684691 978.64545975 -770.22297498 974.76639645 -777.14257812 970.81713867 C-791.69964544 962.51234474 -806.47885965 954.64502674 -821.32312012 946.86932373 C-823.64748288 945.6509312 -825.97026836 944.42956605 -828.29296875 943.20800781 C-865.60719186 923.60771543 -903.42617116 904.45795737 -946.56933594 916.69189453 C-948.0664209 917.11341797 -948.0664209 917.11341797 -949.59375 917.54345703 C-976.30506393 925.2986174 -1000.53764746 938.06990831 -1024.52539062 951.93310547 C-1027.61955226 953.72090948 -1030.72285979 955.49205676 -1033.82714844 957.26220703 C-1075.34774107 981.06325986 -1115.23458936 1010.20191553 -1128.83105469 1058.59814453 C-1132.01422909 1071.93716107 -1133.19004205 1086.42638152 -1132.56542969 1100.14892578 C-1132.56882584 1103.22923594 -1132.87075773 1105.97679331 -1133.29199219 1109.01611328 C-1133.90872865 1115.20396747 -1134.2667631 1120.94708697 -1131.56933594 1126.69189453 C-1125.16630847 1133.01967131 -1116.30533807 1136.4346128 -1108.17382812 1140.04052734 C-1102.94421303 1142.43643065 -1098.03005695 1145.28999167 -1093.06933594 1148.19189453 C-1091.19098818 1149.26027647 -1089.31075161 1150.32534396 -1087.42871094 1151.38720703 C-1086.47931641 1151.9237793 -1085.52992188 1152.46035156 -1084.55175781 1153.01318359 C-1075.72804518 1157.97977234 -1066.86459832 1162.87563279 -1058.00878906 1167.78466797 C-1053.48269376 1170.29445335 -1048.95864765 1172.80791743 -1044.43481445 1175.32177734 C-1042.19066465 1176.56879856 -1039.94636116 1177.81554325 -1037.7019043 1179.06201172 C-1032.03701437 1182.20812427 -1026.37386283 1185.35729696 -1020.71386719 1188.51220703 C-1008.84557564 1195.12375511 -996.95053469 1201.67846485 -984.99438477 1208.12988281 C-979.16371261 1211.27826109 -973.35444181 1214.46060368 -967.56933594 1217.69189453 C-959.65924423 1222.10861013 -951.69906435 1226.42965151 -943.72900391 1230.73706055 C-937.04165634 1234.35131454 -930.36432017 1237.98320942 -923.69433594 1241.62939453 C-915.7097335 1245.99152717 -907.70707472 1250.31917544 -899.69433594 1254.62939453 C-898.60354736 1255.21640137 -897.51275879 1255.8034082 -896.38891602 1256.40820312 C-889.91989711 1259.88951647 -889.91989711 1259.88951647 -883.44970703 1263.36865234 C-871.75206646 1269.65947487 -860.11469621 1276.03801136 -848.5690918 1282.60400391 C-840.73101778 1287.05517375 -832.84330757 1291.41272614 -824.94433594 1295.75439453 C-813.94934437 1301.80043283 -803.02687676 1307.96245635 -792.14697266 1314.21337891 C-777.68293432 1322.50985704 -763.1256425 1330.61451805 -748.44433594 1338.52001953 C-744.70534861 1340.53388509 -740.97563934 1342.56287721 -737.25683594 1344.61376953 C-726.61261971 1350.47915241 -715.88051521 1356.14244416 -705.06933594 1361.69189453 C-692.45969183 1368.16660842 -679.96869715 1374.82128075 -667.56933594 1381.69189453 C-665.4469893 1382.86255664 -663.32459108 1384.03312523 -661.20214844 1385.20361328 C-649.56566003 1391.63381286 -637.9792627 1398.14433347 -626.44433594 1404.75439453 C-607.5421201 1415.58588013 -588.54534011 1426.22511487 -569.36621094 1436.55908203 C-565.67919849 1438.5467458 -562.00166479 1440.54983159 -558.33496094 1442.57470703 C-546.62875737 1449.03170465 -534.79656081 1455.20829931 -522.89953613 1461.30355835 C-513.47438081 1466.1347157 -504.1078306 1471.04621019 -494.83203125 1476.16015625 C-487.68898419 1480.09620301 -480.49945562 1483.93941838 -473.29730225 1487.76577759 C-461.65315231 1493.95362985 -450.03233437 1500.17264069 -438.56933594 1506.69189453 C-437.84472168 1507.10101074 -437.12010742 1507.51012695 -436.37353516 1507.93164062 C-420.82117036 1516.74092749 -407.09447537 1526.82823781 -394.56933594 1539.69189453 C-394.0859375 1540.11857422 -393.60253906 1540.54525391 -393.10449219 1540.98486328 C-371.16786005 1561.06333364 -360.76615235 1591.93631373 -359.47233194 1620.86047965 C-359.04475924 1633.73301483 -359.13726043 1646.62246008 -359.15126382 1659.50022306 C-359.15396062 1665.05012116 -359.13922488 1670.59997852 -359.12672138 1676.14985943 C-359.10730864 1685.7963172 -359.09864625 1695.44273588 -359.09732628 1705.08921242 C-359.09532188 1719.23466588 -359.07632756 1733.38005944 -359.05342808 1747.52549271 C-359.017123 1770.17181767 -358.99233874 1792.81813755 -358.97532413 1815.46448458 C-358.95765313 1838.9564316 -358.93250954 1862.4483512 -358.89614868 1885.9402771 C-358.8950602 1886.64385408 -358.89397172 1887.34743106 -358.89285025 1888.07232855 C-358.87963107 1896.5949753 -358.86603703 1905.11762144 -358.85229776 1913.64026737 C-358.83179788 1926.36452457 -358.81194678 1939.08878281 -358.79209865 1951.81304104 C-358.78880584 1953.92257558 -358.78550466 1956.03211012 -358.78220243 1958.14164465 C-358.7355927 1987.94866983 -358.69554948 2017.7557027 -358.65676283 2047.56273895 C-358.54104638 2146.9468727 -358.54104638 2146.9468727 -358.31946945 2246.33080673 C-358.27829223 2260.63034195 -358.24897215 2274.92979957 -358.23768288 2289.22939295 C-358.22931876 2298.63263385 -358.20723042 2308.03577091 -358.17304939 2317.43895346 C-358.1545648 2322.62600772 -358.14177405 2327.81287071 -358.14705849 2332.99995995 C-358.15167434 2337.59245893 -358.13810068 2342.18452939 -358.10991406 2346.77694106 C-358.1030855 2348.39663075 -358.10271209 2350.01636592 -358.11006427 2351.63605332 C-358.2083276 2375.55555829 -351.39613617 2398.10402164 -335.29980469 2416.25048828 C-322.84443857 2428.15416868 -306.5394195 2436.1663862 -291.45605469 2444.15820312 C-288.54827462 2445.70308425 -285.6523387 2447.26867621 -282.75683594 2448.83642578 C-246.30709696 2468.41332486 -205.69748757 2481.1012976 -164.51464844 2469.00439453 C-129.89193551 2457.74265775 -95.78310285 2441.40293167 -69.56933594 2415.69189453 C-68.49386942 2414.65537984 -67.4183471 2413.61892305 -66.34277344 2412.58251953 C-53.93970812 2400.53083702 -49.07553225 2390.59994715 -48.43206739 2372.92035753 C-48.42626425 2371.60687717 -48.42046111 2370.29339681 -48.41448212 2368.94011402 C-48.40989754 2368.19894221 -48.40531297 2367.45777041 -48.40058947 2366.69413885 C-48.38646678 2364.21957982 -48.37920688 2361.74505 -48.37194824 2359.27046204 C-48.36315265 2357.47238778 -48.35394198 2355.67431552 -48.3443532 2353.87624532 C-48.31928807 2348.93815845 -48.30031844 2344.00006432 -48.28243446 2339.0619469 C-48.26214764 2333.73034374 -48.23647919 2328.39876592 -48.21160889 2323.06718254 C-48.16367277 2312.58095641 -48.12135946 2302.0947144 -48.08108205 2291.60845633 C-48.04782998 2282.9726746 -48.01246314 2274.33690372 -47.97584534 2265.70113564 C-47.65297244 2189.3376002 -47.43929 2112.97392766 -47.28808594 2036.60986328 C-47.28566627 2035.38893992 -47.2832466 2034.16801655 -47.28075361 2032.91009551 C-47.19486757 1989.46971891 -47.11707377 1946.02932693 -47.04327393 1902.58892822 C-47.03455353 1897.46073404 -47.02582617 1892.33253986 -47.01708984 1887.2043457 C-47.01493097 1885.93652341 -47.01277211 1884.66870113 -47.01054782 1883.36245998 C-46.97414757 1862.04311412 -46.93427642 1840.72377624 -46.89178705 1819.40444165 C-46.86849663 1807.65397602 -46.84683524 1795.90351247 -46.82969666 1784.15303612 C-46.70729692 1701.24088524 -46.70729692 1701.24088524 -46.28714657 1667.21367514 C-46.25495042 1664.59905926 -46.22916697 1661.98465089 -46.20704746 1659.36990201 C-46.01978529 1638.47341804 -45.10654027 1617.15448574 -39.88183594 1596.81689453 C-39.62837402 1595.80135498 -39.37491211 1594.78581543 -39.11376953 1593.73950195 C-35.11670536 1578.40943011 -29.10616557 1564.04222143 -20.56933594 1550.69189453 C-19.94414063 1549.70705078 -19.31894531 1548.72220703 -18.67480469 1547.70751953 C-13.90750145 1540.67793187 -8.34660572 1535.74482099 -1.56933594 1530.69189453 C-0.45672759 1529.83203095 0.65522761 1528.97132172 1.76660156 1528.10986328 C23.8717044 1511.20560161 49.3248056 1498.58727966 74.20947266 1486.31933594 C82.12688895 1482.39536039 89.85900243 1478.15240232 97.59863281 1473.89111328 C102.73417611 1471.06468252 107.89610849 1468.28978916 113.06420898 1465.5234375 C123.29183588 1460.04723973 133.4494684 1454.46921125 143.53149414 1448.72949219 C151.33467519 1444.29250726 159.18921035 1439.95265708 167.05566406 1435.62939453 C175.46704966 1431.00462841 183.85650839 1426.34762149 192.18066406 1421.56689453 C211.31636615 1410.5787938 230.60769522 1399.90060956 250.06542969 1389.49365234 C253.51786798 1387.64520526 256.96678373 1385.79031942 260.41503906 1383.93408203 C262.77414299 1382.66534819 265.13362644 1381.39732158 267.49316406 1380.12939453 C268.37157455 1379.6569783 268.37157455 1379.6569783 269.26773071 1379.17501831 C275.40625758 1375.87592097 281.55693328 1372.60942187 287.77050781 1369.45361328 C301.60809237 1362.41797902 314.85668074 1354.72118873 328.06738281 1346.59423828 C352.03797058 1331.84825712 373.60538526 1321.7112848 402.43066406 1326.69189453 C407.50932182 1328.98459794 410.75762591 1332.85986402 413.43066406 1337.69189453 C416.98055902 1349.21364842 415.58078329 1362.85313191 415.58215332 1374.80435181 C415.58601002 1376.83483919 415.59029868 1378.86532579 415.59497881 1380.89581144 C415.60656536 1386.45630757 415.61209138 1392.01679552 415.61661363 1397.57730126 C415.62259082 1403.59480397 415.63425936 1409.61229599 415.64524841 1415.62979126 C415.66361399 1426.09658129 415.67848599 1436.56337218 415.69102478 1447.03017044 C415.70436952 1458.13912053 415.72011588 1469.24806361 415.73878479 1480.35700607 C415.73995727 1481.05470955 415.74112975 1481.75241302 415.74233777 1482.47125902 C415.74831839 1486.02033168 415.7543471 1489.56940425 415.76039869 1493.11847679 C415.77271236 1500.34714399 415.78470914 1507.57581171 415.79660797 1514.8044796 C415.79780049 1515.52890266 415.79899302 1516.25332571 415.80022168 1516.99970099 C415.82857257 1534.27095617 415.85370599 1551.54221584 415.87841797 1568.81347656 C415.87949917 1569.56849614 415.88058036 1570.32351571 415.88169432 1571.10141466 C415.89043091 1577.20265367 415.89915647 1583.30389269 415.90786461 1589.40513174 C415.94897111 1618.20514888 415.99188931 1647.0051633 416.03613281 1675.80517578 C416.03724031 1676.52688989 416.0383478 1677.248604 416.03948885 1677.99218824 C416.11783543 1729.02305538 416.21035488 1780.05388644 416.32296753 1831.08469009 C416.32449217 1831.77605234 416.32601681 1832.4674146 416.32758765 1833.17972722 C416.34137039 1839.42738463 416.35517359 1845.67504199 416.36910605 1851.92269906 C416.40257217 1866.9463398 416.43399885 1881.96997972 416.45904541 1896.99363708 C416.46072025 1897.9963097 416.46072025 1897.9963097 416.46242892 1899.01923833 C416.46691535 1901.70865792 416.47138587 1904.39807754 416.47584719 1907.08749717 C416.51696139 1931.86950745 416.57066338 1956.65142733 416.64995813 1981.43334758 C416.69022335 1994.1251289 416.71979661 2006.81682532 416.73378432 2019.50866345 C416.74424924 2027.98556599 416.76919892 2036.46234614 416.8059634 2044.93917522 C416.82649584 2049.76217426 416.84088444 2054.58496902 416.83777046 2059.40801573 C416.8350782 2063.79662884 416.85085836 2068.18478504 416.88096482 2072.57329218 C416.88859356 2074.14420067 416.88969921 2075.71515912 416.88319963 2077.28607269 C416.82886109 2092.07725297 419.36707429 2105.00784561 427.43066406 2117.69189453 C427.98753906 2118.62001953 428.54441406 2119.54814453 429.11816406 2120.50439453 C436.24477381 2127.24578213 445.09103457 2130.37677693 454.76269531 2130.19189453 C479.089828 2126.87573587 505.7545833 2106.92131287 526.73535156 2094.93017578 C533.07827327 2091.30867271 539.47463522 2087.78550692 545.86816406 2084.25439453 C554.45285981 2079.50505163 562.97339874 2074.66452486 571.43066406 2069.69189453 C581.01102583 2064.05891558 590.68498555 2058.61452129 600.41259766 2053.24023438 C608.78310453 2048.61541175 617.10951264 2043.91783994 625.41992188 2039.18603516 C630.28623109 2036.42726344 635.17868514 2033.75533057 640.15551758 2031.20166016 C677.38942124 2012.0774285 708.78671542 1983.05157486 722.43066406 1942.69189453 C727.58877559 1924.97399111 728.58998789 1906.14785846 728.55929852 1887.79594135 C728.56064847 1886.43795862 728.56243422 1885.07997627 728.56461075 1883.72199461 C728.5693046 1880.01192766 728.56785091 1876.30188548 728.56533298 1872.59181737 C728.56369124 1868.54706448 728.56784793 1864.50231671 728.57124215 1860.45756549 C728.57638374 1853.37531248 728.57781551 1846.2930663 728.57678604 1839.21081161 C728.57525882 1828.67844079 728.57942801 1818.1460775 728.58466067 1807.61370814 C728.59432579 1787.70424251 728.59714462 1767.79477946 728.59771772 1747.88531176 C728.59817757 1732.50445491 728.6002375 1717.12359906 728.60341835 1701.74274254 C728.60431593 1697.31251913 728.60520574 1692.88229573 728.60609323 1688.45207232 C728.6064248 1686.79991631 728.6064248 1686.79991631 728.60676307 1685.1143834 C728.61291657 1654.13604631 728.61686372 1623.15770957 728.61641979 1592.17937183 C728.61640421 1591.0116604 728.61638863 1589.84394896 728.61637258 1588.64085233 C728.61628948 1582.72267307 728.61619044 1576.80449381 728.61608788 1570.88631455 C728.61606793 1569.71098788 728.61604799 1568.53566121 728.61602744 1567.32471859 C728.615987 1564.94791966 728.6159452 1562.57112074 728.61590204 1560.19432182 C728.61528963 1523.23558235 728.62278996 1486.27685207 728.63647461 1449.31811523 C728.65185109 1407.77326966 728.66043985 1366.22843013 728.65951139 1324.68358153 C728.65943676 1320.24927151 728.65938805 1315.81496149 728.65935707 1311.38065147 C728.65934542 1310.2888538 728.65933376 1309.19705612 728.65932175 1308.07217366 C728.65929104 1290.5367175 728.6656647 1273.00126933 728.67428934 1255.46581554 C728.68278608 1237.8248015 728.68374001 1220.18379909 728.67718001 1202.54278413 C728.67349753 1192.07689894 728.67527759 1181.61104922 728.68512235 1171.14516782 C728.6911554 1164.13617754 728.68979026 1157.12721274 728.68265186 1150.1182236 C728.67879812 1146.13654279 728.67791308 1142.15493025 728.68610921 1138.17325447 C728.77665016 1091.00732946 726.12273225 1041.56522561 694.43066406 1003.69189453 C693.50655301 1002.53248208 692.58342774 1001.37228345 691.66113281 1000.21142578 C685.07641426 992.06912596 678.06055328 985.63006872 669.43066406 979.69189453 C668.86444336 979.2900293 668.29822266 978.88816406 667.71484375 978.47412109 C644.7490167 962.25920272 618.25409567 950.55926866 593.26431274 937.86523438 C579.63208692 930.9353314 566.19175413 923.82158926 552.96630859 916.13964844 C548.16999416 913.40114039 543.29589236 910.80532545 538.43066406 908.19189453 C530.62541947 903.99312893 522.87986532 899.706972 515.18066406 895.31689453 C504.87982973 889.45043615 494.45064642 883.83800319 483.99075317 878.26272583 C477.36787138 874.73254283 470.76492969 871.16855435 464.18066406 867.56689453 C456.64740371 863.4470674 449.10637947 859.34215569 441.55566406 855.25439453 C440.55833252 854.71411621 439.56100098 854.17383789 438.53344727 853.6171875 C433.48805519 850.88482604 428.44003916 848.15747509 423.38769531 845.43798828 C412.59945175 839.62409048 401.88065633 833.70997353 391.23095703 827.64599609 C382.76587032 822.84308951 374.20271041 818.23257464 365.6237793 813.63696289 C359.92510881 810.58150008 354.24241627 807.50737662 348.61816406 804.31689453 C330.79433534 794.2079653 312.80373123 784.39117607 294.74951172 774.70092773 C287.06597172 770.57689084 279.4048863 766.41364734 271.75488281 762.2277832 C265.78832833 758.96697927 259.80314457 755.74258163 253.80957031 752.53173828 C243.50326167 747.00833377 233.27307409 741.37710008 223.11450195 735.58666992 C215.94354575 731.51266927 208.70311822 727.58141251 201.43066406 723.69189453 C192.25031298 718.78197831 183.15855476 713.74205136 174.11425781 708.58642578 C165.85797653 703.89613119 157.50240584 699.40307332 149.12866211 694.92675781 C141.94064973 691.07353376 134.82478989 687.11189204 127.74316406 683.06689453 C119.25421138 678.22388969 110.66477354 673.62430943 101.98242188 669.13842773 C93.59435545 664.79964975 85.30348476 660.29690654 77.02441406 655.75439453 C73.19923565 653.65567182 69.36567282 651.57353916 65.52441406 649.50439453 C54.63962263 643.64076897 43.82119419 637.68197388 33.07543945 631.56713867 C25.24423444 627.12240069 17.33595833 622.83147037 9.40673828 618.56469727 C2.57386488 614.87826524 -4.19836605 611.09727117 -10.94433594 607.25439453 C-20.17622613 601.99716958 -29.50195949 596.9353364 -38.87084961 591.92700195 C-46.05902679 588.07372814 -53.1752815 584.11237118 -60.25683594 580.06689453 C-67.75512401 575.78409087 -75.32467182 571.69743487 -83.00683594 567.75439453 C-91.04264995 563.6296902 -98.86443788 559.238723 -106.63183594 554.62939453 C-135.22352551 537.7523073 -162.346515 529.45405891 -194.56933594 522.69189453 C-195.47321045 522.49877686 -196.37708496 522.30565918 -197.30834961 522.10668945 C-234.04223997 515.3675814 -274.52007053 539.9342235 -304.77246094 557.37939453 Z M-1123.19433594 1325.87939453 C-1140.30683983 1348.86012432 -1132.72599821 1391.27875395 -1132.7293787 1418.34931314 C-1132.73124976 1424.81220905 -1132.7388065 1431.27509897 -1132.74551392 1437.73799133 C-1132.75997313 1452.55657132 -1132.76561011 1467.37514992 -1132.77020586 1482.19373569 C-1132.77255291 1489.53237791 -1132.77615648 1496.87101937 -1132.77990124 1504.20966099 C-1132.79271921 1529.38250321 -1132.80344452 1554.55534502 -1132.80690384 1579.72819042 C-1132.80712546 1581.30300872 -1132.80734725 1582.87782702 -1132.80756919 1584.45264532 C-1132.80778982 1586.03097478 -1132.8080103 1587.60930424 -1132.80823064 1589.18763369 C-1132.80867316 1592.35336061 -1132.80912028 1595.51908753 -1132.80957031 1598.68481445 C-1132.8096797 1599.46970826 -1132.80978909 1600.25460207 -1132.8099018 1601.06328055 C-1132.81353503 1626.53173206 -1132.82947414 1652.00015516 -1132.85276068 1677.46859579 C-1132.87739938 1704.46565066 -1132.89107833 1731.46268929 -1132.89227176 1758.45975572 C-1132.89244319 1761.42693444 -1132.8926586 1764.39411316 -1132.89290619 1767.36129189 C-1132.89296196 1768.0917682 -1132.89301773 1768.82224452 -1132.89307518 1769.57485648 C-1132.89422139 1781.28293609 -1132.90520531 1792.99098624 -1132.91979324 1804.69905593 C-1132.93421338 1816.47639365 -1132.93711303 1828.25369073 -1132.92935327 1840.03103491 C-1132.9254621 1846.39951481 -1132.92630146 1852.76789635 -1132.94041061 1859.13636398 C-1132.95324004 1864.98083963 -1132.95187356 1870.82514388 -1132.9398199 1876.6696196 C-1132.93787859 1878.76883565 -1132.94086759 1880.86806424 -1132.94966426 1882.96726277 C-1133.09742817 1920.65429105 -1125.63687715 1958.6202972 -1101.56933594 1988.69189453 C-1101.05757812 1989.34416016 -1100.54582031 1989.99642578 -1100.01855469 1990.66845703 C-1096.30950143 1995.20729849 -1092.08978766 1998.97685235 -1087.56933594 2002.69189453 C-1086.5703125 2003.51689453 -1085.57128906 2004.34189453 -1084.54199219 2005.19189453 C-1064.83150501 2021.2072075 -1042.41981385 2033.25699579 -1019.91870117 2044.84692383 C-1013.27346407 2048.2719214 -1006.6813555 2051.77496094 -1000.13183594 2055.37939453 C-991.32922317 2060.22210682 -982.4638405 2064.93821926 -973.57788086 2069.62548828 C-961.96328226 2075.75231146 -950.38037769 2081.91331423 -938.93945312 2088.36035156 C-930.99085792 2092.82590969 -923.00926863 2097.23292531 -915.03651428 2101.65516663 C-911.302206 2103.72731275 -907.57181456 2105.80634312 -903.84370422 2107.88961792 C-901.28846511 2109.31624874 -898.73082988 2110.73854765 -896.17276001 2112.16009521 C-894.96469017 2112.83262648 -893.7575881 2113.50690003 -892.55160522 2114.1831665 C-872.62074343 2126.64685207 -872.62074343 2126.64685207 -850.56933594 2129.69189453 C-841.91635204 2125.55732554 -834.86593677 2119.90674965 -828.56933594 2112.69189453 C-828.03308594 2112.10666016 -827.49683594 2111.52142578 -826.94433594 2110.91845703 C-820.82279293 2103.50999873 -822.4190685 2092.40371594 -822.41111755 2083.32206726 C-822.40617887 2082.10800874 -822.40124018 2080.89395022 -822.39615184 2079.64310205 C-822.3834984 2076.28914251 -822.37517023 2072.93522403 -822.36872417 2069.58125027 C-822.36065816 2065.93590439 -822.34698212 2062.29057872 -822.33404922 2058.64524746 C-822.30941268 2051.44828849 -822.29002219 2044.25132421 -822.27232478 2037.0543452 C-822.25106777 2028.49830862 -822.22435724 2019.94229128 -822.19761399 2011.3862704 C-822.13403555 1990.94342632 -822.08071627 1970.50055946 -822.02898262 1950.05768254 C-822.00460854 1940.44866941 -821.97900009 1930.83965966 -821.95335959 1921.23064984 C-821.82434785 1872.81418529 -821.7117863 1824.39769408 -821.61024003 1775.98116455 C-821.5840355 1763.48710419 -821.5567778 1750.99304679 -821.52828888 1738.49899142 C-821.44963569 1703.97476433 -821.37986963 1669.45056708 -821.3463316 1634.92626286 C-821.34429378 1632.84354072 -821.34225164 1630.76081858 -821.34020113 1628.67809645 C-821.33884644 1627.3017906 -821.33750166 1625.92548473 -821.33616693 1624.54917886 C-821.32611237 1614.36409654 -821.30804591 1604.17905004 -821.28561401 1593.99398804 C-821.26054103 1582.53067945 -821.24598448 1571.06741875 -821.24549729 1559.60408163 C-821.24501659 1553.84995004 -821.24003486 1548.0959285 -821.221735 1542.34182358 C-821.2052821 1537.12178257 -821.20303707 1531.90192802 -821.21175492 1526.6818701 C-821.21249176 1524.81690375 -821.20828727 1522.9519264 -821.19825161 1521.0869869 C-821.15010786 1511.60146994 -821.53641172 1502.36931783 -822.91583252 1492.97373962 C-823.03373036 1492.16946771 -823.1516282 1491.3651958 -823.27309871 1490.53655201 C-826.21231924 1472.37698861 -835.56591946 1454.20581294 -850.19433594 1442.75439453 C-858.43720786 1437.12176538 -867.51700815 1432.81588196 -876.40185547 1428.30371094 C-881.65986622 1425.62809918 -886.89642431 1422.91139889 -892.13183594 1420.19189453 C-893.17815186 1419.64887695 -894.22446777 1419.10585937 -895.30249023 1418.54638672 C-903.89957317 1414.070919 -912.41304722 1409.45307675 -920.90917969 1404.78955078 C-927.11003464 1401.38788269 -933.33899459 1398.0391652 -939.56933594 1394.69189453 C-948.47474675 1389.90501572 -957.36208408 1385.08687662 -966.23242188 1380.23535156 C-973.41073033 1376.31341085 -980.61306615 1372.43716962 -987.81933594 1368.56689453 C-997.27649699 1363.48355885 -1006.69088891 1358.33307818 -1016.06152344 1353.09228516 C-1022.35275124 1349.579193 -1028.65526747 1346.08628947 -1034.95629883 1342.59082031 C-1040.32056871 1339.61371241 -1045.68217174 1336.63241849 -1051.03034973 1333.6264801 C-1053.4252798 1332.2808648 -1055.82220574 1330.93882644 -1058.2192688 1329.59701538 C-1059.88078106 1328.66504359 -1061.53944906 1327.7280066 -1063.19799805 1326.79077148 C-1082.80190741 1315.82530553 -1105.85716076 1304.76689368 -1123.19433594 1325.87939453 Z " fill="#38BDF8" transform="translate(1668.5693359375,77.30810546875)"/>
</svg>
