<?xml version="1.0" encoding="UTF-8"?>
<svg version="1.1" xmlns="http://www.w3.org/2000/svg" width="3213" height="647">
<path d="M0 0 C7.45919727 7.02552301 12.24395037 15.21510932 15.22924805 24.94116211 C17.2465085 31.26056138 19.82910977 37.27895444 22.50543213 43.34475708 C23.96821271 46.66289994 25.41560639 49.98774495 26.86328125 53.3125 C27.17082336 54.01844803 27.47836548 54.72439606 27.79522705 55.45173645 C31.35274257 63.63472403 34.81148222 71.85890817 38.265625 80.0859375 C38.93805478 81.68652969 39.61049964 83.28711555 40.28295898 84.88769531 C41.32321682 87.36409533 42.36334014 89.84055156 43.40315247 92.31713867 C47.55432542 102.2031787 51.72082215 112.08274316 55.890625 121.9609375 C56.28566223 122.89688751 56.68069946 123.83283752 57.08770752 124.79714966 C63.66108824 140.36805978 70.27235769 155.92266215 76.89675903 171.47192383 C83.46572578 186.8922584 90.00090819 202.32654924 96.51296997 217.77099609 C101.81892158 230.35482353 107.14828685 242.92835318 112.50018311 255.4927063 C119.65574688 272.29213546 126.70955591 289.13010093 133.640625 306.0234375 C137.84733153 297.87380225 141.59077712 289.62797175 145.078125 281.1484375 C146.21431901 278.4088512 147.35493013 275.6711132 148.49609375 272.93359375 C148.80966827 272.18071579 149.1232428 271.42783783 149.44631958 270.65214539 C154.19583907 259.26919167 159.05172353 247.93109129 163.890625 236.5859375 C164.89791119 234.22332578 165.90515397 231.86069554 166.91235352 229.49804688 C168.40885088 225.98769948 169.90539011 222.47737 171.40214539 218.96713257 C175.78081335 208.6974213 180.15035742 198.42385073 184.515625 188.1484375 C185.20019442 186.53719038 185.88476473 184.92594363 186.56933594 183.31469727 C187.91707843 180.142452 189.26471649 176.97016238 190.61230469 173.79785156 C193.05276936 168.05302784 195.49412813 162.30858419 197.9356842 156.56422424 C199.70508546 152.40127023 201.4742816 148.23822938 203.24291992 144.07495117 C206.52792562 136.34283628 209.81506232 128.6116485 213.10971069 120.88363647 C214.64721521 117.27686409 216.18351329 113.66957837 217.71972656 110.06225586 C218.44455075 108.36115416 219.16995024 106.66029744 219.89599609 104.9597168 C223.30956363 96.96393684 226.69225376 88.96354033 229.890625 80.87890625 C231.91125681 75.79216018 233.98385394 70.78398522 236.453125 65.8984375 C236.78513916 65.24012939 237.11715332 64.58182129 237.45922852 63.90356445 C240.94044769 57.18185303 245.08520985 51.07372118 249.640625 45.0234375 C250.31480469 44.12496094 250.98898437 43.22648437 251.68359375 42.30078125 C276.97652501 10.07957989 313.1451117 -10.35917246 353.640625 -15.9765625 C355.04441406 -16.17378906 355.04441406 -16.17378906 356.4765625 -16.375 C359.20325033 -16.68542292 361.89843036 -16.85949598 364.640625 -16.9765625 C365.27564941 -17.00379395 365.91067383 -17.03102539 366.56494141 -17.05908203 C412.04358579 -18.71949637 455.08435983 -2.94956762 488.3815918 27.97045898 C500.62253518 39.49630277 500.62253518 39.49630277 503.640625 44.0234375 C507.54762504 42.69383016 509.89612848 41.08952789 512.828125 38.2109375 C542.72661001 10.65656448 582.22875503 -5.96554442 621.640625 -13.9765625 C622.52008789 -14.15590332 623.39955078 -14.33524414 624.30566406 -14.52001953 C659.84264533 -21.42579725 697.16624274 -16.95240735 729.640625 -0.9765625 C730.27162109 -0.66992676 730.90261719 -0.36329102 731.55273438 -0.04736328 C752.87383118 10.43387926 772.41934588 25.96087187 786.640625 45.0234375 C791.28545164 41.08667895 791.28545164 41.08667895 795.8046875 37.0078125 C807.28567139 26.33318534 820.04465625 17.74874777 833.640625 10.0234375 C834.21683594 9.68747559 834.79304687 9.35151367 835.38671875 9.00537109 C859.28713467 -4.88911673 886.31038645 -12.63388296 913.640625 -15.9765625 C914.37410156 -16.0708252 915.10757812 -16.16508789 915.86328125 -16.26220703 C923.56363315 -17.1530383 931.27128072 -17.21886063 939.015625 -17.2265625 C939.72105438 -17.22756958 940.42648376 -17.22857666 941.15328979 -17.22961426 C952.85951628 -17.21835206 964.18136247 -16.4882184 975.640625 -13.9765625 C976.30755371 -13.83202637 976.97448242 -13.68749023 977.66162109 -13.53857422 C1020.02970344 -4.00496386 1056.14123748 22.73073329 1079.32421875 59.17578125 C1094.67094411 84.05065047 1102.74705141 112.38367713 1102.81230164 141.58998108 C1102.81865074 142.72569296 1102.82499985 143.86140484 1102.83154136 145.03153223 C1102.85151743 148.8218771 1102.86461721 152.61221338 1102.87768555 156.40258789 C1102.89002213 159.12669324 1102.90377431 161.85079108 1102.91741943 164.57489014 C1102.94964703 171.19847025 1102.97651951 177.82206152 1103.00122222 184.44567359 C1103.02133287 189.83482048 1103.04293022 195.22395935 1103.06556129 200.61309624 C1103.12963633 215.91802778 1103.18952469 231.22296782 1103.24424341 246.52793569 C1103.24866396 247.76405503 1103.24866396 247.76405503 1103.25317383 249.02514648 C1103.25612356 249.85024153 1103.2590733 250.67533657 1103.26211242 251.52543449 C1103.31012855 264.88363891 1103.36822048 278.24177811 1103.43087151 291.59992117 C1103.49519809 305.34120811 1103.55177466 319.08250857 1103.60043937 332.82386011 C1103.62788541 340.52833119 1103.65847439 348.23275931 1103.69745445 355.93718147 C1103.73060043 362.49957507 1103.75650364 369.06194942 1103.77331074 375.62440599 C1103.78207192 378.96618575 1103.79514977 382.30779221 1103.81511879 385.64953423 C1103.97178 412.55641938 1102.81958411 436.90640933 1083.21875 457.640625 C1075.48272142 464.79059081 1066.52878409 470.37440629 1056.640625 474.0234375 C1055.80144531 474.34183594 1054.96226563 474.66023438 1054.09765625 474.98828125 C1036.51867087 480.49281203 1016.01804889 477.99062303 999.828125 469.7734375 C982.88213064 460.01287702 970.72316617 446.06747402 965.17245579 427.14120579 C961.92988682 414.22918586 962.3903622 401.21717814 962.46118164 388.00415039 C962.46666434 385.58163132 962.47121159 383.15910999 962.47489929 380.73658752 C962.4845736 375.54045301 962.50016761 370.3443723 962.52086067 365.14827156 C962.55056081 357.62057324 962.56606612 350.09289342 962.57767277 342.56514781 C962.59663912 330.32832607 962.62236255 318.0915303 962.65454102 305.85473633 C962.65645895 305.12408773 962.65837688 304.39343913 962.66035294 303.64064967 C962.68189612 295.49055076 962.70507274 287.34045778 962.7300415 279.19036865 C962.73907402 276.23441575 962.74809044 273.2784628 962.75708008 270.32250977 C962.76041256 269.22834399 962.76041256 269.22834399 962.76381237 268.11207385 C962.8006227 255.91877357 962.82564239 243.72548016 962.84154981 231.53213495 C962.85183897 224.02968193 962.87213721 216.52738913 962.90566742 209.02500331 C962.93056235 203.26889613 962.93976244 197.51284505 962.94336128 191.75668907 C962.94736158 189.40659732 962.95650038 187.05650745 962.97132492 184.70645905 C963.11993135 160.25636788 959.65857253 140.94463891 942.515625 122.3359375 C928.16152952 108.52630772 908.56458296 103.47398254 889.109375 103.83984375 C869.05580974 104.90123741 851.47860375 112.29124364 837.640625 127.0234375 C826.86881724 140.40659259 821.30516689 154.495125 821.3890686 171.67884827 C821.38609846 172.71655489 821.38312833 173.75426151 821.38006818 174.82341379 C821.3724622 178.28215388 821.37890838 181.74072244 821.38525391 185.19946289 C821.38250235 187.68711461 821.37882144 190.17476545 821.37428284 192.66241455 C821.36618242 198.01193169 821.36383644 203.36140492 821.36623001 208.71092415 C821.36933792 216.46273304 821.35765211 224.21446942 821.34168021 231.96626001 C821.31574535 244.56791358 821.29571431 257.16956722 821.28222656 269.77124023 C821.28141619 270.52456052 821.28060582 271.27788081 821.2797709 272.05402898 C821.26856234 282.73157926 821.26327081 293.40912432 821.26038377 304.08667969 C821.26017978 304.83787764 821.25997579 305.58907559 821.25976562 306.36303711 C821.25946572 307.48844647 821.25946572 307.48844647 821.25915976 308.63659138 C821.25541612 321.18465065 821.23625704 333.73263121 821.20467126 346.28065103 C821.18584084 354.00392703 821.17974288 361.72700037 821.19048844 369.45029288 C821.19760257 375.38225372 821.18392893 381.3140557 821.16287041 387.24598694 C821.15757562 389.66616745 821.15899833 392.0863742 821.16790581 394.50654411 C821.22198427 410.49882638 820.69193194 425.77448482 813.078125 440.2734375 C812.74224365 440.92691162 812.4063623 441.58038574 812.06030273 442.25366211 C803.49896411 458.05520465 788.34938606 469.28674074 771.54296875 475.09375 C751.69031936 480.71912245 731.94149729 478.26398993 713.8046875 468.49609375 C697.21260317 458.61985308 686.87609926 443.32422474 681.640625 425.0234375 C680.89988089 421.76672663 680.51524718 418.76118883 680.51313305 415.42360973 C680.5101254 414.52480561 680.50711775 413.6260015 680.50401896 412.69996089 C680.50576933 411.72157435 680.50751971 410.74318781 680.50932312 409.7351532 C680.50720741 408.68861362 680.50509169 407.64207404 680.50291187 406.56382114 C680.49691272 403.05124463 680.49791198 399.53870406 680.4987793 396.02612305 C680.49574762 393.5095056 680.49222615 390.99288871 680.48825073 388.47627258 C680.48036 383.0519418 680.47519554 377.6276186 680.47196007 372.20328331 C680.46645273 363.61660673 680.44954249 355.02996964 680.43061829 346.4433136 C680.4242615 343.50226504 680.41795299 340.56121638 680.41164112 337.62016773 C680.41005736 336.88512365 680.4084736 336.15007958 680.40684184 335.39276144 C680.38890841 327.0270619 680.37268258 318.66135956 680.35766602 310.2956543 C680.35629014 309.53110016 680.35491427 308.76654602 680.35349671 307.97882358 C680.33160737 295.61302077 680.32082029 283.24722818 680.31329527 270.88140943 C680.3052015 258.16622871 680.28183586 245.45113511 680.2453416 232.73600417 C680.22340719 224.90552255 680.21362402 217.07522052 680.21984193 209.24470977 C680.22341565 203.22746727 680.20603232 197.2104655 680.18116379 191.19326591 C680.17428024 188.73761697 680.17409462 186.28193797 680.18136406 183.82629013 C680.2408449 161.46200539 678.14083209 142.09890304 661.8671875 125.2265625 C660.76503906 124.13601562 660.76503906 124.13601562 659.640625 123.0234375 C659.05023437 122.39953125 658.45984375 121.775625 657.8515625 121.1328125 C653.70393864 117.076546 649.00981157 114.40636897 643.890625 111.7734375 C643.25954834 111.4439209 642.62847168 111.1144043 641.97827148 110.77490234 C631.52559846 105.65014353 620.91482325 104.46404227 609.390625 104.5234375 C608.11590332 104.52843262 606.84118164 104.53342773 605.52783203 104.53857422 C595.69028636 104.72031 587.61273936 105.91663636 578.640625 110.0234375 C577.63515625 110.48105469 576.6296875 110.93867188 575.59375 111.41015625 C558.97561219 119.78808484 547.59027064 133.73282065 541.52069187 151.25690842 C537.97990005 163.78593511 538.08559343 176.02149136 538.14233398 188.96582031 C538.1385043 191.45114466 538.13287974 193.93646678 538.12561035 196.42178345 C538.11371841 201.74396111 538.11362081 207.06593426 538.12420464 212.38809967 C538.13924603 220.09579513 538.12915456 227.80330854 538.11268545 235.51099381 C538.08631173 248.03793314 538.07536238 260.56483126 538.07641602 273.09179688 C538.07647434 273.83921728 538.07653266 274.58663768 538.07659275 275.35670719 C538.0768586 278.38510459 538.07717588 281.41350198 538.07755601 284.44189937 C538.07852323 292.78678764 538.0771924 301.13167466 538.07446289 309.4765625 C538.074223 310.22427096 538.07398311 310.97197943 538.07373594 311.74234572 C538.06932182 324.23182746 538.05306256 336.72127107 538.0292421 349.21073031 C538.01522044 356.89531302 538.0122472 364.57975016 538.02386499 372.26433775 C538.03208652 378.15387701 538.02530064 384.04333823 538.01317596 389.93287277 C538.01077601 392.34023209 538.01348319 394.74760298 538.02178383 397.15494919 C538.06917328 411.7771337 537.92028798 424.730356 531.140625 438.0234375 C530.80095703 438.6949585 530.46128906 439.36647949 530.11132812 440.05834961 C526.35556727 447.10207491 521.34961878 452.51743016 515.640625 458.0234375 C514.69123047 459.01923828 514.69123047 459.01923828 513.72265625 460.03515625 C500.55104087 472.97416032 482.28919939 476.52984335 464.57519531 476.44580078 C447.22727538 476.03172407 432.58897696 469.52807078 419.640625 458.0234375 C419.00382813 457.46914063 418.36703125 456.91484375 417.7109375 456.34375 C405.4668027 444.97030923 398.76544941 428.22010878 397.36612988 411.80300426 C397.26045731 408.57926366 397.24199586 405.36832815 397.26208496 402.14294434 C397.25755483 400.92648428 397.2530247 399.71002423 397.2483573 398.45670176 C397.23883271 395.12486999 397.24244131 391.79354656 397.25186229 388.46174812 C397.25871936 384.8517391 397.24809572 381.24177451 397.23957825 377.6317749 C397.22706867 371.39070172 397.22501909 365.14969782 397.22993469 358.90861511 C397.23676831 349.87875846 397.22418149 340.84900551 397.20642751 331.81916744 C397.17784285 317.15679326 397.1602811 302.49443032 397.15185547 287.83203125 C397.15134829 286.95630016 397.15084111 286.08056907 397.15031856 285.17830068 C397.14628471 278.06915289 397.14278914 270.96000486 397.13932133 263.85085678 C397.13626245 257.62452937 397.13299054 251.39820212 397.12939453 245.171875 C397.12864061 243.85625479 397.12864061 243.85625479 397.12787145 242.51405638 C397.11912993 227.89346214 397.09870415 213.27290667 397.06991243 198.6523385 C397.05273776 189.64277283 397.04614518 180.63331682 397.05321848 171.62373692 C397.05739494 165.45746374 397.05105739 159.29125984 397.03641975 153.1250028 C397.02835734 149.56773651 397.02525837 146.01064201 397.03524208 142.45337677 C397.04597201 138.59817933 397.03367068 134.74325104 397.01916504 130.88806152 C397.02605897 129.76336755 397.03295291 128.63867358 397.04005575 127.47989798 C396.99220075 120.97211339 396.50228525 116.26619052 392.02734375 111.1953125 C387.28956724 107.23082825 383.50659327 105.34187842 377.265625 104.6484375 C370.39372455 105.35932375 366.23540702 108.01762608 361.8782959 113.34289551 C360.00732747 115.88334549 358.77751063 118.57674537 357.50390625 121.45703125 C357.22730164 122.07428574 356.95069702 122.69154022 356.66571045 123.32749939 C356.06740563 124.66534497 355.47341291 126.00512577 354.8833313 127.34661865 C353.59427845 130.27658025 352.28380942 133.19681519 350.97483826 136.11791992 C350.27663942 137.6765251 349.57952579 139.23561683 348.88343811 140.79516602 C345.27273188 148.87739204 341.56132391 156.91211706 337.84014893 164.94393921 C335.92967251 169.06809262 334.02323224 173.19410942 332.1171875 177.3203125 C331.74117401 178.13424973 331.36516052 178.94818695 330.97775269 179.78678894 C327.1562097 188.06411326 323.36416499 196.35482678 319.578125 204.6484375 C313.75966424 217.39394658 307.92030899 230.12965518 302.06658936 242.85900879 C296.59932177 254.74897067 291.15387457 266.64872949 285.7192688 278.5536499 C279.99145228 291.09783207 274.21483053 303.61911806 268.42800903 316.13616943 C263.59934401 326.58317495 258.79878384 337.04209105 254.04699707 347.52429199 C251.25018945 353.69308908 248.44670087 359.85885166 245.640625 366.0234375 C245.27886169 366.81826538 244.91709839 367.61309326 244.54437256 368.43200684 C242.19992652 373.58007762 239.8480791 378.72469059 237.48876953 383.8659668 C236.73345583 385.51402507 235.97994186 387.16290976 235.22851562 388.81274414 C231.15235564 397.75857887 226.91545339 406.5883442 222.34375 415.29296875 C221.9334404 416.07437225 221.5231308 416.85577576 221.10038757 417.66085815 C208.1249933 442.07109346 189.02315757 465.83885369 161.6953125 474.3125 C138.28686013 481.0304131 114.16830655 479.02315302 92.50390625 467.69921875 C59.33839228 448.28857005 43.84105665 409.27163852 28.640625 376.0234375 C28.32567078 375.33469543 28.01071655 374.64595337 27.68621826 373.93634033 C24.92045522 367.88380189 22.1656472 361.82632119 19.42211914 355.76367188 C14.58560589 345.07745993 9.68763011 334.42052279 4.765625 323.7734375 C3.23692581 320.46617049 1.70826107 317.15888757 0.1796875 313.8515625 C-0.19872284 313.03286179 -0.57713318 312.21416107 -0.9670105 311.37065125 C-5.29679639 301.99986748 -9.60284172 292.61820368 -13.90905762 283.23657227 C-17.89585082 274.55167045 -21.88900817 265.86979104 -25.8984375 257.1953125 C-26.27663132 256.37704987 -26.65482513 255.55878723 -27.04447937 254.71572876 C-27.80901561 253.06164302 -28.57355724 251.40755977 -29.33810425 249.753479 C-35.50596039 236.40886632 -41.63371987 223.04753861 -47.69927979 209.65612793 C-53.42108716 197.02924882 -59.24721338 184.45184106 -65.08761597 171.87945557 C-70.69800787 159.79968579 -76.2581666 147.69913201 -81.74578857 135.56311035 C-85.56155418 127.12632862 -89.42371399 118.71285047 -93.3359375 110.3203125 C-93.76304016 109.40314453 -94.19014282 108.48597656 -94.63018799 107.54101562 C-96.72380098 103.04619299 -98.82190486 98.55356511 -100.92773438 94.06445312 C-111.04957605 72.4094016 -119.06553846 52.09553339 -111.359375 28.0234375 C-103.51744984 8.27233792 -90.65389371 -4.60747487 -71.30175781 -13.18261719 C-66.77645528 -15.03232607 -62.16293535 -16.1411607 -57.359375 -16.9765625 C-56.63363281 -17.10546875 -55.90789062 -17.234375 -55.16015625 -17.3671875 C-34.3599839 -20.47291068 -15.76290611 -13.2053485 0 0 Z " fill="#38BDF8" transform="translate(154.359375,108.9765625)"/>
<path d="M0 0 C6.48802194 5.92372112 10.16663928 12.56431507 12.84483337 20.82737732 C13.33883636 22.27646988 13.33883636 22.27646988 13.84281921 23.75483704 C14.93140898 26.95996039 15.99521297 30.17276309 17.05967712 33.38597107 C17.83803841 35.69070801 18.61827846 37.99481118 19.4002533 40.29832458 C20.85694594 44.59447376 22.30864308 48.89221788 23.75254536 53.19268322 C26.57266949 61.59041594 29.43924791 69.97162815 32.32530212 78.34690857 C32.54892426 78.99598553 32.77254639 79.64506248 33.00294495 80.31380844 C33.91386379 82.95755489 34.82496861 85.60123709 35.73643494 88.24479485 C38.06836857 95.00873145 40.39245627 101.77535644 42.71611023 108.54214096 C48.10559066 124.23621837 53.50493525 139.9268945 58.90736008 155.61651993 C59.5602505 157.51263625 60.2131193 159.40876002 60.86598206 161.30488586 C62.6057253 166.35764557 64.34550682 171.4103921 66.08538818 176.46310425 C69.576477 186.60142162 73.06699428 196.73993567 76.5572052 206.8785553 C76.99520354 208.15088403 77.433202 209.42321273 77.87120056 210.69554138 C78.08802301 211.32538374 78.30484547 211.9552261 78.5282383 212.60415459 C80.05582956 217.04156643 81.58360015 221.47891651 83.11143494 225.91624451 C83.98352059 228.44911683 84.85559006 230.98199472 85.72764587 233.51487732 C85.94359531 234.14210064 86.15954475 234.76932396 86.38203812 235.41555405 C89.50424847 244.4842481 92.62424743 253.5537008 95.74303818 262.6235714 C103.86589305 286.24525737 111.99192147 309.86583239 120.18818665 333.46217346 C120.88816591 335.47739 121.58773775 337.4927481 122.28688049 339.508255 C123.23573213 342.24274197 124.18642382 344.97658107 125.13780212 347.71018982 C125.41587204 348.51216797 125.69394196 349.31414612 125.98043823 350.14042664 C127.32451834 354.04932468 127.32451834 354.04932468 128.99717712 357.82347107 C129.22394135 357.1741008 129.45070557 356.52473053 129.68434143 355.85568237 C130.00881256 354.92651505 130.33328369 353.99734772 130.66758728 353.0400238 C131.03789566 351.97959366 131.40820404 350.91916351 131.78973389 349.82659912 C132.63794562 347.39763247 133.48616152 344.96866728 134.3343811 342.53970337 C136.51030169 336.30871972 138.68618276 330.07772227 140.86191273 323.84667206 C142.14265469 320.17877403 143.4234246 316.51088575 144.70420837 312.84300232 C144.9643466 312.09802238 145.22448483 311.35304245 145.49250603 310.58548737 C149.01241984 300.50537021 152.53361847 290.42570294 156.05603027 280.34645844 C158.14089175 274.38057184 160.22539027 268.41455844 162.30967712 262.44847107 C162.53818611 261.79439018 162.7666951 261.1403093 163.0021286 260.46640778 C169.70772511 241.27155931 176.38945724 222.06855123 183.04682922 202.85691833 C188.28635386 187.73768029 193.55446043 172.62873327 198.84654236 157.52781677 C199.41889755 155.89460024 199.99124457 154.26138084 200.56358337 152.62815857 C200.84658798 151.82059616 201.12959259 151.01303375 201.4211731 150.18099976 C204.94832956 140.11304589 208.45757472 130.03884688 211.96876526 119.96531677 C216.05783952 108.23521297 220.15621427 96.508392 224.26280212 84.78440857 C224.72528512 83.46389414 225.18776374 82.14337819 225.65023804 80.82286072 C227.90367791 74.388808 230.15794333 67.95504643 232.41343689 61.52171326 C232.83451218 60.31929993 233.25558746 59.1168866 233.68942261 57.8780365 C234.52860062 55.48331814 235.36945595 53.08918687 236.21203613 50.69566345 C238.17879921 45.09398969 240.12051295 39.48663646 241.98159885 33.84902382 C242.85618449 31.20112643 243.74093273 28.55666367 244.62569237 25.91215134 C245.23885783 24.06356961 245.83604624 22.20971212 246.43267822 20.35572815 C250.11582021 9.3590687 255.98971778 0.12541832 266.46202087 -5.50074768 C275.5816668 -9.31733959 285.3987375 -9.65448635 294.80967712 -6.61402893 C304.39296937 -2.56931588 310.61426142 3.3890593 314.99717712 12.82347107 C321.00652696 28.7032506 312.68022802 46.42324021 307.1179657 61.33979797 C305.70762126 65.12300478 304.31673216 68.91329691 302.92396545 72.70300293 C302.16193339 74.7758845 301.39895237 76.84841743 300.63508606 78.92062378 C296.28402739 90.73087195 292.01993593 102.57236757 287.75697327 114.41462708 C286.36144268 118.29127561 284.96449541 122.16741265 283.56724548 126.04344177 C281.66644511 131.31651686 279.76596725 136.58970797 277.86582947 141.86302185 C273.37328794 154.3305347 268.87813679 166.79710668 264.38246918 179.26349258 C263.68393037 181.20054181 262.98541977 183.1376012 262.28691101 185.07466125 C256.02844874 202.42983244 249.76083451 219.78166855 243.48155212 237.12931824 C239.23256756 248.86820646 234.99093991 260.60971401 230.75889587 272.35472107 C230.3011497 273.62501098 229.84340127 274.89530008 229.38565063 276.16558838 C229.15719232 276.79958148 228.928734 277.43357458 228.6933527 278.08677959 C227.5238149 281.33235089 226.35426152 284.57791657 225.18467712 287.82347107 C224.95166271 288.47009579 224.7186483 289.1167205 224.47857285 289.78293991 C217.30608963 309.68597963 210.09639441 329.57516101 202.85099792 349.45179749 C197.80032817 363.31001341 192.78467722 377.18013602 187.80967712 391.06565857 C187.28295439 392.53510086 186.75621595 394.00453752 186.22946167 395.47396851 C183.92370244 401.90724126 181.61958774 408.34108204 179.3230381 414.77764893 C178.37820261 417.42390418 177.43085847 420.06925688 176.48297119 422.71442032 C175.83969459 424.51221558 175.19967754 426.31117613 174.55979919 428.11018372 C168.86158708 443.99802573 163.59009867 458.6597292 148.16123962 467.43675232 C137.62462947 472.14770522 125.05068601 472.81487685 113.99717712 469.32347107 C102.58933521 464.30192102 95.17848692 455.70297449 90.55479431 444.2509613 C89.35519888 440.88471898 88.2661559 437.48541015 87.20100403 434.07453918 C85.94892748 430.06998981 84.641541 426.08327336 83.34483337 422.09300232 C83.07320877 421.25211563 82.80158417 420.41122894 82.52172852 419.54486084 C79.47755421 410.14713233 76.21005741 400.83007368 72.93467712 391.51097107 C71.6614773 387.87983319 70.38971917 384.24819133 69.11827087 380.61643982 C68.79047638 379.68053009 68.46268188 378.74462036 68.12495422 377.78034973 C63.87742149 365.64131267 59.69052673 353.4813038 55.49717712 341.32347107 C49.85872591 324.98019725 44.20237475 308.64356798 38.49717712 292.32347107 C32.37766031 274.8181866 26.31712003 257.29287635 20.2686615 239.76292419 C14.7470016 223.7615589 9.19879226 207.76989915 3.61177063 191.79124451 C-2.86489512 173.26497324 -9.26687249 154.71301951 -15.65907288 136.15745544 C-16.43381031 133.91070991 -17.2085498 131.66396509 -17.98329163 129.41722107 C-18.33058823 128.40756287 -18.67788483 127.39790466 -19.03570557 126.35765076 C-21.29056792 119.8210136 -23.6200097 113.31454693 -26.00282288 106.82347107 C-32.68587487 125.46297199 -39.28567979 144.12960359 -45.81532288 162.82347107 C-46.72730831 165.43251097 -47.63959121 168.04144682 -48.55189514 170.65037537 C-49.96439482 174.68990792 -51.37680631 178.72947119 -52.78875732 182.76919556 C-55.94336008 191.79474085 -59.10086522 200.81926448 -62.26063538 209.84300232 C-71.18587249 235.33260101 -80.10154871 260.82549659 -89.00282288 286.32347107 C-96.18213825 306.88884146 -103.3685354 327.4517071 -110.56532288 348.01097107 C-111.20387711 349.83531677 -111.20387711 349.83531677 -111.85533142 351.69651794 C-116.11283324 363.86005828 -120.37151367 376.02318387 -124.63379002 388.18505192 C-126.57663745 393.72874514 -128.51892949 399.27263276 -130.46087551 404.81664181 C-131.8385203 408.74947047 -133.21696105 412.68201887 -134.59604073 416.6143446 C-135.65032659 419.62130012 -136.70342831 422.62867038 -137.75672913 425.63597107 C-138.12870422 426.69580704 -138.50067932 427.75564301 -138.88392639 428.84759521 C-139.23712952 429.85670456 -139.59033264 430.8658139 -139.95423889 431.90550232 C-140.2944809 432.87737488 -140.6347229 433.84924744 -140.98527527 434.85057068 C-142.38789574 438.94851255 -143.70161452 443.07448828 -145.00244141 447.20579529 C-146.59975565 451.38545168 -149.04120141 454.5184732 -152.00282288 457.82347107 C-152.51586975 458.43964294 -153.02891663 459.05581482 -153.55751038 459.69065857 C-159.61006538 466.43824381 -168.27220259 470.40781371 -177.28797913 471.06175232 C-190.51137427 471.32157084 -201.00253244 468.15022576 -210.90516663 459.08128357 C-215.97217744 453.73708398 -218.97437402 447.47940261 -222.00282288 440.82347107 C-222.66282288 440.82347107 -223.32282288 440.82347107 -224.00282288 440.82347107 C-233.10776698 415.91036701 -242.11242802 390.96345442 -251.01176453 365.97615051 C-257.41516762 348.00256464 -263.90105854 330.06054226 -270.44032288 312.13597107 C-276.1801285 296.40066134 -281.86819233 280.65174702 -287.38627625 264.83729553 C-292.05164243 251.46961235 -296.82401438 238.14200105 -301.62782288 224.82347107 C-302.00816681 223.76890717 -302.38851074 222.71434326 -302.78038025 221.62782288 C-304.34100144 217.30103234 -305.90165806 212.97425459 -307.46252441 208.64755249 C-311.7217698 196.83715568 -315.95659245 185.018033 -320.19032288 173.19847107 C-326.62123508 155.24714656 -333.0642833 137.30022829 -339.51649857 119.35655308 C-341.2418998 114.55786431 -342.96619161 109.75877797 -344.68983459 104.9594574 C-344.9289922 104.29357448 -345.1681498 103.62769156 -345.4145546 102.94163036 C-347.3829497 97.46105435 -347.3829497 97.46105435 -348.26826477 94.99580956 C-351.04106483 87.27511863 -353.81951366 79.55650323 -356.60740662 71.84124756 C-358.02380386 67.9192959 -359.43610617 63.99587853 -360.84742737 60.07209778 C-361.48242004 58.30985096 -362.11931899 56.54828962 -362.75831604 54.78749084 C-363.62214718 52.40671565 -364.47927197 50.023627 -365.33485413 47.63987732 C-365.57953934 46.97103516 -365.82422455 46.30219299 -366.07632446 45.61308289 C-370.09950828 34.33013063 -372.24803742 23.30599198 -367.12782288 12.03440857 C-362.24899892 2.44616426 -355.12634312 -3.63710268 -345.00282288 -7.17652893 C-335.41286991 -10.12880784 -324.87747306 -8.47423914 -316.00282288 -4.17652893 C-303.49124427 3.50384606 -299.20987288 15.06118334 -294.82695007 28.43486023 C-293.6608549 31.9914829 -292.46714929 35.53870403 -291.27633667 39.08711243 C-290.61168835 41.06900784 -289.94847422 43.0513847 -289.28656006 45.03419495 C-285.17912477 57.33000509 -280.95146795 69.58451485 -276.72966003 81.84138489 C-275.30156777 85.98765331 -273.87556949 90.13464016 -272.44984436 94.28172302 C-266.12330978 112.68177123 -259.77422452 131.07397027 -253.4148407 149.46269226 C-246.74897856 168.73986829 -240.12070496 188.02978815 -233.50282288 207.32347107 C-225.73104713 229.98098237 -217.93794691 252.63090399 -210.10487366 275.26731873 C-206.03323417 287.03630453 -201.97455367 298.80960172 -197.93502426 310.58964157 C-197.19601968 312.74436086 -196.45663051 314.89894775 -195.71708679 317.05348206 C-195.47536428 317.75770735 -195.23364178 318.46193264 -194.98459435 319.18749809 C-194.49950536 320.60069801 -194.01439929 322.01389205 -193.52927589 323.42708015 C-192.10749541 327.56960675 -190.68835185 331.71302519 -189.27108383 335.85709763 C-188.6073818 337.79629245 -187.94236464 339.7350301 -187.27674866 341.67356873 C-186.45984454 344.05282988 -185.64513203 346.43284494 -184.832901 348.81370544 C-184.47309143 349.85961853 -184.11328186 350.90553162 -183.74256897 351.98313904 C-183.42903473 352.89868561 -183.11550049 353.81423218 -182.79246521 354.75752258 C-182.1793237 356.78298614 -182.1793237 356.78298614 -181.00282288 357.82347107 C-180.77304245 357.15474472 -180.54326202 356.48601837 -180.30651855 355.79702759 C-160.62572041 298.52552106 -160.62572041 298.52552106 -151.42881775 272.22590637 C-146.25670412 257.43545751 -141.12309184 242.63194534 -136.00282288 227.82347107 C-130.2256219 211.11624912 -124.42688565 194.41684407 -118.59608459 177.72825623 C-113.37050766 162.76958645 -108.1813231 147.79849779 -103.00282288 132.82347107 C-95.96416905 112.4707618 -88.89136151 92.13027374 -81.78817749 71.80000305 C-79.48107025 65.19581625 -77.17880162 58.58995156 -74.87782288 51.98362732 C-73.85397223 49.04498262 -72.83006306 46.10635832 -71.80613708 43.16773987 C-71.15568759 41.30053492 -70.50547243 39.43324832 -69.85551453 37.56587219 C-68.14857105 32.66200951 -66.43720273 27.7597595 -64.71659851 22.860672 C-64.07034482 21.01618675 -63.43014964 19.16958153 -62.79066467 17.32273865 C-62.44817688 16.34973816 -62.10568909 15.37673767 -61.75282288 14.37425232 C-61.47567444 13.57930359 -61.198526 12.78435486 -60.91297913 11.96531677 C-57.34086474 3.55915811 -50.31498442 -2.97525155 -42.00282288 -6.48902893 C-27.81776059 -11.5854585 -11.78959579 -9.67048311 0 0 Z " fill="#38BDF8" transform="translate(1658.0028228759766,109.17652893066406)"/>
<path d="M0 0 C1.3154631 -0.00807175 2.63092621 -0.01614349 3.98625183 -0.02445984 C6.75344698 -0.03931982 9.52061819 -0.04923308 12.2878418 -0.05688477 C15.06345993 -0.06568216 17.83856725 -0.08644135 20.61401367 -0.1184082 C68.69729627 -0.65916849 113.76607495 11.12036418 152.66796875 40.23828125 C153.67214844 40.98722656 154.67632813 41.73617187 155.7109375 42.5078125 C189.98172442 69.33473315 207.67283143 114.21617393 213.18328476 156.16077614 C213.80546724 161.84804663 213.81295136 167.50205613 213.80841064 173.21810913 C213.81286733 174.98822198 213.81286733 174.98822198 213.81741405 176.79409468 C213.82455406 180.04758714 213.82727019 183.30104728 213.82801151 186.55454636 C213.8298726 190.07201978 213.83742494 193.58948199 213.84414673 197.10694885 C213.8576853 204.78666006 213.86374717 212.46636602 213.86815739 220.14608717 C213.87092622 224.94554345 213.87516461 229.74499774 213.87966156 234.54445267 C213.89184615 247.84639802 213.9021485 261.14834178 213.90553665 274.45029259 C213.90575622 275.30034897 213.90597578 276.15040535 213.906202 277.02622101 C213.90642028 277.87823803 213.90663856 278.73025505 213.90686345 279.60809076 C213.90730691 281.3344303 213.90775347 283.06076984 213.90820312 284.78710938 C213.90842455 285.64342212 213.90864598 286.49973486 213.90887412 287.38199647 C213.91282319 301.26088288 213.93028414 315.13971684 213.95356265 329.01858298 C213.97729775 343.28532967 213.98973941 357.55205004 213.99090457 371.81881678 C213.99181988 379.82214574 213.99753617 387.82540623 214.01572418 395.82871628 C214.03115403 402.64198753 214.03622849 409.45516912 214.02798608 416.26845454 C214.02409037 419.74125438 214.02495618 423.21387381 214.03904343 426.68665123 C214.05176476 430.45941717 214.04588452 434.23172309 214.03546143 438.00448608 C214.04754603 439.63394167 214.04754603 439.63394167 214.05987477 441.29631555 C213.98234716 453.33223335 211.36941611 462.15905623 203.07421875 470.921875 C195.46580992 478.11756354 187.09791699 479.8428843 176.9284668 479.70874023 C168.0208581 479.33705299 161.05234991 476.57185065 154.4921875 470.4375 C149.0873113 463.92155717 145.62189198 455.93248704 145.46264648 447.46972656 C145.44270126 446.52905334 145.42275604 445.58838013 145.40220642 444.61920166 C145.38549393 443.61177917 145.36878143 442.60435669 145.3515625 441.56640625 C145.3307814 440.52885193 145.31000031 439.49129761 145.28858948 438.42230225 C145.22325467 435.11102867 145.16428358 431.79967643 145.10546875 428.48828125 C145.06226826 426.2421794 145.01865348 423.99608547 144.97460938 421.75 C144.86758972 416.24617668 144.76579353 410.74227527 144.66796875 405.23828125 C144.11109375 405.93518066 143.55421875 406.63208008 142.98046875 407.35009766 C130.89249702 422.3247873 117.41947141 435.17896534 101.66796875 446.23828125 C101.08515137 446.64981445 100.50233398 447.06134766 99.90185547 447.48535156 C52.51731626 480.49294373 -12.36597931 491.8818364 -68.97705078 481.765625 C-97.5302384 476.06238057 -123.72241116 464.29660068 -145.1015625 444.3125 C-147.14363444 442.41348038 -149.24654707 440.6399047 -151.39453125 438.86328125 C-156.35635315 434.52915971 -160.29643922 429.4209765 -164.33203125 424.23828125 C-165.4303125 422.88089844 -165.4303125 422.88089844 -166.55078125 421.49609375 C-189.8528318 391.87623372 -200.71641618 353.47317649 -196.38647461 316.13818359 C-191.58086555 280.0746446 -173.659594 248.12840675 -144.84936523 225.78491211 C-107.0035619 197.67449354 -57.16457212 186.22116482 -10.66796875 186.03515625 C-9.48936279 186.02814194 -8.31075684 186.02112762 -7.09643555 186.01390076 C-3.29992826 185.99645655 0.49642282 185.99004547 4.29296875 185.98828125 C5.59208191 185.98760651 6.89119507 185.98693176 8.22967529 185.98623657 C28.55355122 186.00299847 48.50868098 186.55935778 68.66796875 189.23828125 C69.33088928 189.32549438 69.99380981 189.41270752 70.67681885 189.50256348 C95.7465939 192.82352764 120.51988337 197.66025571 144.66796875 205.23828125 C143.85415505 178.53423877 143.85415505 178.53423877 139.66796875 152.23828125 C139.48282715 151.46097656 139.29768555 150.68367187 139.10693359 149.8828125 C134.72588065 132.14981345 127.25710798 115.65508015 114.66796875 102.23828125 C113.92289063 101.40296875 113.1778125 100.56765625 112.41015625 99.70703125 C86.93881299 72.47034737 47.46767069 64.7816489 11.79153442 63.48803711 C-29.26094916 62.20924118 -66.87509548 69.45881969 -104.72021484 85.22607422 C-111.93518934 88.02223091 -119.1247868 88.32353619 -126.45703125 85.67578125 C-133.88221805 82.3653369 -140.58899365 76.55026169 -144.33203125 69.23828125 C-147.33717 60.3715291 -148.26440532 50.25465233 -144.14453125 41.61328125 C-141.98503745 37.93910026 -139.59620681 35.01283048 -136.33203125 32.23828125 C-135.6875 31.63242188 -135.04296875 31.0265625 -134.37890625 30.40234375 C-129.94481039 27.25299874 -125.12955441 25.46207384 -120.08203125 23.48828125 C-118.97448486 23.05290039 -117.86693848 22.61751953 -116.72583008 22.16894531 C-79.08340198 7.59218722 -40.35040046 0.24450344 0 0 Z M-31.33203125 240.23828125 C-32.65533447 240.48771484 -32.65533447 240.48771484 -34.00537109 240.7421875 C-63.25250863 246.42635315 -91.70202593 259.23718805 -109.3828125 284.125 C-123.23394316 305.33209836 -127.2733428 330.47557224 -122.33203125 355.23828125 C-116.11053074 379.22695147 -100.52500205 397.88517598 -79.41943359 410.36962891 C-53.55178385 424.86630466 -25.20871895 428.34495415 3.98043823 428.53482056 C5.57725543 428.54527635 7.17405149 428.56006839 8.77078247 428.5796814 C47.59604231 428.992318 80.57997136 413.27222441 108.66796875 387.23828125 C109.2609375 386.71105469 109.85390625 386.18382812 110.46484375 385.640625 C131.33944709 366.20736332 147.15112837 332.82133303 148.84266663 304.29182434 C148.89699649 301.19518061 148.8934748 298.10477199 148.86328125 295.0078125 C148.86045135 293.89137863 148.85762146 292.77494476 148.85470581 291.62467957 C148.84361582 288.09993228 148.81853255 284.57545021 148.79296875 281.05078125 C148.78292449 278.64388391 148.77380118 276.23698254 148.765625 273.83007812 C148.74371326 267.96605714 148.71034906 262.10218815 148.66796875 256.23828125 C120.6714835 248.33308471 92.57347106 242.61410634 63.66796875 239.23828125 C62.69311523 239.1196875 61.71826172 239.00109375 60.71386719 238.87890625 C30.97886915 235.39894828 -1.87477406 234.44154034 -31.33203125 240.23828125 Z " fill="#38BDF8" transform="translate(2170.33203125,101.76171875)"/>
<path d="M0 0 C0.60424805 0.433125 1.20849609 0.86625 1.83105469 1.3125 C10.47669447 7.58242574 18.30255397 14.6175827 26 22 C26.94875 22.89589844 27.8975 23.79179687 28.875 24.71484375 C36.00174466 31.60875443 42.09329921 39.06483288 48 47 C48.63679688 47.85335937 49.27359375 48.70671875 49.9296875 49.5859375 C78.50129182 89.21751768 92.50085245 137.29491718 91 186 C90.97035156 187.31742188 90.94070313 188.63484375 90.91015625 189.9921875 C90.44801823 201.19621655 88.318649 211.8941949 80 220 C70.02168808 227.40539182 61.45138465 228.29506482 49.32643127 228.24050903 C47.92620657 228.24138179 46.52598219 228.24313406 45.12575954 228.24568737 C41.28780098 228.25015111 37.44995442 228.24217062 33.61201012 228.23213124 C29.46962692 228.223485 25.32724991 228.22641774 21.18486023 228.22793579 C14.01111419 228.2289839 6.83740456 228.22271504 -0.33633232 228.21146011 C-10.70831479 228.19519804 -21.08027966 228.18999638 -31.4522735 228.18748413 C-48.28061093 228.18310814 -65.10892896 228.16980163 -81.93725586 228.15087891 C-98.28328352 228.13251763 -114.62930591 228.11836233 -130.9753418 228.10986328 C-132.48698996 228.10907511 -132.48698996 228.10907511 -134.02917647 228.10827102 C-139.08489808 228.10566092 -144.14061972 228.10313351 -149.1963414 228.10064721 C-191.13090776 228.0799177 -233.06545277 228.04469477 -275 228 C-274.505 229.485 -274.505 229.485 -274 231 C-273.80796605 232.98295929 -273.61958535 234.96639119 -273.45605469 236.9519043 C-269.87995359 279.00498887 -249.72904905 317.90215628 -217.90234375 345.65625 C-195.25462037 363.94512487 -170.49127865 375.28994664 -142 381 C-140.17855469 381.37125 -140.17855469 381.37125 -138.3203125 381.75 C-92.30724265 389.40113402 -42.62907024 375.84331199 -5 349 C1.59601906 344.20197176 7.87214317 339.14129994 13.78100586 333.5168457 C22.18066012 325.54032085 28.3543837 322.38091832 40.1159668 322.52612305 C45.85100024 322.77871101 50.2252309 323.8365919 55 327 C55.63292969 327.4125 56.26585938 327.825 56.91796875 328.25 C62.89897512 332.73894295 66.59673629 339.68601946 68 347 C68.83531044 355.57220219 67.6382956 362.86179424 62.59765625 369.98046875 C60.81965704 372.08885412 58.9398607 374.03909199 57 376 C56.13246094 376.91652344 55.26492188 377.83304688 54.37109375 378.77734375 C47.1498711 386.31060971 39.35249491 392.76648206 31 399 C30.45682129 399.41459473 29.91364258 399.82918945 29.35400391 400.25634766 C-0.32831386 422.88810581 -36.21724278 437.23477604 -73 443 C-73.72493652 443.11569336 -74.44987305 443.23138672 -75.19677734 443.35058594 C-88.74714946 445.41639702 -102.32516794 445.21600585 -116 445 C-116 444.34 -116 443.68 -116 443 C-117.05832031 443.04640625 -118.11664062 443.0928125 -119.20703125 443.140625 C-167.28653022 444.55472791 -217.58271295 425.8479363 -255 396 C-255.90878906 395.28328125 -256.81757813 394.5665625 -257.75390625 393.828125 C-264.78705181 388.18560139 -271.43706784 382.17576638 -278 376 C-278.65871094 375.38382813 -279.31742188 374.76765625 -279.99609375 374.1328125 C-285.14618784 369.16112814 -289.55308269 363.59710844 -294 358 C-294.77214844 357.05640625 -295.54429687 356.1128125 -296.33984375 355.140625 C-332.37347692 310.05478252 -345.26410171 255.46437674 -345.1875 198.8125 C-345.18656342 197.91103241 -345.18562683 197.00956482 -345.18466187 196.08078003 C-345.15444717 182.63523884 -344.99548135 169.32240436 -343 156 C-342.85997559 155.03304199 -342.71995117 154.06608398 -342.57568359 153.06982422 C-336.52194981 113.09506496 -320.10146879 76.57953964 -295 45 C-294.55720703 44.44006348 -294.11441406 43.88012695 -293.65820312 43.30322266 C-282.10474633 28.82665442 -268.91811962 15.96268676 -254 5 C-252.85922052 4.14083008 -251.71859587 3.28145453 -250.578125 2.421875 C-242.13908357 -3.85355513 -233.27738685 -9.06869462 -224 -14 C-223.37963867 -14.33741211 -222.75927734 -14.67482422 -222.12011719 -15.02246094 C-202.29810764 -25.76680773 -181.05462904 -32.58907419 -159 -37 C-158.1234375 -37.17789063 -157.246875 -37.35578125 -156.34375 -37.5390625 C-102.20615887 -48.06581633 -44.25151288 -31.75925254 0 0 Z M-239.04077148 73.93945312 C-261.77776641 102.13083055 -275 137.70937377 -275 174 C-177.32 174 -79.64 174 21 174 C21.11189758 160.78146734 21.11189758 160.78146734 19.875 147.8125 C19.74448242 146.94085205 19.61396484 146.0692041 19.47949219 145.17114258 C14.35395537 113.44907018 0.00283716 86.27945228 -22 63 C-23.10214844 61.80117187 -23.10214844 61.80117187 -24.2265625 60.578125 C-49.58422909 33.94833467 -86.91154991 18.25223342 -123.46679688 16.54443359 C-167.1671763 15.6447199 -211.62823276 40.98308328 -239.04077148 73.93945312 Z " fill="#38BDF8" transform="translate(3075,142)"/>
<path d="M0 0 C9.63728086 5.59535399 15.02197831 13.02687243 18.49609375 23.44921875 C18.61605829 26.14069831 18.68141224 28.80825515 18.70141602 31.50073242 C18.71131561 32.32047043 18.72121521 33.14020844 18.73141479 33.98478699 C18.76301384 36.69555773 18.78778095 39.406346 18.8125 42.1171875 C18.8330709 43.99620521 18.85406741 45.8752183 18.87547302 47.75422668 C18.93067961 52.70092025 18.98009515 57.64765549 19.02832031 62.59442139 C19.07854562 67.64176137 19.13422632 72.68904082 19.18945312 77.73632812 C19.29701743 87.64057329 19.39846628 97.544871 19.49609375 107.44921875 C20.40210327 105.71720215 20.40210327 105.71720215 21.32641602 103.95019531 C22.13414417 102.41334146 22.94201297 100.87656152 23.75 99.33984375 C24.14626587 98.5813916 24.54253174 97.82293945 24.95080566 97.04150391 C47.38714573 54.44347576 87.9162056 21.24754284 133.59448242 6.43603516 C179.83354886 -7.72118705 179.83354886 -7.72118705 197.36328125 1.07421875 C205.89806369 6.57649608 210.92389068 12.88081766 214.49609375 22.44921875 C216.94357699 34.09330568 215.79196571 44.94771592 209.3203125 55.0234375 C201.10203533 65.95181035 190.77884485 69.43534995 177.68359375 71.32421875 C130.11173454 78.98318021 84.6590545 104.73195854 55.91796875 143.9375 C55.10550415 145.10448846 54.29856578 146.27533655 53.49609375 147.44921875 C53.02751953 148.13290527 52.55894531 148.8165918 52.07617188 149.52099609 C30.49866228 181.43129881 18.20815744 217.78661 18.41552734 256.43139648 C18.41991914 257.93097813 18.42396026 259.43056084 18.42767906 260.93014431 C18.44200561 265.76988958 18.46798937 270.60953637 18.49609375 275.44921875 C18.50059068 276.2510718 18.5050876 277.05292485 18.5097208 277.87907648 C18.5674416 288.0695813 18.64103104 298.25994052 18.72104728 308.45029229 C18.77287233 315.06502057 18.82093335 321.67976814 18.86679077 328.29454041 C18.87693252 329.75574982 18.87693252 329.75574982 18.88727915 331.24647862 C18.90796549 334.23267818 18.92859828 337.21887811 18.94921875 340.20507812 C19.03363301 352.42672631 19.12088389 364.64833209 19.21972656 376.86987305 C19.2925795 385.8813528 19.35815841 394.89285262 19.41523778 403.90444654 C19.44554412 408.64555332 19.4794762 413.38656955 19.52235794 418.12758064 C19.56240822 422.5626837 19.59281494 426.99774918 19.61590767 431.43297195 C19.62603663 433.05309222 19.63965811 434.67319522 19.65712929 436.29325294 C19.79663261 449.52033878 19.14925446 460.71716711 10.18359375 471.13671875 C9.29671875 471.89984375 8.40984375 472.66296875 7.49609375 473.44921875 C6.63371094 474.20525391 6.63371094 474.20525391 5.75390625 474.9765625 C-2.64617976 481.87542832 -11.81718038 483.46700217 -22.50390625 482.44921875 C-33.36652028 480.56552846 -41.11615825 474.23642539 -47.50390625 465.44921875 C-54.60055768 454.13758647 -52.652224 439.12155087 -52.64434814 426.24961853 C-52.64693723 424.5392831 -52.64995188 422.82894827 -52.65335155 421.11861426 C-52.66136014 416.45089854 -52.66320765 411.78319826 -52.66394901 407.11547649 C-52.66581019 402.06907106 -52.67336246 397.02267344 -52.68008423 391.97627258 C-52.69362111 380.96006018 -52.6996841 369.94385143 -52.70409489 358.92763209 C-52.70686339 352.04499596 -52.71110167 345.16236122 -52.71559906 338.27972603 C-52.72778225 319.20867342 -52.73808564 300.13762193 -52.74147415 281.06656551 C-52.74169372 279.84794977 -52.74191328 278.62933403 -52.7421395 277.37379054 C-52.74235778 276.15235288 -52.74257606 274.93091523 -52.74280095 273.67246431 C-52.74324441 271.19757712 -52.74369097 268.72268993 -52.74414062 266.24780273 C-52.74436205 265.02018746 -52.74458348 263.79257219 -52.74481162 262.52775646 C-52.74876282 242.61977135 -52.76623088 222.71182277 -52.78950015 202.80385178 C-52.81321905 182.34563632 -52.82567613 161.8874392 -52.82684207 141.42920977 C-52.82775816 129.95003392 -52.83349453 118.47090578 -52.85166168 106.99174309 C-52.86706944 97.22223457 -52.87217886 87.45278851 -52.86392358 77.68327015 C-52.86002043 72.70151557 -52.86093065 67.71988679 -52.87498093 62.73814774 C-52.88773857 58.17297174 -52.88650601 53.60801584 -52.87439021 49.04284007 C-52.87243654 47.39632137 -52.87549632 45.74978698 -52.88423458 44.10329031 C-52.95409846 30.04304854 -51.98517096 17.34857397 -41.83984375 6.703125 C-30.69526743 -3.5000145 -13.90872405 -6.03346477 0 0 Z " fill="#38BDF8" transform="translate(2521.50390625,102.55078125)"/>
</svg>
